<svg width="18" height="15" viewBox="0 0 18 15" fill="none" xmlns="http://www.w3.org/2000/svg">
<path fill-rule="evenodd" clip-rule="evenodd" d="M16.0138 0.683125C16.258 0.927292 16.258 1.32313 16.0138 1.56729L2.86885 14.7115C2.74718 14.834 2.58718 14.8948 2.42718 14.8948C2.26718 14.8948 2.10718 14.834 1.98552 14.7115C1.74135 14.4673 1.74135 14.0723 1.98552 13.8281L3.6288 12.1858C2.45063 11.1082 1.4512 9.65553 0.717266 7.94496C0.648932 7.78663 0.648932 7.60829 0.717266 7.45079C1.5681 5.48079 2.76643 3.84996 4.1831 2.73579C6.92712 0.564166 10.5346 0.448895 13.3899 2.42356L15.1305 0.683125C15.3747 0.438958 15.7697 0.438958 16.0138 0.683125ZM15.7053 4.70062C16.3087 5.50146 16.8387 6.42729 17.2812 7.44896C17.3503 7.60729 17.3503 7.78729 17.2812 7.94479C15.5345 11.9923 12.4387 14.4081 8.99952 14.4081C8.21868 14.4081 7.44202 14.2815 6.69202 14.0323C6.36452 13.9231 6.18702 13.569 6.29618 13.2415C6.40535 12.9131 6.75785 12.739 7.08702 12.8456C7.70952 13.0531 8.35285 13.1581 8.99952 13.1581C11.8562 13.1581 14.467 11.1231 16.0245 7.69729C15.6445 6.86479 15.202 6.11062 14.707 5.45229C14.4995 5.17646 14.5545 4.78396 14.8303 4.57646C15.1053 4.36896 15.4978 4.42562 15.7053 4.70062ZM4.95727 3.71746C3.7606 4.65912 2.7331 6.03079 1.97477 7.69913C2.63597 9.1595 3.50462 10.3911 4.51356 11.3006L6.29506 9.51926C5.93262 8.98599 5.7376 8.35725 5.7376 7.69879C5.7376 5.89879 7.20093 4.43462 8.99927 4.43462C9.65175 4.43462 10.29 4.6333 10.8214 4.99238L12.4894 3.32454C10.112 1.78769 7.21851 1.92789 4.95727 3.71746ZM11.6973 7.55129C12.0373 7.61212 12.2631 7.93712 12.2023 8.27712C11.9631 9.60462 10.9114 10.658 9.58477 10.8996C9.54727 10.9063 9.50893 10.9096 9.47227 10.9096C9.17643 10.9096 8.9131 10.698 8.8581 10.3963C8.79643 10.0571 9.02143 9.73129 9.36143 9.66962C10.1781 9.52129 10.8248 8.87296 10.9714 8.05546C11.0331 7.71629 11.3581 7.49296 11.6973 7.55129ZM8.99927 5.68462C7.8901 5.68462 6.9876 6.58796 6.9876 7.69879C6.9876 8.01994 7.06321 8.32995 7.20573 8.60835L9.91043 5.90333C9.63197 5.76143 9.31877 5.68462 8.99927 5.68462Z" fill="#929292"/>
</svg>
