<svg width="40" height="32" viewBox="0 0 40 32" fill="none" xmlns="http://www.w3.org/2000/svg">
<path fill-rule="evenodd" clip-rule="evenodd" d="M20.0053 0.200012C27.9464 0.205824 35.0771 5.82202 39.0822 15.2256C39.2397 15.5918 39.2397 16.0063 39.0822 16.3725C35.0791 25.778 27.9464 31.3942 20.0053 31.4H19.9938C12.0528 31.3942 4.922 25.778 0.916932 16.3725C0.761413 16.0063 0.761413 15.5918 0.916932 15.2256C4.922 5.82202 12.0547 0.205824 19.9938 0.200012H20.0053ZM19.9996 3.10594C13.4025 3.10788 7.38533 7.84067 3.81418 15.799C7.38533 23.7594 13.4006 28.4921 19.9996 28.4941C26.5985 28.4921 32.6138 23.7594 36.185 15.799C32.6138 7.84067 26.5985 3.10788 19.9996 3.10594ZM19.999 8.22193C24.1404 8.22193 27.5099 11.6219 27.5099 15.8006C27.5099 19.9774 24.1404 23.3754 19.999 23.3754C15.8576 23.3754 12.49 19.9774 12.49 15.8006C12.49 11.6219 15.8576 8.22193 19.999 8.22193ZM19.999 11.1279C17.4454 11.1279 15.3699 13.224 15.3699 15.8006C15.3699 18.3752 17.4454 20.4695 19.999 20.4695C22.5526 20.4695 24.63 18.3752 24.63 15.8006C24.63 13.224 22.5526 11.1279 19.999 11.1279Z" fill="#929292"/>
</svg>
