<svg width="18" height="18" viewBox="0 0 18 18" fill="none" xmlns="http://www.w3.org/2000/svg">
<path d="M18 9C18 7.67461 17.1668 6.54258 15.9926 6.10313C16.5094 4.96406 16.302 3.57539 15.3633 2.63672C14.4246 1.69805 13.0359 1.49062 11.8969 2.00742C11.4574 0.833203 10.3254 0 9 0C7.67461 0 6.54258 0.833203 6.10313 2.00742C4.96406 1.49062 3.57188 1.69805 2.63672 2.63672C1.69805 3.57539 1.49062 4.96406 2.00742 6.10313C0.833203 6.54258 0 7.67461 0 9C0 10.3254 0.833203 11.4574 2.00742 11.8969C1.49062 13.0359 1.69805 14.4281 2.63672 15.3633C3.57188 16.2984 4.96055 16.5129 6.10313 15.9926C6.54258 17.1633 7.67461 18 9 18C10.3254 18 11.4574 17.1668 11.8969 15.9926C13.043 16.5129 14.4281 16.2984 15.3633 15.3633C16.302 14.4246 16.5094 13.0359 15.9926 11.8969C17.1668 11.4574 18 10.3254 18 9ZM12.9094 7.44434L8.3025 12.0143C8.15098 12.1648 7.90594 12.1637 7.75582 12.0122L5.09379 9.32871C4.94332 9.17719 4.94438 8.93215 5.0959 8.78168L6.01102 7.87395C6.16254 7.72348 6.40758 7.72453 6.55805 7.87605L8.03988 9.36984L11.4571 5.98008C11.6086 5.82961 11.8536 5.83066 12.0037 5.98219L12.9115 6.8973C13.062 7.04918 13.0613 7.29422 12.9094 7.44434Z" fill="white"/>
</svg>
