<svg width="21" height="31" viewBox="0 0 21 31" fill="none" xmlns="http://www.w3.org/2000/svg">
<path fill-rule="evenodd" clip-rule="evenodd" d="M9.12908 0.323693C9.05374 0.320169 8.98522 0.337299 8.92353 0.375082C7.80127 1.17478 6.70497 2.17401 5.63464 3.37277C4.59847 2.50045 3.58212 1.95801 2.58556 1.74545C2.51468 1.73649 2.44616 1.74791 2.38001 1.77971C2.31247 1.8088 2.26108 1.85448 2.22584 1.91675C2.19426 1.98156 2.18284 2.05008 2.19158 2.1223L2.68834 4.98295C1.89744 4.94758 1.13802 4.96471 0.410102 5.03434C0.336766 5.04295 0.273957 5.0715 0.221676 5.11999C0.164934 5.17731 0.130675 5.24012 0.118898 5.30841C0.111404 5.39067 0.128534 5.4649 0.170287 5.5311L1.0439 6.93573L0.786954 7.39823C0.747832 7.45916 0.730703 7.52197 0.735565 7.58666C0.743505 7.66378 0.772055 7.72659 0.821213 7.77508L0.97538 7.94638L0.752694 8.83712C0.746003 8.88846 0.746003 8.93985 0.752694 8.99129C0.770181 9.04209 0.79302 9.08777 0.821213 9.12832L1.24945 9.65934L1.47214 10.8755L1.43788 12.914C1.43685 12.9737 1.44827 13.0251 1.47214 13.0681L1.66056 13.4279V14.1816C1.66052 14.2164 1.66623 14.2507 1.67769 14.2843L2.19158 15.8431C1.91978 16.1334 1.83414 16.6016 1.93464 17.2478C2.01721 17.8338 2.10857 18.3648 2.20871 18.8408V18.858L2.39714 19.5603C2.40561 19.5655 2.41132 19.5712 2.41427 19.5774C2.47436 19.756 2.59426 20.0358 2.77399 20.4167C3.08973 21.0406 3.51226 21.4003 4.04158 21.4959H4.05871C4.12567 21.5135 4.19419 21.525 4.26427 21.5302C4.28657 21.6616 4.30941 21.7872 4.33279 21.907C4.47665 22.7185 4.68791 23.4951 4.96658 24.2367C4.97189 24.2539 4.9776 24.2653 4.98371 24.2709L5.0351 24.4079C5.28995 24.9441 5.4898 25.3437 5.63464 25.607L5.61751 25.5899C5.75722 25.8764 5.95136 26.2018 6.19992 26.5663C6.64355 27.2193 6.98614 27.6989 7.22769 28.0052C7.51912 28.3942 7.7989 28.7368 8.06705 29.0329C8.07258 29.0472 8.07829 29.0586 8.08418 29.0672L8.58093 29.5468C8.59459 29.5617 8.60601 29.5731 8.61519 29.5811C8.68282 29.6575 8.75705 29.726 8.83788 29.7867C8.86643 29.8152 8.88927 29.838 8.9064 29.8552L8.92353 29.8723C9.50861 30.4238 10.2509 30.6864 11.1504 30.6603C11.1669 30.6608 11.1784 30.6608 11.1846 30.6603C11.6836 30.595 12.129 30.4408 12.5208 30.1978C12.6768 30.0977 12.8424 29.9664 13.0175 29.8038V29.7867C13.0893 29.7263 13.1635 29.6578 13.2402 29.5811V29.564C13.5598 29.2793 13.7825 29.0395 13.9083 28.8445L14.7476 27.6626C14.8104 27.5826 14.8675 27.5027 14.9189 27.4228L14.936 27.4056C15.042 27.2454 15.1333 27.0912 15.2101 26.9431C15.298 26.8077 15.4008 26.6192 15.5184 26.3779C15.6326 26.1552 15.7468 25.9268 15.861 25.6927C15.9783 25.4523 16.064 25.2696 16.118 25.1445V25.1274C16.2066 24.9161 16.2865 24.7048 16.3578 24.4936V24.4765C16.4179 24.2938 16.4693 24.1053 16.512 23.9112V23.9283C16.5516 23.7969 16.5802 23.6656 16.5976 23.5343L17.0087 21.4959L17.1286 21.4617C17.1458 21.4571 17.1629 21.4514 17.18 21.4445C17.8462 21.0956 18.2459 20.6274 18.3791 20.0399V20.057C18.488 19.7088 18.5965 19.1606 18.7045 18.4126L18.8758 16.7853C18.9366 16.1693 18.7938 15.7011 18.4476 15.3806L19.2356 13.2737C19.2565 13.2199 19.2565 13.1628 19.2356 13.1024L18.9786 11.8691L19.6295 10.8755C19.6592 10.8337 19.6763 10.7823 19.6809 10.7214C19.6854 10.674 19.6739 10.6226 19.6467 10.5672L19.424 10.0362L19.4583 9.91628V9.95054C19.9326 8.27666 20.3038 6.80351 20.5717 5.5311V5.51397L20.8286 4.16073C20.8498 4.08387 20.8384 4.00964 20.7944 3.93804C20.7495 3.86524 20.6867 3.81385 20.6059 3.78388C19.9045 3.59394 19.0309 3.59394 17.9851 3.78388C17.1382 3.9504 16.4416 4.11028 15.8953 4.26351C15.9126 3.1648 15.8555 2.0628 15.724 0.957489C15.7158 0.90619 15.693 0.854801 15.6555 0.803323C15.6193 0.762194 15.5736 0.727935 15.5184 0.700545C15.4629 0.681899 15.4058 0.676189 15.3471 0.683415C13.5656 0.966768 11.9954 1.38359 10.6365 1.93388C10.3064 1.38163 9.86677 0.867737 9.31751 0.392212C9.26652 0.349521 9.20371 0.326682 9.12908 0.323693ZM10.3795 2.67045C10.4662 2.69882 10.5461 2.69311 10.6194 2.65332C11.912 2.10183 13.408 1.6793 15.1073 1.38573C15.2287 2.49197 15.2743 3.59398 15.2444 4.69175C15.2425 4.76963 15.2597 4.83815 15.2958 4.8973C15.3424 4.95556 15.3995 4.99553 15.467 5.01721C15.5353 5.0401 15.6038 5.0401 15.6726 5.01721C16.234 4.82611 17.0448 4.62626 18.105 4.41767C18.8961 4.27899 19.5756 4.25615 20.1434 4.34916L19.9379 5.39406C19.9386 5.41686 19.9329 5.4397 19.9207 5.46258C19.6549 6.70961 19.2895 8.1485 18.8245 9.77925C18.8296 9.79071 18.8296 9.80213 18.8245 9.81351L18.7902 9.95054L18.7731 10.0191C18.767 10.0805 18.7728 10.1376 18.7902 10.1904L18.9786 10.67L18.362 11.6121C18.3124 11.6943 18.2953 11.78 18.3106 11.8691L18.5846 13.1367L17.8309 15.1922C17.8091 15.2028 17.7863 15.2142 17.7624 15.2265V15.2436C17.4904 15.327 17.2506 15.464 17.043 15.6547C17.0372 15.6659 17.0315 15.6716 17.0258 15.6718L16.9573 15.7404C16.963 15.332 16.9745 14.8124 16.9916 14.1816L17.1115 10.67L17.1286 10.3274C17.1172 9.88564 17.0544 9.47453 16.9402 9.09406C16.8274 8.66676 16.4049 8.43836 15.6726 8.40888H15.6555C14.7567 8.44216 13.7574 8.60203 12.6578 8.88851L10.5851 7.87786C10.5443 7.86483 10.4987 7.85912 10.4481 7.86073C10.4115 7.86198 10.3716 7.8734 10.3282 7.89499L8.78649 8.73434L7.9814 7.99777C7.93019 7.95521 7.86738 7.93237 7.79297 7.92925C7.7311 7.92626 7.674 7.94339 7.62168 7.98064L6.31982 9.09406C5.29838 8.64209 4.52184 8.43082 3.99019 8.46027C3.93528 8.46263 3.88389 8.47976 3.83603 8.51166C3.78888 8.55573 3.75462 8.60712 3.73325 8.66582L3.51056 9.60795C3.44401 9.86882 3.38691 10.24 3.33927 10.7214C3.33882 10.7357 3.33882 10.7472 3.33927 10.7556V10.9955V11.4922C3.33793 11.7378 3.38361 12.2517 3.47631 13.0339L3.75038 15.0209V15.038C3.78401 15.2213 3.80685 15.4155 3.8189 15.6205C3.82082 15.6316 3.82082 15.643 3.8189 15.6547C3.83139 15.6947 3.8371 15.7346 3.83603 15.7746V15.8089C3.84553 15.9645 3.85124 16.1244 3.85316 16.2885C3.82131 16.2567 3.78705 16.2224 3.75038 16.1857H3.73325C3.49861 15.9611 3.21883 15.8127 2.8939 15.7404C2.88324 15.7422 2.86611 15.7422 2.84251 15.7404L2.31149 14.1302V13.3593C2.31154 13.3081 2.30012 13.2567 2.27723 13.2052L2.08881 12.8455L2.12306 11.0811V10.8755C2.12226 10.8585 2.11655 10.8357 2.10594 10.807L1.86612 9.45378C1.86184 9.40507 1.839 9.35939 1.7976 9.31675L1.43788 8.85425L1.64344 7.96351C1.66253 7.90922 1.66253 7.85212 1.64344 7.79221C1.63532 7.74653 1.61248 7.70085 1.57492 7.65517L1.45501 7.51814L1.69482 7.10703C1.72783 7.05376 1.74496 6.99666 1.74621 6.93573C1.74492 6.87466 1.72779 6.81756 1.69482 6.76443L1.48927 6.43897L0.992509 5.63388C1.65575 5.60395 2.34093 5.61537 3.04806 5.66814C3.12104 5.67349 3.18385 5.65636 3.23649 5.61675C3.29979 5.58757 3.34547 5.5419 3.37353 5.47971C3.40217 5.41913 3.40788 5.35632 3.39066 5.29129L2.91103 2.51629C3.74565 2.78728 4.59071 3.30688 5.44621 4.07508C5.51772 4.13673 5.59766 4.16528 5.68603 4.16073C5.77841 4.15493 5.85264 4.11496 5.90871 4.04082C6.94666 2.85518 8.00299 1.86166 9.07769 1.06027C9.55469 1.50631 9.93154 1.99165 10.2083 2.51629C10.248 2.59092 10.3051 2.6423 10.3795 2.67045ZM4.04158 9.74499L4.21288 9.00841C4.70924 9.0528 5.38871 9.26978 6.25131 9.65934C6.30385 9.68811 6.35524 9.69953 6.40547 9.6936C6.45659 9.687 6.50227 9.66416 6.54251 9.62508L7.77584 8.56304L8.56381 9.26536C8.60766 9.31296 8.65904 9.34151 8.71797 9.35101C8.77543 9.3573 8.82682 9.34588 8.87214 9.31675L10.4652 8.44314L12.5036 9.41953C12.5645 9.45499 12.6273 9.4607 12.692 9.43666C12.9724 9.36796 13.2464 9.30515 13.5143 9.24823C14.2855 9.0809 14.9992 8.98384 15.6555 8.95703C16.0782 8.97331 16.3352 9.07609 16.4263 9.26536L16.4092 9.24823C16.5105 9.58239 16.5676 9.94211 16.5805 10.3274L16.4434 14.1644C16.4359 14.443 16.4302 14.7 16.4263 14.9353C16.4103 15.781 16.416 16.3691 16.4434 16.6996C16.4493 16.7682 16.4722 16.8253 16.512 16.8709C16.5623 16.9188 16.6194 16.9473 16.6833 16.9566C16.7476 16.9635 16.8047 16.9463 16.8545 16.9052C16.9142 16.8787 16.9542 16.833 16.9745 16.7681C17.042 16.5805 17.1277 16.4149 17.2314 16.2714L17.4198 16.0487C17.4257 16.0488 17.4314 16.0431 17.437 16.0316C17.5658 15.9198 17.7085 15.8341 17.8652 15.7746C17.8848 15.7864 17.9019 15.7921 17.9166 15.7917C18.1623 15.9947 18.2651 16.303 18.2249 16.7167L18.0536 18.3441C17.9557 19.0363 17.8587 19.5444 17.7624 19.8686C17.7596 19.88 17.7539 19.8857 17.7453 19.8857C17.6522 20.2435 17.4124 20.5347 17.0258 20.7593L17.0772 19.9542C17.0816 19.879 17.0588 19.8105 17.0087 19.7487C16.9581 19.6968 16.8953 19.6682 16.8203 19.663C16.7451 19.6586 16.6766 19.6814 16.6147 19.7316C16.5629 19.7822 16.5343 19.845 16.5291 19.92L16.4606 21.0848C16.4413 21.1226 16.4242 21.1626 16.4092 21.2047L15.9638 23.3973C15.9462 23.5201 15.9177 23.64 15.8782 23.757C15.8409 23.9397 15.7952 24.1167 15.7411 24.288C15.6753 24.4878 15.6011 24.6877 15.5184 24.8876V24.8704C15.4696 24.9966 15.3897 25.1793 15.2786 25.4186V25.4015C15.1644 25.6356 15.0502 25.864 14.936 26.0867C14.8252 26.3135 14.7281 26.4905 14.6448 26.6177C14.5731 26.755 14.4875 26.8977 14.3879 27.0459C14.3342 27.1291 14.2771 27.209 14.2166 27.2857V27.2686L13.3772 28.4505V28.4677C13.2644 28.6363 13.0702 28.8476 12.7948 29.1015H12.7777C12.7068 29.1838 12.6382 29.258 12.5721 29.3242H12.555C12.4192 29.4601 12.2879 29.5686 12.161 29.6496H12.1782C11.8619 29.8405 11.5022 29.9604 11.099 30.0093C10.4084 30.022 9.83171 29.8165 9.3689 29.3927C9.34891 29.3727 9.32607 29.3498 9.30038 29.3242C9.29498 29.3205 9.28356 29.3148 9.26612 29.307C9.20014 29.2515 9.13734 29.1887 9.07769 29.1186C9.07529 29.1157 9.06958 29.11 9.06056 29.1015L8.52955 28.5876L8.54668 28.6047C8.28955 28.3185 8.02119 27.9873 7.74158 27.6112C7.50351 27.3122 7.16663 26.844 6.73094 26.2066C6.51128 25.8744 6.33999 25.5774 6.21705 25.3158C6.21718 25.3072 6.21147 25.2958 6.19992 25.2816C6.05927 25.031 5.86513 24.6484 5.61751 24.1339V24.1167L5.56612 23.9797L5.58325 24.014C5.31377 23.3052 5.10821 22.5629 4.96658 21.7871C4.93009 21.5927 4.90154 21.3928 4.88093 21.1876C4.87032 21.1055 4.83035 21.037 4.76103 20.982C4.70562 20.9256 4.63711 20.897 4.55547 20.8964C4.41411 20.8978 4.28278 20.8863 4.16149 20.8621H4.17862C3.84004 20.7865 3.56597 20.541 3.3564 20.1255V20.1427C3.19353 19.7928 3.08505 19.5358 3.03094 19.3718V19.389L2.84251 18.6867V18.7038C2.74852 18.2433 2.66287 17.7294 2.58556 17.1621C2.52641 16.7924 2.54925 16.5126 2.65408 16.3228C2.67438 16.3275 2.69151 16.3275 2.70547 16.3228C2.7321 16.3139 2.75494 16.3025 2.77399 16.2885H2.80825C3.02576 16.3387 3.21419 16.4358 3.37353 16.5797V16.5968C3.58729 16.7754 3.74146 16.9182 3.83603 17.0251C3.8462 17.0454 3.85191 17.0625 3.85316 17.0765C3.87609 17.1101 3.89893 17.1387 3.92168 17.1621C3.98199 17.2169 4.0505 17.2454 4.12723 17.2478C4.20043 17.2486 4.26324 17.22 4.31566 17.1621C4.37026 17.1164 4.39881 17.0535 4.40131 16.9737C4.4129 16.5568 4.40719 16.1571 4.38418 15.7746C4.38328 15.7119 4.37757 15.6491 4.36705 15.5862C4.35625 15.3572 4.33341 15.1402 4.29853 14.9353V14.9524L4.02445 12.9654C3.93439 12.2173 3.88871 11.7262 3.88742 11.4922V10.7728C3.93109 10.3292 3.98248 9.98659 4.04158 9.74499ZM9.57445 22.5066C9.59029 22.5501 9.61313 22.5844 9.64297 22.6093L9.96844 22.8834C9.996 22.9053 10.0246 22.9167 10.0541 22.9177C10.7109 22.9536 11.3562 22.8565 11.9897 22.6265C12.0335 22.6181 12.062 22.5953 12.0754 22.5579C12.1046 22.5202 12.1161 22.4802 12.1096 22.438C12.0995 22.3958 12.0766 22.3615 12.0411 22.3353C12.0083 22.3094 11.9683 22.298 11.9212 22.301C11.1257 22.3573 10.4062 22.3573 9.76288 22.301C9.7259 22.298 9.69164 22.3037 9.6601 22.3181C9.62535 22.3448 9.5968 22.3734 9.57445 22.4038C9.56825 22.443 9.56825 22.4773 9.57445 22.5066Z" fill="black"/>
<path fill-rule="evenodd" clip-rule="evenodd" d="M16.4099 9.24823L16.4271 9.26536C16.3359 9.07609 16.079 8.97331 15.6562 8.95703C15 8.98384 14.2862 9.08091 13.515 9.24823C14.3469 9.25341 15.0207 9.33335 15.5363 9.48805L15.5877 9.50518C15.7704 9.75641 15.9132 10.1161 16.016 10.5843C16.1073 11.0297 16.2101 11.9205 16.3243 13.2566C16.3692 13.8656 16.4035 14.4252 16.4271 14.9353C16.431 14.7 16.4367 14.443 16.4442 14.1644L16.5812 10.3274C16.5683 9.94212 16.5113 9.5824 16.4099 9.24823ZM3.61411 17.6418C3.48849 17.6303 3.38001 17.6874 3.28865 17.813C3.18587 17.9272 3.18016 18.1956 3.27152 18.6181C3.30578 18.8237 3.35717 19.0007 3.42569 19.1492C3.47136 19.2862 3.53417 19.389 3.61411 19.4575C3.75115 19.606 3.87677 19.6573 3.99096 19.6117L3.61411 17.6418ZM17.609 17.282C17.4948 17.1678 17.4092 17.1164 17.3521 17.1279L17.0951 19.1149C17.1065 19.1492 17.1865 19.1206 17.3349 19.0293C17.472 18.9379 17.5633 18.818 17.609 18.6695C17.6319 18.5097 17.6661 18.2641 17.7118 17.933C17.7461 17.6018 17.7118 17.3848 17.609 17.282Z" fill="#CC9966"/>
<path fill-rule="evenodd" clip-rule="evenodd" d="M4.21401 9.00864L4.04271 9.74521C3.98361 9.98681 3.93222 10.3294 3.88854 10.773V11.4924C3.88984 11.7264 3.93552 12.2175 4.02558 12.9656L4.29966 14.9526V14.9355C4.33454 15.1404 4.35738 15.3574 4.36817 15.5864C4.3787 15.6493 4.38441 15.7121 4.3853 15.7748C4.40832 16.1573 4.41403 16.557 4.40243 16.9739C4.39994 17.0538 4.37139 17.1166 4.31679 17.1623C4.26437 17.2202 4.20156 17.2488 4.12836 17.248C4.05163 17.2456 3.98311 17.2171 3.9228 17.1623C3.90005 17.1389 3.87721 17.1103 3.85429 17.0767C3.85304 17.0627 3.84733 17.0456 3.83716 17.0253C3.74259 16.9184 3.58842 16.7756 3.37466 16.5971V16.5799C3.21531 16.436 3.02689 16.3389 2.80938 16.2887H2.77512C2.75607 16.3027 2.73323 16.3141 2.7066 16.323C2.69264 16.3277 2.67551 16.3277 2.65521 16.323C2.55038 16.5128 2.52754 16.7926 2.58669 17.1623C2.664 17.7296 2.74965 18.2435 2.84364 18.704V18.6869L3.03206 19.3892V19.3721C3.08617 19.536 3.19466 19.793 3.35753 20.1429V20.1258C3.5671 20.5412 3.84117 20.7867 4.17975 20.8623H4.16262C4.28391 20.8866 4.41524 20.898 4.5566 20.8966C4.63823 20.8973 4.70675 20.9258 4.76216 20.9822C4.83148 21.0373 4.87145 21.1058 4.88206 21.1878C4.90267 21.393 4.93122 21.5929 4.96771 21.7873C5.10934 22.5631 5.3149 23.3054 5.58438 24.0142L5.56725 23.9799L5.61864 24.117V24.1341C5.86626 24.6486 6.06039 25.0312 6.20105 25.2818C6.2126 25.296 6.21831 25.3074 6.21817 25.316C6.34112 25.5777 6.51241 25.8746 6.73206 26.2068C7.16775 26.8442 7.50464 27.3125 7.74271 27.6114C8.02232 27.9875 8.29068 28.3187 8.5478 28.6049L8.53067 28.5878L9.06169 29.1017C9.0707 29.1102 9.07641 29.1159 9.07882 29.1188C9.13846 29.1889 9.20127 29.2517 9.26725 29.3073C9.28469 29.3151 9.29611 29.3208 9.30151 29.3244C9.3272 29.3501 9.35004 29.3729 9.37003 29.3929C9.83284 29.8167 10.4095 30.0222 11.1001 30.0096C11.5033 29.9606 11.863 29.8407 12.1793 29.6498H12.1622C12.289 29.5688 12.4204 29.4603 12.5561 29.3244H12.5733C12.6394 29.2583 12.7079 29.184 12.7788 29.1017H12.796C13.0714 28.8478 13.2655 28.6365 13.3784 28.4679V28.4508L14.2177 27.2688V27.286C14.2782 27.2092 14.3353 27.1293 14.389 27.0461C14.4886 26.8979 14.5743 26.7552 14.646 26.6179C14.7292 26.4907 14.8263 26.3137 14.9372 26.0869C15.0514 25.8642 15.1656 25.6358 15.2797 25.4017V25.4188C15.3908 25.1795 15.4708 24.9968 15.5196 24.8707V24.8878C15.6022 24.6879 15.6764 24.4881 15.7422 24.2883C15.7963 24.117 15.842 23.94 15.8793 23.7572C15.9188 23.6402 15.9474 23.5203 15.9649 23.3975L16.4103 21.2049C16.4253 21.1628 16.4425 21.1229 16.4617 21.085L16.5302 19.9202C16.5354 19.8452 16.564 19.7824 16.6159 19.7318C16.6777 19.6816 16.7462 19.6588 16.8214 19.6633C16.8964 19.6684 16.9593 19.697 17.0098 19.7489C17.0599 19.8107 17.0828 19.8792 17.0784 19.9545L17.027 20.7596C17.4135 20.535 17.6533 20.2438 17.7464 19.886C17.755 19.886 17.7607 19.8802 17.7635 19.8688C17.8598 19.5447 17.9569 19.0365 18.0547 18.3443L18.226 16.717C18.2662 16.3032 18.1634 15.9949 17.9177 15.792C17.903 15.7923 17.8859 15.7866 17.8663 15.7748C17.7097 15.8343 17.5669 15.92 17.4381 16.0318C17.4326 16.0433 17.4268 16.049 17.421 16.0489L17.2325 16.2716C17.1288 16.4151 17.0432 16.5807 16.9756 16.7684C16.9553 16.8333 16.9153 16.8789 16.8557 16.9054C16.8058 16.9466 16.7487 16.9637 16.6844 16.9568C16.6205 16.9476 16.5634 16.919 16.5131 16.8711C16.4733 16.8255 16.4505 16.7684 16.4446 16.6998C16.4172 16.3693 16.4115 15.7812 16.4274 14.9355C16.4038 14.4254 16.3696 13.8658 16.3247 13.2568C16.2105 11.9207 16.1077 11.0299 16.0163 10.5846C15.9135 10.1164 15.7708 9.75663 15.5881 9.5054L15.5367 9.48827C15.021 9.33356 14.3473 9.25363 13.5154 9.24845C13.2476 9.30537 12.9735 9.36818 12.6932 9.43688C12.6284 9.46092 12.5656 9.45521 12.5047 9.41975L10.4663 8.44336L8.87327 9.31697C8.82795 9.3461 8.77656 9.35752 8.7191 9.35123C8.66017 9.34173 8.60878 9.31318 8.56493 9.26558L7.77697 8.56327L6.54364 9.6253C6.5034 9.66438 6.45772 9.68722 6.4066 9.69382C6.35637 9.69976 6.30498 9.68834 6.25243 9.65956C5.38984 9.27 4.71037 9.05302 4.21401 9.00864ZM17.3524 17.1281C17.4095 17.1167 17.4952 17.1681 17.6094 17.2822C17.7122 17.385 17.7464 17.602 17.7122 17.9332C17.6665 18.2643 17.6322 18.5099 17.6094 18.6697C17.5637 18.8182 17.4723 18.9381 17.3353 19.0295C17.1868 19.1208 17.1069 19.1494 17.0955 19.1151L17.3524 17.1281ZM3.28901 17.8133C3.38037 17.6876 3.48885 17.6306 3.61447 17.642L3.99132 19.6119C3.87712 19.6576 3.75151 19.6062 3.61447 19.4577C3.53453 19.3892 3.47172 19.2864 3.42604 19.1494C3.35753 19.0009 3.30614 18.8239 3.27188 18.6184C3.18052 18.1958 3.18623 17.9275 3.28901 17.8133ZM9.6441 22.6096C9.61426 22.5846 9.59142 22.5503 9.57558 22.5068C9.56938 22.4775 9.56938 22.4433 9.57558 22.404C9.59793 22.3736 9.62648 22.345 9.66123 22.3184C9.69277 22.3039 9.72703 22.2982 9.76401 22.3012C10.4074 22.3575 11.1268 22.3575 11.9223 22.3012C11.9694 22.2982 12.0094 22.3096 12.0422 22.3355C12.0778 22.3618 12.1006 22.396 12.1108 22.4383C12.1172 22.4805 12.1058 22.5204 12.0765 22.5582C12.0632 22.5955 12.0346 22.6184 11.9909 22.6267C11.3573 22.8567 10.7121 22.9538 10.0552 22.9179C10.0257 22.917 9.99713 22.9055 9.96956 22.8836L9.6441 22.6096Z" fill="#FFCC99"/>
<path fill-rule="evenodd" clip-rule="evenodd" d="M18.7741 10.0187L18.7912 9.9502L17.7292 11.252L17.1125 10.6696L16.9926 14.1812C16.9755 14.812 16.9641 15.3316 16.9584 15.74L17.0269 15.6715C17.0325 15.6713 17.0382 15.6656 17.044 15.6544C17.2517 15.4637 17.4915 15.3266 17.7635 15.2433V15.2261C17.7873 15.2139 17.8102 15.2025 17.832 15.1919L18.5857 13.1363L18.3116 11.8687C18.2963 11.7796 18.3135 11.694 18.363 11.6118L18.9797 10.6696L18.7912 10.19C18.7738 10.1373 18.7681 10.0802 18.7741 10.0187ZM2.77503 11.5261L2.1241 11.0808L2.08984 12.8451L2.27827 13.2048C2.30115 13.2564 2.31257 13.3078 2.31253 13.359V14.1298L2.84355 15.74C2.86715 15.7418 2.88427 15.7418 2.89494 15.74C3.21986 15.8123 3.49965 15.9608 3.73429 16.1854H3.75142C3.78809 16.222 3.82235 16.2563 3.8542 16.2882C3.85228 16.124 3.84657 15.9642 3.83707 15.8085V15.7743C3.83814 15.7343 3.83243 15.6943 3.81994 15.6544C3.82185 15.6427 3.82185 15.6313 3.81994 15.6201C3.80789 15.4151 3.78505 15.221 3.75142 15.0377V15.0206L3.47734 13.0335C3.38465 12.2514 3.33897 11.7375 3.34031 11.4919V10.9951L2.77503 11.5261Z" fill="#3C1E00"/>
<path fill-rule="evenodd" clip-rule="evenodd" d="M12.5032 2.97916C12.4918 2.97916 11.721 3.24752 10.1907 3.78425C10.0423 3.179 9.69969 2.60802 9.16296 2.07129C7.82685 3.16759 6.8162 4.23533 6.13102 5.27453C5.82269 5.02329 5.4858 4.74922 5.12037 4.45231C4.75494 4.14397 4.38951 3.88132 4.02407 3.66434C4.05833 4.57792 4.11543 5.29166 4.19537 5.80555C4.26389 6.30802 4.29244 6.60493 4.28102 6.69629C3.56068 6.49047 2.62997 6.40482 1.48889 6.43934L1.69444 6.76481C1.72741 6.81793 1.74454 6.87503 1.74583 6.9361C1.74458 6.99704 1.72745 7.05414 1.69444 7.1074L1.45463 7.51851L1.57454 7.65555C1.6121 7.70123 1.63494 7.74691 1.64306 7.79258C1.66215 7.85249 1.66215 7.90959 1.64306 7.96388L1.4375 8.85462L1.79722 9.31712C1.83862 9.35977 1.86146 9.40545 1.86574 9.45416L2.10556 10.8074C2.11617 10.8361 2.12188 10.8589 2.12269 10.8759V11.0815L2.77361 11.5268L3.33889 10.9958V10.756C3.33844 10.7475 3.33844 10.7361 3.33889 10.7218C3.38653 10.2403 3.44363 9.86919 3.51019 9.60833L3.73287 8.6662C3.75424 8.60749 3.7885 8.5561 3.83565 8.51203C3.88351 8.48013 3.9349 8.463 3.98981 8.46064C4.52146 8.4312 5.298 8.64246 6.31944 9.09444L7.6213 7.98101C7.67362 7.94376 7.73072 7.92663 7.79259 7.92962C7.867 7.93274 7.92981 7.95558 7.98102 7.99814L8.78611 8.73471L10.3278 7.89536C10.3712 7.87377 10.4112 7.86235 10.4477 7.8611C10.4983 7.8595 10.5439 7.86521 10.5847 7.87823L12.6574 8.88888C13.757 8.60241 14.7563 8.44253 15.6551 8.40925H15.6722C16.4045 8.43874 16.827 8.66713 16.9398 9.09444C17.0541 9.4749 17.1169 9.88601 17.1282 10.3278L17.1111 10.6704L17.7278 11.2528L18.7898 9.95092L18.8241 9.81388C18.8292 9.80251 18.8292 9.79109 18.8241 9.77962C19.2891 8.14887 19.6545 6.70998 19.9204 5.46295H17.9505C16.2147 5.57715 15.1127 5.73703 14.6444 5.94258C14.7815 4.90339 14.7586 3.74428 14.5759 2.46527C13.6623 2.65941 12.9714 2.8307 12.5032 2.97916Z" fill="#663300"/>
<path fill-rule="evenodd" clip-rule="evenodd" d="M10.1908 3.78416C11.721 3.24743 12.4919 2.97907 12.5033 2.97907C12.9715 2.83061 13.6624 2.65931 14.576 2.46518C14.7587 3.74419 14.7815 4.90329 14.6445 5.94249C15.1127 5.73694 16.2147 5.57706 17.9505 5.46286H19.9204C19.9326 5.43998 19.9383 5.41714 19.9376 5.39434L20.1431 4.34944C19.5753 4.25643 18.8958 4.27927 18.1047 4.41795C17.0445 4.62654 16.2337 4.82639 15.6723 5.01749C15.6035 5.04038 15.535 5.04038 15.4667 5.01749C15.3992 4.99581 15.3421 4.95584 15.2954 4.89758C15.2593 4.83843 15.2422 4.76991 15.244 4.69203C15.274 3.59426 15.2283 2.49225 15.107 1.38601C13.4076 1.67958 11.9117 2.10211 10.619 2.6536C10.5458 2.69339 10.4659 2.6991 10.3792 2.67073C10.3047 2.64258 10.2476 2.5912 10.2079 2.51657C9.93122 1.99193 9.55437 1.50659 9.07737 1.06055C8.00267 1.86194 6.94634 2.85546 5.90839 4.0411C5.85232 4.11524 5.77809 4.15521 5.68571 4.16101C5.59734 4.16556 5.5174 4.13701 5.44589 4.07536C4.59039 3.30716 3.74533 2.78756 2.91071 2.51657L3.39034 5.29157C3.40755 5.3566 3.40184 5.41941 3.37321 5.47999C3.34515 5.54218 3.29947 5.58785 3.23617 5.61703C3.18353 5.65664 3.12072 5.67377 3.04774 5.66842C2.34061 5.61565 1.65543 5.60423 0.992188 5.63416L1.48895 6.43925C2.63003 6.40472 3.56074 6.49037 4.28108 6.6962C4.2925 6.60484 4.26395 6.30792 4.19543 5.80545C4.11549 5.29157 4.05839 4.57783 4.02413 3.66425C4.38956 3.88123 4.755 4.14388 5.12043 4.45221C5.48586 4.74913 5.82274 5.0232 6.13108 5.27444C6.81626 4.23524 7.82691 3.16749 9.16302 2.0712C9.69975 2.60792 10.0423 3.17891 10.1908 3.78416Z" fill="#874301"/>
<path fill-rule="evenodd" clip-rule="evenodd" d="M13.7039 25.419C13.6583 25.3973 13.6069 25.3973 13.5498 25.419C13.5498 25.419 13.0109 25.7985 12.8286 25.8473C12.8286 25.8473 12.4901 26.0014 12.1088 26.1385C11.7003 26.2412 11.3705 26.2845 11.1278 26.2957C10.6088 26.3612 10.2254 26.2978 9.99726 26.2957C9.67107 26.2926 9.22114 26.1531 8.91156 25.9959C8.63387 25.9021 8.58537 25.8457 8.39923 25.7576C8.30177 25.7115 8.21007 25.671 8.14366 25.6533C8.08554 25.6498 8.03415 25.667 7.9895 25.7047C7.94716 25.7409 7.92432 25.7866 7.92098 25.8417C7.91745 25.9 7.92098 25.9154 7.97237 25.9959C8.02375 26.0764 8.04576 26.0518 8.21736 26.1531C8.38895 26.2544 8.77393 26.4415 8.91156 26.452C8.91156 26.4549 9.64683 26.7068 9.99726 26.7068C10.2257 26.7068 10.6608 26.7595 11.1449 26.7068C11.1449 26.7068 11.8972 26.5917 11.9922 26.5736C12.0495 26.5627 12.2101 26.5241 12.2287 26.5182C12.4686 26.4555 12.6186 26.3612 12.9314 26.2412C13.4646 25.9843 13.5445 25.9189 13.7039 25.8473C13.7621 25.8252 13.8021 25.7338 13.8238 25.676C13.8457 25.6302 13.8457 25.5788 13.8238 25.5218C13.8018 25.4749 13.7618 25.4406 13.7039 25.419ZM12.4689 12.7337C12.4601 12.793 12.4697 12.8448 12.4978 12.889C12.5367 12.9376 12.5813 12.9678 12.6318 12.9794C12.9539 13.0351 13.3104 13.1332 13.7013 13.2738C14.0747 13.4185 14.3708 13.6117 14.5895 13.8533C14.6306 13.9003 14.6755 13.9247 14.7241 13.9266C14.7888 13.9292 14.841 13.9081 14.8805 13.8635C14.9272 13.8338 14.9516 13.7889 14.9538 13.7289C14.9559 13.6757 14.9349 13.6236 14.8907 13.5725C14.6365 13.2834 14.2903 13.0542 13.852 12.8849C13.8296 12.8769 13.8073 12.869 13.7851 12.8612C13.4285 12.7368 13.0987 12.6457 12.7958 12.588C12.7627 12.5817 12.7299 12.5758 12.6975 12.5703C12.6496 12.5619 12.6036 12.5717 12.5593 12.5998C12.5106 12.6386 12.4805 12.6833 12.4689 12.7337ZM5.99157 14.0466C6.04658 14.0402 6.091 14.015 6.12484 13.971C6.18366 13.8993 6.32624 13.7832 6.55256 13.6227C6.78902 13.4662 7.28452 13.3202 8.03908 13.1845C8.10055 13.1744 8.14467 13.1435 8.17144 13.0918C8.21029 13.0497 8.2247 12.9975 8.21469 12.9352C8.20523 12.8851 8.17433 12.8409 8.12199 12.8028C8.08049 12.7754 8.02857 12.7667 7.96624 12.7767C7.12349 12.9306 6.57216 13.1025 6.31225 13.2922L6.32936 13.2913C6.04789 13.4804 5.8723 13.6211 5.80258 13.7134C5.76724 13.7602 5.75282 13.8124 5.75933 13.8701C5.76566 13.9252 5.79086 13.9696 5.83493 14.0033C5.88163 14.0388 5.93385 14.0532 5.99157 14.0466ZM7.14159 18.55C7.23295 18.7442 7.35286 18.8412 7.50131 18.8412C7.64977 18.8412 7.77539 18.7442 7.87816 18.55C7.96952 18.3559 8.0152 18.1332 8.0152 17.882C8.0152 17.6193 7.96952 17.3909 7.87816 17.1968C7.77539 17.0027 7.64977 16.9056 7.50131 16.9056C7.35286 16.9056 7.23295 17.0027 7.14159 17.1968C7.03881 17.3909 6.98742 17.6193 6.98742 17.882C6.98742 18.1332 7.03881 18.3559 7.14159 18.55ZM14.0962 17.7963C14.0962 17.5337 14.0505 17.3053 13.9592 17.1112C13.8564 16.917 13.7308 16.82 13.5823 16.82C13.4339 16.82 13.314 16.917 13.2226 17.1112C13.1198 17.3053 13.0684 17.5337 13.0684 17.7963C13.0684 18.0476 13.1198 18.2703 13.2226 18.4644C13.314 18.6585 13.4339 18.7556 13.5823 18.7556C13.7308 18.7556 13.8564 18.6585 13.9592 18.4644C14.0505 18.2703 14.0962 18.0476 14.0962 17.7963Z" fill="black"/>
</svg>
