<svg width="1435" height="363" viewBox="0 0 1435 363" fill="none" xmlns="http://www.w3.org/2000/svg">
<g clip-path="url(#clip0_828_1865)">
<path d="M428.171 280.587L370.791 225.484C370.155 224.956 369.379 224.625 368.558 224.532C367.737 224.439 366.907 224.588 366.169 224.96C345.259 235.681 323.628 245.587 301.275 254.676C287.645 242.815 275.568 229.282 265.33 214.397C263.567 211.808 258.639 211.599 256.519 214.04C237.86 235.527 218.269 256.557 197.746 277.131L348.107 321.711C354.47 323.597 361.136 325.519 367.97 325.065C374.989 324.598 381.235 321.679 386.826 318.531C405.55 307.988 420.47 293.842 429.681 277.9" fill="#D0C4FF"/>
<path d="M432.815 282.657H305.094V362.512H432.815V282.657Z" fill="#D0C4FF"/>
<path d="M0.0742188 362.896L294.519 340.107C317.96 325.082 339.935 307.887 360.153 288.749C351.705 278.576 315.381 258.172 308.378 258.963C305.191 259.322 301.811 259.672 298.791 258.94C296.789 258.386 294.895 257.499 293.189 256.316C285.641 251.601 278.639 246.064 272.311 239.808C271.56 238.938 270.602 238.269 269.525 237.864C266.934 237.02 263.896 238.178 261.537 239.257C249.362 244.78 236.781 249.358 223.903 252.951C222.716 253.34 221.48 253.557 220.232 253.595C218.608 253.491 217.02 253.07 215.557 252.356C198.022 245.081 180.054 238.893 161.756 233.83C158.428 232.917 154.891 233.138 151.702 234.458L124.999 246.293C123.422 246.95 121.725 247.273 120.017 247.242C118.308 247.211 116.625 246.827 115.072 246.114C104.784 240.974 94.4963 235.834 84.2087 230.693C82.9822 229.987 81.6221 229.542 80.2146 229.389C78.3193 229.4 76.462 229.921 74.8375 230.897C66.8459 234.842 59.1008 239.268 51.6445 244.149C39.6186 251.938 24.1007 277.405 20.2539 291.2L0.0742188 362.896Z" fill="#D0C4FF"/>
<path d="M170.675 238.918L170.659 238.918C170.526 238.916 170.395 238.888 170.274 238.836C170.152 238.783 170.042 238.707 169.949 238.612C169.857 238.517 169.784 238.404 169.735 238.281C169.686 238.158 169.662 238.026 169.664 237.894C169.704 235.234 169.745 231.428 169.785 227.748C169.824 224.066 169.865 220.258 169.905 217.593C169.911 217.327 170.022 217.073 170.214 216.888C170.406 216.703 170.664 216.602 170.93 216.606C171.197 216.61 171.452 216.719 171.638 216.91C171.824 217.1 171.928 217.357 171.925 217.624C171.885 220.284 171.844 224.089 171.805 227.77C171.765 231.452 171.725 235.26 171.684 237.924C171.68 238.189 171.572 238.442 171.383 238.628C171.194 238.814 170.94 238.918 170.675 238.918V238.918Z" fill="#D0C4FF"/>
<path d="M167.881 217.868L167.341 218.803C167.046 219.314 166.891 219.893 166.891 220.483C166.891 221.073 167.046 221.653 167.341 222.164C167.636 222.674 168.061 223.099 168.572 223.394C169.084 223.689 169.664 223.844 170.254 223.844H171.334C171.925 223.844 172.505 223.689 173.016 223.394C173.527 223.099 173.952 222.674 174.247 222.164C174.542 221.653 174.698 221.073 174.698 220.483C174.698 219.893 174.542 219.314 174.247 218.803L173.707 217.868C173.412 217.357 172.987 216.933 172.476 216.638C171.964 216.343 171.384 216.188 170.794 216.188C170.204 216.188 169.624 216.343 169.112 216.638C168.601 216.933 168.177 217.357 167.881 217.868Z" fill="#D0C4FF"/>
<path d="M169.919 217.825L163.499 228.936C163.41 229.089 163.363 229.264 163.363 229.441C163.363 229.618 163.41 229.793 163.499 229.946C163.588 230.1 163.715 230.227 163.869 230.316C164.023 230.405 164.197 230.451 164.375 230.451H177.214C177.392 230.451 177.566 230.405 177.72 230.316C177.873 230.227 178.001 230.1 178.09 229.946C178.179 229.793 178.225 229.618 178.225 229.441C178.225 229.264 178.179 229.089 178.09 228.936L171.67 217.825C171.581 217.671 171.454 217.543 171.3 217.455C171.146 217.366 170.972 217.319 170.794 217.319C170.617 217.319 170.442 217.366 170.289 217.455C170.135 217.543 170.007 217.671 169.919 217.825V217.825Z" fill="#D0C4FF"/>
<path d="M115.949 268.266C123.677 269.499 132.231 266.663 136.741 260.272C141.251 253.881 140.657 244.037 134.65 239.024C133.039 237.681 130.958 236.434 130.692 234.354C130.659 233.169 130.933 231.995 131.487 230.946C133.619 225.783 135.039 220.175 134.382 214.629C133.725 209.082 130.715 203.611 125.761 201.026C118.716 197.351 109.45 200.616 104.646 206.942C99.8421 213.269 98.8539 221.804 99.9455 229.67C100.223 231.667 100.571 233.891 99.4096 235.539C98.4072 236.654 97.1357 237.495 95.7163 237.981C90.3556 240.543 86.0389 244.868 83.4895 250.231C81.3709 254.727 80.7279 260.411 83.6542 264.429C85.6269 267.138 88.859 268.618 92.0475 269.653C99.1111 271.938 106.601 272.594 113.955 271.571L115.949 268.266Z" fill="#BEE09B"/>
<g opacity="0.1">
<path opacity="0.1" d="M136.741 260.272C141.251 253.881 140.656 244.037 134.649 239.025C133.039 237.681 130.958 236.434 130.692 234.355C130.659 233.169 130.932 231.995 131.486 230.946C133.056 227.321 134.056 223.475 134.452 219.545C131.421 222.14 127.86 224.041 124.016 225.116C119.055 226.449 113.152 226.53 109.927 230.525C107.5 233.533 107.465 237.846 105.488 241.167C101.244 248.294 90.6583 247.858 83.092 251.132C81.3021 255.467 80.9198 260.675 83.654 264.429C85.6267 267.138 88.8588 268.618 92.0473 269.653C99.1108 271.938 106.601 272.594 113.954 271.571L115.949 268.266C123.677 269.499 132.231 266.663 136.741 260.272Z" fill="black"/>
</g>
<path d="M115.528 286.476C115.508 286.476 115.489 286.476 115.469 286.475C114.973 286.468 114.483 286.363 114.027 286.166C113.572 285.969 113.159 285.685 112.813 285.329C112.468 284.973 112.195 284.552 112.012 284.091C111.829 283.63 111.739 283.137 111.747 282.641C111.84 276.431 111.936 267.545 112.028 258.952C112.12 250.35 112.216 241.455 112.309 235.23C112.325 234.228 112.737 233.273 113.457 232.575C114.176 231.878 115.144 231.494 116.146 231.509C117.149 231.524 118.104 231.937 118.802 232.656C119.501 233.375 119.884 234.341 119.869 235.343C119.776 241.553 119.68 250.439 119.588 259.032C119.496 267.634 119.4 276.529 119.306 282.755C119.291 283.747 118.887 284.693 118.18 285.389C117.473 286.085 116.52 286.475 115.528 286.476V286.476Z" fill="#735552"/>
<path d="M115.524 266.81C114.647 266.811 113.796 266.505 113.12 265.946L101.198 256.115C100.425 255.477 99.937 254.559 99.8414 253.561C99.7459 252.564 100.051 251.57 100.689 250.797C101.327 250.024 102.246 249.537 103.244 249.441C104.242 249.346 105.238 249.65 106.011 250.288L117.932 260.119C118.533 260.614 118.966 261.283 119.172 262.033C119.378 262.783 119.347 263.579 119.084 264.311C118.82 265.043 118.337 265.676 117.7 266.124C117.063 266.571 116.303 266.811 115.524 266.81V266.81Z" fill="#735552"/>
<path d="M344.269 268.119C351.997 269.352 360.552 266.516 365.061 260.125C369.571 253.734 368.977 243.89 362.97 238.878C361.36 237.534 359.279 236.287 359.013 234.208C358.979 233.022 359.253 231.848 359.807 230.799C361.939 225.637 363.359 220.028 362.702 214.482C362.045 208.936 359.036 203.465 354.081 200.88C347.036 197.205 337.77 200.47 332.966 206.796C328.162 213.122 327.174 221.658 328.266 229.524C328.543 231.52 328.891 233.745 327.73 235.392C326.727 236.508 325.456 237.349 324.037 237.835C318.676 240.396 314.359 244.721 311.81 250.085C309.691 254.58 309.048 260.265 311.975 264.283C313.947 266.991 317.179 268.472 320.368 269.507C327.431 271.792 334.921 272.447 342.275 271.424L344.269 268.119Z" fill="#C8DA3E"/>
<g opacity="0.1">
<path opacity="0.1" d="M365.061 260.118C369.571 253.727 368.977 243.883 362.97 238.87C361.359 237.527 359.278 236.28 359.012 234.2C358.979 233.015 359.253 231.841 359.807 230.792C361.377 227.167 362.377 223.321 362.772 219.391C359.741 221.985 356.18 223.887 352.337 224.962C347.376 226.295 341.473 226.375 338.247 230.371C335.82 233.378 335.785 237.692 333.808 241.012C329.565 248.14 318.979 247.704 311.412 250.978C309.622 255.313 309.24 260.521 311.974 264.275C313.947 266.984 317.179 268.464 320.368 269.499C327.431 271.784 334.921 272.44 342.275 271.417L344.269 268.112C351.997 269.345 360.552 266.509 365.061 260.118Z" fill="black"/>
</g>
<path d="M343.848 286.329C343.828 286.329 343.809 286.329 343.79 286.328C343.293 286.321 342.803 286.216 342.348 286.019C341.892 285.823 341.479 285.538 341.134 285.182C340.788 284.826 340.516 284.406 340.333 283.945C340.15 283.483 340.059 282.991 340.067 282.495C340.161 276.285 340.256 267.399 340.348 258.806C340.44 250.204 340.536 241.309 340.63 235.083C340.645 234.091 341.049 233.145 341.756 232.449C342.463 231.753 343.416 231.363 344.408 231.362C344.428 231.362 344.447 231.362 344.467 231.363C344.963 231.37 345.453 231.475 345.909 231.672C346.364 231.869 346.777 232.153 347.123 232.509C347.468 232.865 347.741 233.286 347.924 233.747C348.107 234.208 348.197 234.701 348.19 235.197C348.096 241.407 348 250.293 347.908 258.886C347.816 267.488 347.721 276.383 347.627 282.608C347.612 283.6 347.207 284.546 346.5 285.242C345.793 285.938 344.84 286.329 343.848 286.329Z" fill="#735552"/>
<path d="M343.844 266.664C342.967 266.664 342.116 266.359 341.44 265.8L329.519 255.968C329.136 255.653 328.819 255.265 328.586 254.827C328.353 254.388 328.209 253.909 328.162 253.415C328.114 252.921 328.165 252.423 328.31 251.949C328.456 251.474 328.693 251.033 329.009 250.651C329.647 249.878 330.567 249.39 331.565 249.295C332.059 249.247 332.557 249.298 333.032 249.443C333.507 249.588 333.948 249.826 334.331 250.141L346.253 259.973C346.853 260.468 347.286 261.136 347.492 261.887C347.698 262.637 347.667 263.432 347.404 264.165C347.14 264.897 346.657 265.53 346.02 265.977C345.383 266.424 344.623 266.664 343.844 266.664V266.664Z" fill="#735552"/>
<path d="M52.3559 309.842C61.8863 303.223 86.1739 285.112 96.6624 279.772C100.207 277.967 103.941 276.2 108.01 275.929C113.165 275.587 118.077 277.675 123.105 278.746C140.288 282.404 157.679 274.079 172.01 264.857C186.34 255.635 200.605 244.825 218.078 242.512C232.672 240.58 247.462 244.976 260.504 251.136C273.545 257.295 285.46 265.238 298.582 271.258C302.042 272.846 305.752 274.33 309.639 274.2C313.38 274.075 316.647 271.451 320.391 271.451C350.437 271.451 359.7 300.212 372.966 316.072C386.233 331.932 397.813 349.189 414.209 362.513H0.0742188" fill="#499E84"/>
<g opacity="0.1">
<path opacity="0.1" d="M86.5401 362.897H191.781C187.813 352.885 184.355 341.918 180.581 331.552C180.32 330.836 180.063 330.094 179.809 329.326C178.794 328.198 177.574 327.272 176.213 326.599C173.791 325.465 171.269 325.576 168.825 324.655C156.772 320.115 148.622 291.785 136.368 291.646C131.56 291.592 127.009 296.086 122.227 297.101C115.778 298.469 109.051 293.502 102.89 297.64C99.5151 299.906 96.6458 304.738 93.2434 306.823C89.4281 309.161 85.3256 307.834 81.3689 308.747C73.5636 310.548 66.4578 321.848 63.6618 336.906C62.6471 342.37 62.3126 349.285 64.331 353.413C64.7462 354.307 65.3445 355.105 66.0871 355.754C66.8298 356.403 67.7004 356.889 68.6427 357.181C71.9242 358.353 75.2781 358.369 78.5801 359.267C81.3867 360.109 84.0648 361.33 86.5401 362.897V362.897Z" fill="black"/>
</g>
<path d="M43.5231 343.342C34.3281 345.522 24.6608 351.174 19.3203 362.512L152.541 362.644L139.035 354.622C130.925 349.805 123.726 342.003 118.204 331.944C113.896 327.591 109.458 323.761 104.518 322.746C94.0758 320.602 84.6106 331.425 74.6039 336.499C64.6429 341.551 53.8877 340.885 43.5231 343.342Z" fill="#C8DA3E"/>
<path d="M1091.18 363H1433.95C1433.95 363 1418.26 313.708 1394.71 291.303C1392.87 289.547 1330.91 265.302 1328.51 264.72C1326.92 264.28 1325.42 263.575 1324.06 262.635C1318.07 258.889 1312.5 254.49 1307.47 249.519C1306.88 248.828 1306.12 248.297 1305.26 247.975C1303.2 247.304 1300.79 248.224 1298.91 249.081C1289.59 253.344 1279.55 272.68 1269.01 275.645C1268.07 275.955 1267.09 276.127 1266.1 276.157C1264.81 276.074 1263.54 275.74 1262.38 275.173C1248.45 269.392 1234.17 264.476 1219.64 260.453C1216.99 259.728 1214.18 259.904 1211.65 260.952L1190.43 270.355C1189.18 270.877 1187.83 271.134 1186.47 271.11C1185.12 271.085 1183.78 270.78 1182.54 270.213C1174.37 266.129 1166.2 262.045 1158.02 257.961C1157.05 257.4 1155.97 257.047 1154.85 256.924C1153.34 256.934 1151.87 257.348 1150.58 258.123C1144.23 261.258 1138.07 264.774 1132.15 268.652C1122.59 274.84 1110.27 295.074 1107.21 306.035L1091.18 363Z" fill="#D0C4FF"/>
<path d="M1226.72 264.393L1226.71 264.393C1226.61 264.392 1226.5 264.369 1226.41 264.328C1226.31 264.286 1226.22 264.225 1226.15 264.15C1226.08 264.074 1226.02 263.985 1225.98 263.887C1225.94 263.789 1225.92 263.685 1225.92 263.579C1225.95 261.466 1225.99 258.442 1226.02 255.518C1226.05 252.593 1226.08 249.567 1226.11 247.45C1226.11 247.344 1226.14 247.239 1226.18 247.142C1226.22 247.044 1226.28 246.955 1226.35 246.881C1226.43 246.807 1226.52 246.748 1226.62 246.709C1226.72 246.669 1226.82 246.65 1226.93 246.651C1227.03 246.653 1227.14 246.676 1227.24 246.718C1227.33 246.76 1227.42 246.822 1227.5 246.898C1227.57 246.975 1227.63 247.065 1227.66 247.164C1227.7 247.263 1227.72 247.368 1227.72 247.474C1227.69 249.588 1227.65 252.611 1227.62 255.535C1227.59 258.461 1227.56 261.486 1227.53 263.603C1227.52 263.814 1227.44 264.015 1227.29 264.163C1227.14 264.31 1226.94 264.393 1226.72 264.393V264.393Z" fill="#D0C4FF"/>
<path d="M1224.29 248.039C1224.03 248.483 1223.9 248.986 1223.9 249.498C1223.9 250.01 1224.03 250.513 1224.29 250.957C1224.55 251.4 1224.91 251.769 1225.36 252.025C1225.8 252.281 1226.31 252.416 1226.82 252.416V252.416C1227.33 252.416 1227.83 252.281 1228.28 252.025C1228.72 251.769 1229.09 251.4 1229.35 250.957C1229.6 250.513 1229.74 250.01 1229.74 249.498C1229.74 248.986 1229.6 248.483 1229.35 248.039V248.039C1229.09 247.595 1228.72 247.227 1228.28 246.971C1227.83 246.715 1227.33 246.58 1226.82 246.58C1226.31 246.58 1225.8 246.715 1225.36 246.971C1224.91 247.227 1224.55 247.595 1224.29 248.039V248.039Z" fill="#D0C4FF"/>
<path d="M1226.12 247.633L1221.02 256.461C1220.95 256.583 1220.91 256.721 1220.91 256.862C1220.91 257.003 1220.95 257.142 1221.02 257.264C1221.09 257.386 1221.19 257.487 1221.32 257.558C1221.44 257.628 1221.58 257.665 1221.72 257.665H1231.92C1232.06 257.665 1232.2 257.628 1232.32 257.558C1232.44 257.487 1232.54 257.386 1232.61 257.264C1232.69 257.142 1232.72 257.003 1232.72 256.862C1232.72 256.721 1232.69 256.583 1232.61 256.461L1227.51 247.633C1227.44 247.511 1227.34 247.409 1227.22 247.339C1227.1 247.269 1226.96 247.231 1226.82 247.231C1226.68 247.231 1226.54 247.269 1226.42 247.339C1226.29 247.409 1226.19 247.511 1226.12 247.633V247.633Z" fill="#D0C4FF"/>
<path d="M1183.24 287.71C1189.38 288.69 1196.18 286.436 1199.76 281.359C1203.35 276.281 1202.87 268.46 1198.1 264.477C1196.82 263.41 1195.17 262.419 1194.96 260.767C1194.93 259.825 1195.15 258.892 1195.59 258.059C1197.44 254.002 1198.23 249.541 1197.89 245.094C1197.37 240.688 1194.97 236.34 1191.04 234.287C1185.44 231.367 1178.08 233.961 1174.26 238.987C1170.45 244.014 1169.66 250.795 1170.53 257.045C1170.75 258.631 1171.02 260.399 1170.1 261.708C1169.31 262.594 1168.29 263.262 1167.17 263.648C1162.91 265.683 1159.48 269.12 1157.45 273.381C1155.77 276.953 1155.26 281.469 1157.58 284.662C1159.15 286.814 1161.72 287.99 1164.25 288.812C1169.86 290.628 1175.82 291.149 1181.66 290.336L1183.24 287.71Z" fill="#BEE09B"/>
<g opacity="0.1">
<path opacity="0.1" d="M1199.76 281.359C1203.35 276.281 1202.87 268.46 1198.1 264.477C1196.82 263.41 1195.17 262.419 1194.96 260.767C1194.93 259.825 1195.15 258.892 1195.59 258.059C1196.83 255.178 1197.63 252.123 1197.94 249C1195.54 251.062 1192.71 252.572 1189.65 253.426C1185.71 254.486 1181.02 254.55 1178.46 257.724C1176.53 260.113 1176.5 263.541 1174.93 266.179C1171.56 271.842 1163.15 271.496 1157.14 274.097C1155.71 277.541 1155.41 281.679 1157.58 284.662C1159.15 286.814 1161.72 287.99 1164.25 288.812C1169.86 290.628 1175.82 291.149 1181.66 290.336L1183.24 287.71C1189.38 288.69 1196.18 286.436 1199.76 281.359Z" fill="black"/>
</g>
<path d="M1182.91 302.179L1182.86 302.178C1182.47 302.172 1182.08 302.089 1181.71 301.932C1181.35 301.776 1181.03 301.55 1180.75 301.267C1180.48 300.984 1180.26 300.65 1180.11 300.284C1179.97 299.918 1179.9 299.526 1179.9 299.132C1179.98 294.198 1180.05 287.138 1180.13 280.31C1180.2 273.476 1180.28 266.409 1180.35 261.462C1180.36 260.667 1180.69 259.909 1181.26 259.356C1181.83 258.802 1182.6 258.498 1183.4 258.51C1184.19 258.522 1184.95 258.849 1185.51 259.42C1186.06 259.99 1186.37 260.757 1186.36 261.553C1186.28 266.487 1186.21 273.547 1186.13 280.374C1186.06 287.209 1185.98 294.276 1185.91 299.222C1185.9 300.01 1185.58 300.762 1185.01 301.315C1184.45 301.868 1183.7 302.178 1182.91 302.179V302.179Z" fill="#735552"/>
<path d="M1182.9 286.554C1182.21 286.554 1181.53 286.312 1180.99 285.867L1171.52 278.056C1170.91 277.549 1170.52 276.82 1170.45 276.028C1170.37 275.237 1170.61 274.447 1171.12 273.834C1171.63 273.221 1172.36 272.833 1173.15 272.757C1173.94 272.681 1174.73 272.921 1175.35 273.427L1184.82 281.238C1185.29 281.631 1185.64 282.162 1185.8 282.758C1185.97 283.354 1185.94 283.987 1185.73 284.568C1185.52 285.15 1185.14 285.653 1184.63 286.008C1184.13 286.364 1183.52 286.554 1182.9 286.554Z" fill="#735552"/>
<path d="M1364.65 287.594C1370.79 288.574 1377.59 286.32 1381.17 281.242C1384.75 276.165 1384.28 268.343 1379.51 264.361C1378.23 263.293 1376.57 262.303 1376.36 260.65C1376.34 259.709 1376.55 258.776 1376.99 257.942C1378.85 253.886 1379.64 249.425 1379.29 244.978C1378.77 240.571 1376.38 236.224 1372.44 234.171C1366.85 231.251 1359.49 233.845 1355.67 238.871C1351.85 243.897 1351.07 250.679 1351.93 256.929C1352.15 258.515 1352.43 260.282 1351.51 261.592C1350.71 262.478 1349.7 263.146 1348.57 263.532C1344.31 265.567 1340.88 269.004 1338.86 273.265C1337.18 276.837 1336.66 281.353 1338.99 284.546C1340.56 286.698 1343.13 287.874 1345.66 288.696C1351.27 290.512 1357.22 291.032 1363.06 290.22L1364.65 287.594Z" fill="#C8DA3E"/>
<g opacity="0.1">
<path opacity="0.1" d="M1381.17 281.236C1384.75 276.159 1384.28 268.337 1379.51 264.355C1378.23 263.287 1376.57 262.297 1376.36 260.645C1376.34 259.703 1376.55 258.77 1376.99 257.937C1378.24 255.056 1379.04 252.001 1379.35 248.878C1376.94 250.939 1374.11 252.45 1371.06 253.304C1367.12 254.364 1362.43 254.427 1359.86 257.602C1357.94 259.991 1357.91 263.419 1356.34 266.057C1352.97 271.72 1344.55 271.374 1338.54 273.974C1337.12 277.419 1336.82 281.557 1338.99 284.54C1340.56 286.692 1343.13 287.868 1345.66 288.69C1351.27 290.506 1357.22 291.027 1363.06 290.214L1364.65 287.588C1370.79 288.568 1377.59 286.314 1381.17 281.236Z" fill="black"/>
</g>
<path d="M1364.31 302.062L1364.27 302.062C1363.87 302.056 1363.48 301.972 1363.12 301.816C1362.76 301.66 1362.43 301.434 1362.16 301.151C1361.88 300.868 1361.67 300.534 1361.52 300.167C1361.37 299.801 1361.3 299.41 1361.31 299.016C1361.38 294.082 1361.46 287.021 1361.53 280.194C1361.61 273.359 1361.68 266.292 1361.76 261.346C1361.77 260.558 1362.09 259.806 1362.65 259.253C1363.21 258.7 1363.97 258.39 1364.76 258.39L1364.8 258.39C1365.2 258.396 1365.59 258.48 1365.95 258.636C1366.31 258.792 1366.64 259.018 1366.92 259.301C1367.19 259.584 1367.41 259.918 1367.55 260.284C1367.7 260.651 1367.77 261.042 1367.76 261.436C1367.69 266.37 1367.61 273.43 1367.54 280.258C1367.47 287.092 1367.39 294.16 1367.32 299.106C1367.3 299.894 1366.98 300.645 1366.42 301.199C1365.86 301.752 1365.1 302.062 1364.31 302.062Z" fill="#735552"/>
<path d="M1364.31 286.438C1363.61 286.438 1362.94 286.196 1362.4 285.751L1352.93 277.94C1352.31 277.434 1351.93 276.704 1351.85 275.911C1351.77 275.119 1352.02 274.329 1352.52 273.715C1353.03 273.101 1353.76 272.714 1354.55 272.638C1355.35 272.562 1356.14 272.804 1356.75 273.31L1366.22 281.122C1366.7 281.515 1367.04 282.046 1367.21 282.642C1367.37 283.238 1367.35 283.871 1367.14 284.452C1366.93 285.034 1366.54 285.537 1366.04 285.892C1365.53 286.248 1364.93 286.438 1364.31 286.438Z" fill="#735552"/>
<path d="M1132.71 320.743C1140.29 315.484 1159.58 301.094 1167.92 296.851C1170.68 295.234 1173.75 294.195 1176.93 293.798C1181.03 293.526 1184.93 295.185 1188.93 296.036C1202.58 298.943 1216.4 292.329 1227.78 285.001C1239.17 277.674 1250.5 269.086 1264.39 267.247C1275.98 265.712 1287.73 269.205 1298.09 274.099C1308.45 278.993 1317.92 285.304 1328.35 290.087C1331.06 291.535 1334.06 292.335 1337.13 292.424C1340.1 292.325 1342.7 290.241 1345.67 290.241C1369.55 290.241 1376.91 313.092 1387.45 325.693C1397.99 338.294 1407.19 352.005 1420.22 362.591H1091.18" fill="#499E84"/>
<g opacity="0.1">
<path opacity="0.1" d="M1159.88 362.897H1243.49C1240.34 354.942 1237.59 346.228 1234.59 337.993C1234.39 337.424 1234.18 336.834 1233.98 336.224C1233.17 335.327 1232.21 334.592 1231.12 334.057C1229.2 333.157 1227.2 333.244 1225.25 332.513C1215.68 328.906 1209.2 306.397 1199.47 306.287C1195.65 306.243 1192.03 309.814 1188.23 310.62C1183.11 311.707 1177.76 307.761 1172.87 311.049C1170.19 312.849 1167.91 316.688 1165.2 318.345C1162.17 320.202 1158.91 319.148 1155.77 319.874C1149.57 321.305 1143.92 330.283 1141.7 342.247C1140.89 346.588 1140.63 352.082 1142.23 355.362C1142.56 356.072 1143.04 356.706 1143.63 357.222C1144.22 357.737 1144.91 358.124 1145.66 358.356C1148.26 359.286 1150.93 359.299 1153.55 360.013C1155.78 360.682 1157.91 361.652 1159.88 362.897V362.897Z" fill="black"/>
</g>
<path d="M1125.7 347.36C1121.54 348.252 1117.64 350.09 1114.3 352.732C1110.97 355.373 1108.29 358.747 1106.47 362.591L1212.32 362.695L1201.59 356.322C1195.14 352.495 1189.42 346.296 1185.03 338.304C1181.61 334.845 1178.09 331.802 1174.16 330.996C1165.86 329.292 1158.34 337.891 1150.39 341.923C1142.48 345.936 1133.93 345.408 1125.7 347.36Z" fill="#C8DA3E"/>
<path d="M726.282 102.045C727.389 102.051 728.452 101.619 729.241 100.844C730.03 100.069 730.481 99.0138 730.493 97.9083V97.8658C730.493 92.2181 729.07 86.6614 726.354 81.7085C723.638 76.7556 719.717 72.566 714.954 69.5266C710.19 66.4871 704.737 64.6956 699.098 64.3174C693.459 63.9392 687.815 64.9866 682.688 67.3628C680.788 59.2555 676.366 51.9585 670.056 46.52C663.746 41.0814 655.874 37.7813 647.569 37.0936C639.265 36.4059 630.956 38.366 623.837 42.6923C616.717 47.0187 611.153 53.4887 607.944 61.1729C603.346 57.586 597.894 55.2555 592.123 54.4101C586.352 53.5647 580.46 54.2334 575.025 56.3507C569.591 58.468 564.801 61.961 561.126 66.4869C557.45 71.0127 555.016 76.4158 554.062 82.1658C550.625 79.9699 546.728 78.5954 542.673 78.149C538.619 77.7027 534.515 78.1964 530.683 79.592C526.85 80.9876 523.391 83.2473 520.574 86.1957C517.758 89.1441 515.659 92.7017 514.442 96.5922C514.247 97.2222 514.203 97.8892 514.313 98.5393C514.424 99.1895 514.685 99.8046 515.077 100.335C515.469 100.866 515.98 101.297 516.569 101.594C517.159 101.891 517.809 102.045 518.469 102.045H726.282Z" fill="#C9E7FF"/>
<path d="M400.858 43.0851C401.503 43.0887 402.124 42.8371 402.584 42.3851C403.044 41.9332 403.306 41.3177 403.314 40.673V40.6483C403.314 37.3549 402.484 34.1147 400.9 31.2265C399.316 28.3383 397.03 25.8952 394.252 24.1228C391.475 22.3504 388.295 21.3058 385.006 21.0852C381.718 20.8647 378.427 21.4755 375.437 22.8611C374.329 18.1335 371.75 13.8784 368.071 10.7071C364.392 7.53575 359.801 5.61134 354.959 5.21032C350.116 4.80929 345.271 5.95229 341.119 8.47512C336.968 10.9979 333.723 14.7708 331.852 19.2516C329.171 17.16 325.992 15.8011 322.626 15.3081C319.261 14.8151 315.825 15.2051 312.656 16.4397C309.487 17.6744 306.694 19.7112 304.551 22.3504C302.408 24.9895 300.988 28.1402 300.432 31.4932C298.428 30.2127 296.155 29.4112 293.791 29.1509C291.426 28.8906 289.034 29.1786 286.799 29.9923C284.564 30.8061 282.547 32.1239 280.904 33.8432C279.262 35.5624 278.038 37.637 277.328 39.9056C277.215 40.273 277.189 40.6619 277.253 41.041C277.318 41.4201 277.47 41.7788 277.699 42.0882C277.927 42.3976 278.225 42.649 278.569 42.8222C278.913 42.9953 279.292 43.0854 279.677 43.0851H400.858Z" fill="#C9E7FF"/>
<path d="M1105.11 43.0851C1105.76 43.0887 1106.38 42.8371 1106.84 42.3851C1107.3 41.9332 1107.56 41.3177 1107.57 40.673V40.6483C1107.57 37.3549 1106.74 34.1147 1105.15 31.2265C1103.57 28.3383 1101.28 25.8953 1098.51 24.1229C1095.73 22.3505 1092.55 21.3058 1089.26 21.0853C1085.97 20.8647 1082.68 21.4755 1079.69 22.8611C1078.58 18.1335 1076 13.8784 1072.33 10.7071C1068.65 7.53574 1064.06 5.61134 1059.21 5.21032C1054.37 4.80929 1049.53 5.95229 1045.37 8.47512C1041.22 10.9979 1037.98 14.7708 1036.11 19.2516C1033.42 17.16 1030.25 15.8011 1026.88 15.3081C1023.51 14.8151 1020.08 15.2051 1016.91 16.4397C1013.74 17.6744 1010.95 19.7112 1008.8 22.3504C1006.66 24.9895 1005.24 28.1402 1004.69 31.4931C1002.68 30.2127 1000.41 29.4112 998.045 29.1509C995.68 28.8906 993.288 29.1785 991.053 29.9923C988.818 30.8061 986.801 32.1238 985.158 33.8431C983.516 35.5624 982.292 37.637 981.582 39.9056C981.469 40.273 981.443 40.6619 981.507 41.041C981.572 41.4201 981.724 41.7788 981.953 42.0882C982.181 42.3976 982.479 42.649 982.823 42.8222C983.166 42.9953 983.546 43.0854 983.931 43.0851H1105.11Z" fill="#C9E7FF"/>
<path d="M1215.78 221.334L1159.7 147.968C1159.18 147.292 1158.42 146.842 1157.58 146.712C1156.74 146.582 1155.88 146.783 1155.18 147.272C1134.74 161.548 1113.57 174.754 1091.76 186.835C1078 170.383 1066.21 152.386 1056.62 133.208C1056.23 132.422 1055.64 131.753 1054.91 131.27C1054.18 130.787 1053.33 130.507 1052.46 130.459C1051.58 130.41 1050.71 130.595 1049.93 130.995C1049.14 131.394 1048.48 131.994 1048.01 132.732C1029.77 161.34 1010.63 189.339 990.566 216.731L1137.53 276.086C1143.75 278.597 1150.26 281.156 1156.94 280.551C1163.8 279.929 1169.91 276.043 1175.37 271.851C1193.75 257.713 1208.18 239.083 1217.26 217.756" fill="#D0C4FF"/>
<path d="M515.229 203.067C529.59 184.669 545.983 167.949 564.098 153.226C565.691 151.932 567.525 150.58 569.569 150.773C571.1 151.075 572.512 151.812 573.634 152.895L605.04 177.973C606.465 179.11 608.22 179.753 610.043 179.806C611.865 179.858 613.655 179.317 615.142 178.263L642.316 159.018C643.786 157.975 645.502 157.333 647.296 157.154C649.09 156.974 650.899 157.265 652.547 157.996C671.614 166.476 689.929 176.555 707.295 188.123C708.658 189.231 710.308 189.929 712.052 190.137C713.359 190.066 714.634 189.708 715.788 189.09C729.292 183.015 742.127 175.552 754.084 166.821C756.485 165.067 759.576 163.184 762.214 164.557C763.422 165.342 764.4 166.432 765.048 167.717C771.117 177.421 778.243 186.424 786.294 194.562C787.874 196.368 789.816 197.822 791.994 198.83C795.068 200.02 798.507 199.451 801.751 198.866C808.877 197.581 845.841 230.761 854.437 247.304C832.863 280.23 807.917 310.823 780.003 338.588C778.213 340.54 776.147 342.221 773.871 343.576C770.598 345.324 766.788 345.693 763.09 346C667.465 353.936 571.405 342.466 476.133 331.107C475.301 331.02 474.495 330.767 473.764 330.361C470.852 328.687 471.635 325.846 472.456 323.487C486.789 282.249 501.727 241.227 517.267 200.422" fill="#D0C4FF"/>
<path d="M340.068 180.684L340.043 180.684C339.826 180.681 339.612 180.635 339.413 180.549C339.215 180.463 339.035 180.339 338.884 180.184C338.733 180.029 338.614 179.845 338.534 179.644C338.454 179.443 338.415 179.228 338.418 179.011C338.484 174.667 338.55 168.452 338.615 162.442C338.679 156.429 338.746 150.211 338.812 145.86C338.819 145.423 339 145.007 339.314 144.704C339.628 144.4 340.049 144.233 340.486 144.239C340.923 144.246 341.34 144.426 341.644 144.739C341.949 145.052 342.117 145.473 342.111 145.909C342.045 150.253 341.979 156.468 341.914 162.478C341.85 168.491 341.783 174.71 341.717 179.061C341.711 179.494 341.534 179.906 341.226 180.21C340.917 180.514 340.501 180.684 340.068 180.684Z" fill="#A58FFF"/>
<path d="M337.353 143.117L332.783 151.026C332.487 151.537 332.332 152.117 332.332 152.707C332.332 153.297 332.487 153.876 332.783 154.387C333.078 154.898 333.502 155.322 334.014 155.617C334.525 155.912 335.105 156.068 335.695 156.068H344.835C345.426 156.068 346.006 155.912 346.517 155.617C347.028 155.322 347.453 154.898 347.748 154.387C348.043 153.876 348.198 153.297 348.198 152.707C348.198 152.117 348.043 151.537 347.748 151.026L343.178 143.117C342.883 142.606 342.458 142.182 341.947 141.887C341.436 141.592 340.856 141.437 340.265 141.437C339.675 141.437 339.095 141.592 338.584 141.887C338.072 142.182 337.648 142.606 337.353 143.117V143.117Z" fill="#A58FFF"/>
<path d="M338.834 146.236L328.35 164.381C328.205 164.632 328.129 164.917 328.129 165.206C328.129 165.496 328.205 165.781 328.35 166.031C328.495 166.282 328.704 166.491 328.955 166.635C329.206 166.78 329.49 166.856 329.78 166.856H350.748C351.038 166.856 351.323 166.78 351.574 166.635C351.825 166.491 352.033 166.282 352.178 166.031C352.323 165.781 352.399 165.496 352.399 165.206C352.399 164.917 352.323 164.632 352.178 164.381L341.694 146.236C341.549 145.985 341.341 145.777 341.09 145.632C340.839 145.487 340.554 145.411 340.264 145.411C339.974 145.411 339.69 145.487 339.438 145.632C339.187 145.777 338.979 145.985 338.834 146.236V146.236Z" fill="#A58FFF"/>
<path d="M300.735 224.718C301.737 226.065 299.461 228.132 298.215 227.007C301.785 214.308 306.039 201.515 313.896 190.915C321.753 180.315 333.829 172.097 347.028 171.862C350.992 171.791 355.127 172.403 358.8 170.912C362.006 169.61 364.384 166.887 366.584 164.219C373.035 156.397 395.602 127.915 406.686 113.904C407.336 113.083 408.186 112.443 409.156 112.047C410.125 111.65 411.181 111.51 412.22 111.64C413.259 111.77 414.248 112.166 415.089 112.789C415.931 113.412 416.598 114.242 417.025 115.198C425.503 134.153 444.79 177.022 452.144 191.297L463.878 236.654L347.739 326.884L298.215 227.007" fill="#A58FFF"/>
<path d="M355.154 234.954L355.129 234.954C354.912 234.951 354.698 234.905 354.499 234.819C354.301 234.733 354.12 234.609 353.97 234.454C353.819 234.298 353.7 234.115 353.62 233.913C353.54 233.712 353.501 233.497 353.504 233.281C353.57 228.937 353.636 222.722 353.701 216.712C353.765 210.699 353.832 204.48 353.898 200.129C353.905 199.693 354.086 199.277 354.4 198.973C354.713 198.669 355.135 198.502 355.572 198.509C356.009 198.516 356.425 198.695 356.73 199.008C357.035 199.321 357.203 199.742 357.197 200.179C357.131 204.523 357.065 210.738 357 216.747C356.936 222.761 356.869 228.979 356.803 233.33C356.797 233.763 356.62 234.176 356.312 234.48C356.003 234.784 355.587 234.954 355.154 234.954V234.954Z" fill="#D0C4FF"/>
<path d="M352.438 197.386L347.869 205.296C347.573 205.807 347.418 206.386 347.418 206.976C347.418 207.566 347.573 208.146 347.869 208.657C348.164 209.168 348.588 209.592 349.1 209.887C349.611 210.182 350.191 210.337 350.781 210.337H359.921C360.512 210.337 361.091 210.182 361.603 209.887C362.114 209.592 362.539 209.168 362.834 208.657C363.129 208.146 363.284 207.566 363.284 206.976C363.284 206.386 363.129 205.807 362.834 205.296L358.264 197.386C357.969 196.876 357.544 196.451 357.033 196.156C356.522 195.861 355.942 195.706 355.351 195.706C354.761 195.706 354.181 195.861 353.67 196.156C353.158 196.451 352.734 196.876 352.438 197.386V197.386Z" fill="#D0C4FF"/>
<path d="M353.924 200.507L343.44 218.652C343.295 218.903 343.219 219.187 343.219 219.477C343.219 219.767 343.295 220.051 343.44 220.302C343.585 220.553 343.793 220.761 344.044 220.906C344.295 221.051 344.58 221.127 344.87 221.127H365.838C366.128 221.127 366.413 221.051 366.664 220.906C366.915 220.761 367.123 220.553 367.268 220.302C367.413 220.051 367.489 219.767 367.489 219.477C367.489 219.187 367.413 218.903 367.268 218.652L356.784 200.507C356.639 200.256 356.431 200.048 356.18 199.903C355.929 199.758 355.644 199.682 355.354 199.682C355.064 199.682 354.779 199.758 354.528 199.903C354.277 200.048 354.069 200.256 353.924 200.507V200.507Z" fill="#D0C4FF"/>
<path d="M391.869 248.723L391.844 248.723C391.627 248.719 391.413 248.674 391.214 248.588C391.015 248.502 390.835 248.378 390.684 248.222C390.534 248.067 390.415 247.883 390.335 247.682C390.255 247.481 390.216 247.266 390.219 247.05C390.284 242.705 390.351 236.491 390.416 230.481C390.48 224.468 390.547 218.249 390.613 213.898C390.619 213.461 390.799 213.044 391.113 212.74C391.427 212.435 391.849 212.268 392.287 212.275C392.724 212.281 393.141 212.461 393.446 212.775C393.751 213.089 393.918 213.511 393.912 213.948C393.846 218.292 393.779 224.506 393.715 230.516C393.651 236.53 393.584 242.748 393.518 247.099C393.512 247.532 393.335 247.945 393.026 248.249C392.718 248.552 392.302 248.723 391.869 248.723V248.723Z" fill="#D0C4FF"/>
<path d="M389.149 211.156L384.579 219.065C384.284 219.576 384.129 220.156 384.129 220.746C384.129 221.336 384.284 221.915 384.579 222.426C384.875 222.937 385.299 223.361 385.811 223.656C386.322 223.951 386.902 224.107 387.492 224.107H396.632C397.222 224.107 397.802 223.951 398.314 223.656C398.825 223.361 399.25 222.937 399.545 222.426C399.84 221.915 399.995 221.336 399.995 220.746C399.995 220.156 399.84 219.576 399.545 219.065L394.975 211.156C394.68 210.645 394.255 210.221 393.744 209.926C393.232 209.631 392.653 209.476 392.062 209.476C391.472 209.476 390.892 209.631 390.38 209.926C389.869 210.221 389.445 210.645 389.149 211.156Z" fill="#D0C4FF"/>
<path d="M390.635 214.275L380.151 232.42C380.006 232.671 379.93 232.956 379.93 233.245C379.93 233.535 380.006 233.82 380.151 234.07C380.296 234.321 380.504 234.53 380.755 234.674C381.006 234.819 381.291 234.896 381.581 234.896H402.549C402.839 234.896 403.123 234.819 403.375 234.674C403.626 234.53 403.834 234.321 403.979 234.07C404.124 233.82 404.2 233.535 404.2 233.245C404.2 232.956 404.124 232.671 403.979 232.42L393.495 214.275C393.35 214.024 393.142 213.816 392.891 213.671C392.64 213.526 392.355 213.45 392.065 213.45C391.775 213.45 391.49 213.526 391.239 213.671C390.988 213.816 390.78 214.024 390.635 214.275Z" fill="#D0C4FF"/>
<path d="M735.884 185.652C748.504 187.665 762.474 183.034 769.839 172.597C777.204 162.16 776.233 146.084 766.423 137.899C763.794 135.704 760.395 133.668 759.961 130.272C759.907 128.336 760.353 126.419 761.258 124.706C764.74 116.275 767.059 107.116 765.986 98.059C764.913 89.0018 759.998 80.0666 751.907 75.8458C740.402 69.8441 725.271 75.1757 717.426 85.5068C709.581 95.838 707.967 109.777 709.75 122.623C710.202 125.883 710.771 129.516 708.875 132.207C707.469 134.201 705.049 135.15 702.843 136.195C694.089 140.378 687.039 147.441 682.876 156.2C679.416 163.542 678.366 172.825 683.145 179.386C686.366 183.809 691.645 186.227 696.852 187.917C708.387 191.649 720.618 192.719 732.627 191.049L735.884 185.652Z" fill="#BEE09B"/>
<g opacity="0.1">
<path opacity="0.1" d="M769.839 172.598C777.203 162.16 776.233 146.085 766.423 137.899C763.793 135.705 760.395 133.669 759.961 130.273C759.906 128.337 760.353 126.42 761.258 124.707C763.821 118.787 765.455 112.506 766.1 106.088C761.151 110.325 755.335 113.43 749.059 115.186C740.957 117.363 731.317 117.494 726.05 124.02C722.086 128.93 722.029 135.975 718.801 141.397C711.871 153.037 694.583 152.325 682.227 157.671C679.304 164.75 678.679 173.256 683.145 179.387C686.366 183.81 691.644 186.228 696.851 187.918C708.387 191.649 720.618 192.72 732.627 191.049L735.884 185.652C748.504 187.666 762.474 183.035 769.839 172.598Z" fill="black"/>
</g>
<path d="M735.194 213.071L735.135 213.071C734.629 213.063 734.13 212.956 733.665 212.755C733.201 212.555 732.78 212.265 732.428 211.902C732.075 211.539 731.798 211.111 731.611 210.641C731.425 210.171 731.333 209.668 731.34 209.163C731.493 199.017 731.649 184.503 731.8 170.467C731.95 156.422 732.106 141.899 732.26 131.737C732.275 130.716 732.696 129.742 733.429 129.031C734.162 128.32 735.149 127.929 736.17 127.945C737.192 127.96 738.166 128.381 738.878 129.113C739.589 129.846 739.981 130.832 739.965 131.853C739.812 141.999 739.656 156.512 739.506 170.549C739.355 184.594 739.199 199.116 739.046 209.279C739.031 210.29 738.618 211.254 737.897 211.963C737.177 212.673 736.206 213.071 735.194 213.071Z" fill="#735552"/>
<path d="M735.191 180.956C734.296 180.957 733.429 180.645 732.74 180.075L713.272 164.02C712.483 163.37 711.986 162.434 711.889 161.417C711.791 160.401 712.102 159.387 712.753 158.6C713.403 157.812 714.34 157.315 715.357 157.218C716.374 157.12 717.389 157.431 718.177 158.081L737.645 174.136C738.257 174.641 738.698 175.322 738.908 176.087C739.118 176.852 739.087 177.662 738.818 178.409C738.55 179.155 738.057 179.8 737.408 180.256C736.758 180.712 735.984 180.956 735.191 180.956V180.956Z" fill="#735552"/>
<path d="M1103.95 181.825C1116.57 183.838 1130.54 179.207 1137.91 168.77C1145.27 158.333 1144.3 142.257 1134.49 134.072C1131.86 131.877 1128.47 129.841 1128.03 126.445C1127.98 124.509 1128.42 122.592 1129.33 120.879C1132.81 112.448 1135.13 103.289 1134.06 94.2319C1132.98 85.1746 1128.07 76.2395 1119.98 72.0187C1108.47 66.0169 1093.34 71.3485 1085.5 81.6797C1077.65 92.0109 1076.04 105.95 1077.82 118.796C1078.27 122.056 1078.84 125.689 1076.94 128.38C1075.54 130.374 1073.12 131.323 1070.91 132.368C1062.16 136.551 1055.11 143.614 1050.95 152.373C1047.49 159.715 1046.44 168.997 1051.22 175.559C1054.44 179.982 1059.72 182.4 1064.92 184.09C1076.46 187.821 1088.69 188.892 1100.7 187.221L1103.95 181.825Z" fill="#C8DA3E"/>
<g opacity="0.1">
<path opacity="0.1" d="M1137.91 168.756C1145.27 158.319 1144.3 142.243 1134.49 134.058C1131.86 131.863 1128.47 129.827 1128.03 126.431C1127.98 124.495 1128.42 122.578 1129.33 120.865C1131.89 114.945 1133.53 108.665 1134.17 102.246C1129.22 106.483 1123.41 109.588 1117.13 111.344C1109.03 113.522 1099.39 113.653 1094.12 120.178C1090.16 125.089 1090.1 132.133 1086.87 137.555C1079.94 149.196 1062.65 148.484 1050.3 153.829C1047.37 160.909 1046.75 169.414 1051.21 175.545C1054.44 179.968 1059.71 182.386 1064.92 184.076C1076.46 187.808 1088.69 188.878 1100.7 187.208L1103.95 181.811C1116.57 183.824 1130.54 179.193 1137.91 168.756Z" fill="black"/>
</g>
<path d="M1103.26 209.243L1103.21 209.243C1102.7 209.235 1102.2 209.128 1101.74 208.927C1101.27 208.727 1100.85 208.437 1100.5 208.074C1100.15 207.711 1099.87 207.282 1099.68 206.812C1099.5 206.342 1099.4 205.84 1099.41 205.335C1099.56 195.189 1099.72 180.675 1099.87 166.639C1100.02 152.594 1100.18 138.071 1100.33 127.909C1100.35 126.888 1100.77 125.914 1101.5 125.203C1102.23 124.492 1103.22 124.101 1104.24 124.117C1105.26 124.132 1106.24 124.552 1106.95 125.285C1107.66 126.018 1108.05 127.004 1108.04 128.025C1107.88 138.17 1107.73 152.684 1107.58 166.721C1107.43 180.766 1107.27 195.288 1107.12 205.451C1107.1 206.461 1106.69 207.426 1105.97 208.135C1105.25 208.845 1104.28 209.243 1103.26 209.243V209.243Z" fill="#735552"/>
<path d="M1103.26 177.128C1102.37 177.128 1101.5 176.817 1100.81 176.247L1081.34 160.192C1080.95 159.87 1080.63 159.474 1080.39 159.028C1080.15 158.581 1080.01 158.092 1079.96 157.589C1079.91 157.086 1079.96 156.578 1080.11 156.094C1080.26 155.611 1080.5 155.161 1080.82 154.771C1081.14 154.381 1081.54 154.059 1081.99 153.822C1082.43 153.585 1082.92 153.438 1083.43 153.39C1083.93 153.341 1084.44 153.393 1084.92 153.541C1085.41 153.689 1085.86 153.931 1086.25 154.253L1105.72 170.308C1106.33 170.813 1106.77 171.494 1106.98 172.259C1107.19 173.023 1107.16 173.834 1106.89 174.58C1106.62 175.327 1106.13 175.972 1105.48 176.428C1104.83 176.884 1104.05 177.128 1103.26 177.128H1103.26Z" fill="#735552"/>
<path d="M653.162 262.301C668.169 250.637 706.414 218.722 722.93 209.311C728.511 206.13 734.39 203.017 740.798 202.54C748.915 201.936 756.651 205.616 764.568 207.503C791.625 213.95 819.01 199.28 841.576 183.029C864.141 166.778 886.604 147.729 914.119 143.653C937.099 140.248 960.389 147.995 980.925 158.849C1001.46 169.703 1020.22 183.699 1040.89 194.309C1046.33 197.106 1052.17 199.722 1058.3 199.493C1064.19 199.272 1069.33 194.649 1075.23 194.649C1122.54 194.649 1137.12 245.331 1158.01 273.279C1178.9 301.226 1197.14 331.637 1222.96 355.115H570.836L648.985 246.754L653.162 262.301Z" fill="#499E84"/>
<path d="M167.409 355.854C168.426 329.862 165.444 297.306 168.366 271.459C169.662 259.991 171.193 248.367 175.775 237.774C189.368 206.354 231.958 191.563 262.121 207.787C278.026 216.342 290.834 232.035 308.753 234.303C326.715 236.577 344.428 224.35 362.229 227.652C378.092 230.594 389 244.782 398.34 257.927L447.997 267.302L336.907 355.651L167.409 355.854Z" fill="#499E84"/>
<path d="M391.871 147.713L403.966 137.134C408.091 142.348 411.646 147.988 414.571 153.957C415.07 150.902 415.922 147.915 417.111 145.057C417.339 144.509 417.648 143.904 418.221 143.749C418.7 143.682 419.187 143.789 419.593 144.051C424.502 146.481 429.241 149.24 433.778 152.309C427.381 138.29 421.011 124.104 417.027 115.198C416.6 114.242 415.933 113.412 415.092 112.789C414.25 112.166 413.262 111.77 412.222 111.64C411.183 111.51 410.127 111.65 409.158 112.047C408.189 112.443 407.338 113.083 406.688 113.904C402.118 119.681 395.595 127.919 389.055 136.154C389.993 140.007 390.932 143.86 391.871 147.713Z" fill="#D0C4FF"/>
<path d="M1165.8 238.783L1165.78 238.783C1165.56 238.779 1165.35 238.734 1165.15 238.648C1164.95 238.562 1164.77 238.438 1164.62 238.282C1164.47 238.127 1164.35 237.943 1164.27 237.742C1164.19 237.541 1164.15 237.326 1164.15 237.109C1164.22 232.765 1164.28 226.551 1164.35 220.541C1164.41 214.528 1164.48 208.309 1164.55 203.958C1164.55 203.741 1164.59 203.527 1164.68 203.328C1164.77 203.129 1164.89 202.949 1165.05 202.798C1165.2 202.647 1165.38 202.528 1165.59 202.448C1165.79 202.367 1166 202.328 1166.22 202.331C1166.44 202.335 1166.65 202.38 1166.85 202.467C1167.05 202.553 1167.23 202.677 1167.38 202.833C1167.53 202.989 1167.65 203.172 1167.73 203.374C1167.81 203.576 1167.85 203.791 1167.85 204.008C1167.78 208.352 1167.71 214.566 1167.65 220.576C1167.58 226.59 1167.52 232.808 1167.45 237.159C1167.45 237.592 1167.27 238.005 1166.96 238.309C1166.65 238.612 1166.24 238.783 1165.8 238.783Z" fill="#A58FFF"/>
<path d="M1163.09 201.216L1158.52 209.125C1158.22 209.636 1158.07 210.215 1158.07 210.805C1158.07 211.395 1158.22 211.975 1158.52 212.486C1158.81 212.997 1159.24 213.421 1159.75 213.716C1160.26 214.011 1160.84 214.166 1161.43 214.166H1170.57C1171.16 214.166 1171.74 214.011 1172.25 213.716C1172.76 213.421 1173.19 212.997 1173.48 212.486C1173.78 211.975 1173.93 211.395 1173.93 210.805C1173.93 210.215 1173.78 209.636 1173.48 209.125L1168.91 201.216C1168.62 200.705 1168.19 200.28 1167.68 199.985C1167.17 199.69 1166.59 199.535 1166 199.535C1165.41 199.535 1164.83 199.69 1164.32 199.985C1163.81 200.28 1163.38 200.705 1163.09 201.216V201.216Z" fill="#A58FFF"/>
<path d="M1164.57 204.336L1154.08 222.481C1153.94 222.732 1153.86 223.016 1153.86 223.306C1153.86 223.596 1153.94 223.88 1154.08 224.131C1154.23 224.382 1154.44 224.59 1154.69 224.735C1154.94 224.88 1155.22 224.956 1155.51 224.956H1176.48C1176.77 224.956 1177.06 224.88 1177.31 224.735C1177.56 224.59 1177.77 224.382 1177.91 224.131C1178.06 223.88 1178.13 223.596 1178.13 223.306C1178.13 223.016 1178.06 222.732 1177.91 222.481L1167.43 204.336C1167.28 204.085 1167.08 203.877 1166.82 203.732C1166.57 203.587 1166.29 203.511 1166 203.511C1165.71 203.511 1165.42 203.587 1165.17 203.732C1164.92 203.877 1164.71 204.085 1164.57 204.336V204.336Z" fill="#A58FFF"/>
<path d="M1151.93 253.964C1152.24 249.186 1153.93 244.6 1156.78 240.754C1159.64 236.908 1163.54 233.966 1168.03 232.28C1171.09 231.185 1174.34 230.631 1177.28 229.227C1192.47 221.949 1211.74 186.928 1222.48 165.34C1223.32 163.643 1224.63 162.218 1226.25 161.231C1227.87 160.243 1229.73 159.732 1231.63 159.757C1233.52 159.782 1235.37 160.342 1236.96 161.372C1238.56 162.402 1239.82 163.86 1240.62 165.579C1252.61 191.553 1270.76 255.853 1267.59 362.575H1131.58L1151.93 253.964" fill="#A58FFF"/>
<path d="M1240.62 164.751C1239.82 163.032 1238.55 161.574 1236.96 160.544C1235.37 159.513 1233.52 158.954 1231.63 158.929C1229.73 158.904 1227.87 159.415 1226.25 160.402C1224.63 161.39 1223.32 162.815 1222.48 164.512C1217.52 174.479 1210.75 187.309 1203.39 198.951C1205.11 197.916 1206.83 196.882 1208.55 195.847C1209.76 198.953 1210.98 202.059 1212.19 205.166C1216.46 202.198 1220.74 199.23 1225.01 196.263C1226.64 200.86 1228.45 205.387 1230.45 209.845C1233.26 203.352 1236.07 196.858 1238.89 190.365C1243.51 194.144 1248.34 197.651 1253.36 200.868C1250.13 188.494 1245.87 176.413 1240.62 164.751V164.751Z" fill="#D0C4FF"/>
<g opacity="0.1">
<path opacity="0.1" d="M1155.13 269.23C1150.89 267.011 1146.37 265.344 1141.71 264.271C1132.66 262.209 1123.25 262.409 1114.12 260.735C1069.12 252.478 1038.69 200.957 992.939 200.705C974.989 200.606 957.995 208.779 940.139 210.624C916.062 213.113 890.948 204.079 867.943 211.605C855.343 215.727 844.63 224.514 831.926 228.306C817.681 232.557 802.364 230.145 787.591 231.805C758.449 235.08 731.919 255.63 721.479 283.015C717.691 292.952 716.442 305.527 723.978 313.035C728.176 317.217 734.236 318.872 740.076 319.888C752.328 322.017 764.851 322.048 777.179 323.681C806.123 327.517 833.134 340.034 861.428 347.237C875.576 350.644 889.9 353.274 904.335 355.115H1149.59C1156.15 350.193 1162.47 344.927 1169.3 340.371C1173.25 337.731 1177.47 335.294 1182.14 334.413C1187.4 333.421 1192.81 334.475 1198.16 334.65C1199.87 334.702 1201.58 334.655 1203.29 334.508C1186.98 315.201 1173.2 293.59 1158.01 273.279C1157.04 271.976 1156.08 270.627 1155.13 269.23Z" fill="black"/>
</g>
<g opacity="0.1">
<path opacity="0.1" d="M336.904 355.651L407.42 299.571C408.192 292.894 406.92 286.141 403.772 280.201C400.365 274.433 395.473 269.683 389.606 266.445C384.916 263.706 379.598 261.672 374.176 262.003C361.953 262.749 353.405 274.752 341.685 278.301C325.859 283.093 309.909 271.516 293.436 270.067C277.79 268.691 263.038 276.493 248.411 282.214C233.785 287.935 216.087 291.361 203.242 282.328C197.395 278.216 192.941 271.731 186.058 269.798C180.679 268.287 174.751 270.007 170.267 273.338C169.469 273.933 168.707 274.573 167.983 275.257C165.724 300.442 168.374 331.118 167.406 355.854L336.904 355.651Z" fill="black"/>
</g>
<path d="M327.359 362.491L368.212 294.492C383.219 289.296 393.626 268.594 401.829 255.003C411.939 238.252 420.131 220.354 431.066 204.128C442.002 187.903 456.242 173.069 474.486 165.975C492.73 158.882 515.468 161.056 529.206 174.992C539.912 185.853 545.57 203.363 560.29 207.374C576.401 211.764 591.373 196.654 608 195.094C619.532 194.011 630.825 199.715 639.325 207.578C647.824 215.44 654.077 225.36 660.716 234.843C679.492 261.647 701.961 285.667 727.459 306.192L751.238 362.491L327.359 362.491Z" fill="#9ACC67"/>
<path d="M506.57 206.824C517.359 209.231 524.727 219.338 534.93 223.589C543.354 227.098 553.354 226.459 561.027 231.394C569.106 236.59 573.02 247.025 581.671 251.2C596.363 258.292 614.312 243.221 629.567 249.009C634.928 251.044 639.015 255.376 643.505 258.941C650.035 264.117 657.624 267.795 665.735 269.714C672.096 271.214 678.94 271.569 685.04 269.225C685.806 268.925 686.554 268.585 687.283 268.205C677.752 257.639 668.879 246.498 660.717 234.843C654.077 225.36 647.824 215.44 639.325 207.578C630.826 199.715 619.532 194.012 608.001 195.094C591.374 196.654 576.402 211.764 560.29 207.374C545.571 203.363 539.913 185.853 529.206 174.992C515.468 161.056 492.731 158.882 474.487 165.975C456.243 173.069 442.002 187.903 431.067 204.128C423.436 215.45 417.14 227.586 410.598 239.579C419.489 229.198 430.045 218.724 443.521 218.359C448.318 218.229 453.069 219.446 457.867 219.383C474.883 219.157 489.962 203.118 506.57 206.824Z" fill="#C8DA3E"/>
<path d="M1194.52 340.726C1194.5 340.726 1194.48 340.726 1194.45 340.726C1193.87 340.717 1193.29 340.593 1192.75 340.36C1192.21 340.127 1191.72 339.791 1191.31 339.37C1190.9 338.949 1190.58 338.452 1190.37 337.906C1190.15 337.361 1190.04 336.778 1190.05 336.192C1190.23 324.42 1190.41 307.58 1190.58 291.295C1190.76 275 1190.94 258.151 1191.12 246.36C1191.14 245.176 1191.63 244.048 1192.48 243.224C1193.33 242.4 1194.47 241.948 1195.66 241.965C1196.84 241.983 1197.97 242.47 1198.79 243.319C1199.62 244.169 1200.07 245.311 1200.06 246.494C1199.88 258.266 1199.7 275.106 1199.52 291.391C1199.35 307.686 1199.17 324.536 1198.99 336.326C1198.97 337.499 1198.49 338.618 1197.66 339.441C1196.82 340.264 1195.7 340.726 1194.52 340.726Z" fill="#735552"/>
<path d="M1189.29 235.246L1172.65 264.042C1172.07 265.053 1171.76 266.2 1171.76 267.368C1171.76 268.536 1172.07 269.683 1172.65 270.694C1173.23 271.706 1174.07 272.545 1175.09 273.129C1176.1 273.713 1177.25 274.021 1178.42 274.021H1211.69C1212.86 274.021 1214.01 273.713 1215.02 273.129C1216.03 272.545 1216.87 271.706 1217.46 270.694C1218.04 269.683 1218.35 268.536 1218.35 267.368C1218.35 266.2 1218.04 265.053 1217.46 264.042L1200.82 235.246C1200.23 234.235 1199.39 233.395 1198.38 232.811C1197.37 232.227 1196.22 231.92 1195.05 231.92C1193.88 231.92 1192.74 232.227 1191.72 232.811C1190.71 233.395 1189.87 234.235 1189.29 235.246V235.246Z" fill="#499E84"/>
<path d="M1191.18 247.381L1162.77 296.55C1162.38 297.23 1162.17 298.001 1162.17 298.786C1162.17 299.57 1162.38 300.342 1162.77 301.021C1163.16 301.701 1163.73 302.266 1164.41 302.658C1165.09 303.05 1165.86 303.257 1166.65 303.257H1223.46C1224.25 303.257 1225.02 303.05 1225.7 302.658C1226.38 302.266 1226.95 301.701 1227.34 301.021C1227.73 300.342 1227.94 299.57 1227.94 298.786C1227.94 298.001 1227.73 297.23 1227.34 296.55L1198.93 247.381C1198.54 246.701 1197.97 246.137 1197.29 245.745C1196.61 245.352 1195.84 245.146 1195.06 245.146C1194.27 245.146 1193.5 245.352 1192.82 245.745C1192.14 246.137 1191.57 246.701 1191.18 247.381V247.381Z" fill="#499E84"/>
<path d="M1028.77 296.014C1028.77 273.794 982.039 239.646 982.039 239.646C982.039 239.646 935.305 273.794 935.305 296.014C935.305 318.234 956.228 336.248 982.039 336.248C1007.85 336.248 1028.77 318.234 1028.77 296.014Z" fill="#F57C20"/>
<path d="M986.973 322.376L1007.99 318.176" stroke="black" stroke-width="9" stroke-linecap="round" stroke-linejoin="round"/>
<path d="M1002.63 304.225C1002.63 292.862 982.042 275.4 982.042 275.4C982.042 275.4 961.453 292.862 961.453 304.225C961.453 309.681 963.622 314.914 967.484 318.773C971.345 322.631 976.582 324.799 982.042 324.799C987.503 324.799 992.74 322.631 996.601 318.773C1000.46 314.914 1002.63 309.681 1002.63 304.225Z" fill="white" stroke="#FFFF1C" stroke-width="20" stroke-linecap="round" stroke-linejoin="round"/>
<path d="M1032.66 313.518H937.367C929.937 313.518 923.914 319.536 923.914 326.961V328.952C923.914 336.376 929.937 342.395 937.367 342.395H1032.66C1040.09 342.395 1046.12 336.376 1046.12 328.952V326.961C1046.12 319.536 1040.09 313.518 1032.66 313.518Z" fill="#735552"/>
<path d="M886.521 318.597C885.847 318.596 885.184 318.419 884.6 318.082C884.015 317.745 883.53 317.26 883.191 316.677C882.853 316.094 882.674 315.432 882.672 314.757C882.67 314.083 882.845 313.42 883.18 312.835L911.125 263.997C911.633 263.11 912.472 262.461 913.458 262.193C914.444 261.925 915.496 262.059 916.383 262.565C917.27 263.072 917.92 263.911 918.188 264.896C918.457 265.881 918.323 266.933 917.815 267.819L889.87 316.657C889.533 317.247 889.045 317.737 888.457 318.078C887.869 318.419 887.201 318.598 886.521 318.597Z" fill="#735552"/>
<path d="M934.756 251.254L916.818 241.005C911.98 238.241 905.816 239.919 903.05 244.753L890.431 266.806C887.665 271.64 889.345 277.799 894.182 280.563L912.121 290.812C916.958 293.576 923.122 291.898 925.888 287.064L938.507 265.011C941.273 260.177 939.594 254.018 934.756 251.254Z" fill="#F5F5F5"/>
<path d="M919.857 242.74L912.361 238.458C911.796 238.135 911.173 237.927 910.528 237.844C909.883 237.762 909.227 237.808 908.6 237.979C907.972 238.15 907.384 238.442 906.87 238.84C906.355 239.238 905.924 239.734 905.601 240.298L887.884 271.261C887.232 272.401 887.059 273.753 887.405 275.02C887.75 276.286 888.585 277.364 889.725 278.016L916.581 293.36C916.829 293.5 917.09 293.619 917.358 293.714C914.6 284.721 913.619 275.277 914.471 265.909C914.935 257.936 916.756 250.101 919.857 242.74V242.74Z" fill="#D4D4D4"/>
<path d="M1078.29 318.597C1077.61 318.598 1076.94 318.419 1076.35 318.078C1075.77 317.737 1075.28 317.247 1074.94 316.657L1047 267.819C1046.75 267.38 1046.58 266.896 1046.52 266.395C1046.46 265.893 1046.49 265.384 1046.62 264.896C1046.76 264.408 1046.98 263.951 1047.29 263.551C1047.6 263.151 1047.99 262.816 1048.43 262.565C1048.87 262.314 1049.35 262.152 1049.85 262.088C1050.36 262.025 1050.87 262.06 1051.35 262.193C1051.84 262.326 1052.3 262.554 1052.7 262.863C1053.1 263.173 1053.44 263.558 1053.69 263.997L1081.63 312.835C1081.97 313.42 1082.14 314.083 1082.14 314.757C1082.14 315.432 1081.96 316.093 1081.62 316.677C1081.28 317.26 1080.8 317.745 1080.21 318.081C1079.63 318.418 1078.97 318.596 1078.29 318.597V318.597Z" fill="#735552"/>
<path d="M1052.69 290.812L1070.63 280.562C1075.47 277.798 1077.15 271.639 1074.38 266.805L1061.76 244.752C1059 239.918 1052.83 238.24 1048 241.004L1030.06 251.253C1025.22 254.017 1023.54 260.177 1026.31 265.011L1038.93 287.064C1041.69 291.898 1047.86 293.576 1052.69 290.812Z" fill="#F5F5F5"/>
<path d="M1044.96 242.74L1052.45 238.458C1053.02 238.135 1053.64 237.927 1054.29 237.844C1054.93 237.762 1055.59 237.808 1056.21 237.979C1056.84 238.15 1057.43 238.442 1057.94 238.84C1058.46 239.238 1058.89 239.733 1059.21 240.298L1076.93 271.261C1077.25 271.825 1077.46 272.448 1077.54 273.093C1077.63 273.738 1077.58 274.392 1077.41 275.02C1077.24 275.647 1076.94 276.234 1076.55 276.748C1076.15 277.262 1075.65 277.693 1075.09 278.016L1048.23 293.36C1047.98 293.504 1047.96 292.089 1048.2 291.211C1050.36 282.962 1051.09 274.403 1050.34 265.909C1049.88 257.936 1048.06 250.101 1044.96 242.74V242.74Z" fill="#D4D4D4"/>
<path opacity="0.1" d="M1214.32 274.021H1217.56C1218.14 274.021 1218.7 273.87 1219.2 273.584C1219.69 273.297 1220.11 272.884 1220.39 272.388C1220.68 271.891 1220.83 271.328 1220.83 270.755C1220.83 270.181 1220.68 269.618 1220.39 269.122L1211.94 254.485L1169.31 271.222C1169.42 272 1169.81 272.711 1170.41 273.226C1171 273.74 1171.76 274.022 1172.55 274.021H1175.79L1162.77 296.55C1162.38 297.23 1162.17 298.001 1162.17 298.786C1162.17 299.571 1162.38 300.342 1162.77 301.022C1163.16 301.701 1163.73 302.266 1164.41 302.658C1165.09 303.051 1165.86 303.257 1166.65 303.257H1223.46C1224.25 303.257 1225.02 303.051 1225.7 302.658C1226.38 302.266 1226.95 301.701 1227.34 301.022C1227.73 300.342 1227.94 299.571 1227.94 298.786C1227.94 298.001 1227.73 297.23 1227.34 296.55L1214.32 274.021Z" fill="black"/>
<path d="M295.626 275.044C308.247 277.058 322.217 272.426 329.581 261.989C336.946 251.552 335.975 235.477 326.166 227.291C323.536 225.097 320.137 223.06 319.703 219.665C319.649 217.729 320.095 215.811 321 214.099C324.482 205.668 326.802 196.509 325.729 187.452C324.656 178.394 319.741 169.459 311.65 165.238C300.145 159.237 285.013 164.568 277.168 174.899C269.323 185.231 267.709 199.17 269.492 212.015C269.944 215.276 270.513 218.908 268.617 221.599C267.211 223.593 264.791 224.543 262.585 225.588C253.831 229.771 246.781 236.833 242.618 245.592C239.158 252.934 238.108 262.217 242.887 268.779C246.109 273.202 251.387 275.62 256.594 277.31C268.129 281.041 280.361 282.112 292.369 280.441L295.626 275.044Z" fill="#C8DA3E"/>
<g opacity="0.1">
<path opacity="0.1" d="M329.581 261.861C336.946 251.424 335.975 235.349 326.165 227.163C323.535 224.969 320.137 222.932 319.703 219.537C319.648 217.601 320.095 215.683 321 213.971C323.563 208.05 325.197 201.77 325.842 195.352C320.893 199.589 315.077 202.694 308.801 204.449C300.699 206.627 291.059 206.758 285.792 213.283C281.828 218.194 281.772 225.239 278.543 230.661C271.613 242.301 254.325 241.589 241.969 246.935C239.046 254.014 238.422 262.52 242.887 268.651C246.108 273.074 251.387 275.492 256.594 277.181C268.129 280.913 280.36 281.984 292.369 280.313L295.626 274.916C308.246 276.93 322.216 272.298 329.581 261.861Z" fill="black"/>
</g>
<path d="M294.933 302.463L294.873 302.462C294.367 302.455 293.868 302.348 293.403 302.147C292.939 301.947 292.518 301.657 292.166 301.294C291.814 300.931 291.536 300.502 291.35 300.032C291.163 299.562 291.071 299.06 291.079 298.554C291.232 288.411 291.387 273.9 291.538 259.866C291.689 245.819 291.844 231.293 291.998 221.128C292.013 220.117 292.426 219.153 293.146 218.444C293.867 217.734 294.838 217.336 295.85 217.336L295.909 217.336C296.931 217.352 297.904 217.772 298.616 218.505C299.328 219.238 299.719 220.223 299.703 221.244C299.55 231.392 299.395 245.909 299.244 259.949C299.093 273.99 298.937 288.51 298.784 298.67C298.769 299.681 298.356 300.645 297.636 301.355C296.915 302.065 295.944 302.462 294.933 302.463V302.463Z" fill="#735552"/>
<path d="M294.929 270.348C294.035 270.349 293.168 270.038 292.479 269.468L273.01 253.413C272.62 253.091 272.297 252.696 272.06 252.249C271.822 251.803 271.675 251.314 271.627 250.81C271.579 250.307 271.63 249.799 271.778 249.316C271.926 248.832 272.169 248.383 272.491 247.993C272.813 247.603 273.208 247.28 273.655 247.043C274.102 246.805 274.592 246.659 275.095 246.61C275.599 246.562 276.107 246.614 276.591 246.762C277.075 246.91 277.525 247.152 277.915 247.473L297.384 263.528C297.996 264.033 298.437 264.714 298.647 265.479C298.857 266.244 298.826 267.054 298.557 267.801C298.288 268.547 297.796 269.192 297.147 269.648C296.497 270.104 295.723 270.349 294.929 270.348Z" fill="#735552"/>
<path d="M859.396 249.218C872.016 251.232 885.986 246.6 893.351 236.163C900.715 225.726 899.745 209.651 889.935 201.465C887.305 199.271 883.907 197.234 883.473 193.838C883.418 191.903 883.865 189.985 884.77 188.273C888.251 179.842 890.571 170.683 889.498 161.625C888.425 152.568 883.51 143.633 875.419 139.412C863.914 133.41 848.783 138.742 840.937 149.073C833.092 159.404 831.478 173.343 833.261 186.189C833.714 189.45 834.283 193.082 832.386 195.773C830.981 197.767 828.56 198.716 826.355 199.761C817.6 203.944 810.551 211.007 806.388 219.766C802.928 227.108 801.878 236.391 806.657 242.953C809.878 247.376 815.156 249.793 820.363 251.483C831.899 255.215 844.13 256.286 856.139 254.615L859.396 249.218Z" fill="#C8DA3E"/>
<g opacity="0.1">
<path opacity="0.1" d="M893.35 236.163C900.715 225.726 899.744 209.65 889.935 201.465C887.305 199.271 883.906 197.234 883.472 193.838C883.418 191.902 883.865 189.985 884.769 188.272C887.333 182.352 888.966 176.072 889.612 169.653C884.663 173.891 878.847 176.996 872.57 178.751C864.469 180.929 854.829 181.06 849.562 187.585C845.598 192.496 845.541 199.54 842.313 204.963C835.382 216.603 818.095 215.891 805.739 221.237C802.815 228.316 802.191 236.822 806.656 242.952C809.878 247.376 815.156 249.793 820.363 251.483C831.898 255.215 844.13 256.285 856.139 254.615L859.395 249.218C872.016 251.232 885.986 246.6 893.35 236.163Z" fill="black"/>
</g>
<path d="M858.702 287.639L858.643 287.638C858.137 287.63 857.637 287.523 857.173 287.323C856.708 287.122 856.288 286.832 855.936 286.47C855.583 286.107 855.306 285.678 855.119 285.208C854.933 284.738 854.84 284.236 854.848 283.73C855.001 273.588 855.157 256.279 855.307 239.54C855.458 222.789 855.614 205.469 855.767 195.303C855.775 194.798 855.882 194.298 856.083 193.834C856.284 193.37 856.574 192.95 856.937 192.598C857.3 192.246 857.729 191.968 858.199 191.782C858.67 191.596 859.172 191.504 859.678 191.511C860.184 191.519 860.684 191.626 861.148 191.826C861.613 192.027 862.033 192.317 862.386 192.68C862.738 193.043 863.015 193.471 863.202 193.941C863.388 194.411 863.481 194.914 863.473 195.419C863.32 205.562 863.164 222.87 863.014 239.609C862.863 256.36 862.707 273.681 862.554 283.846C862.538 284.857 862.126 285.821 861.405 286.531C860.685 287.24 859.714 287.638 858.702 287.639V287.639Z" fill="#735552"/>
<path d="M858.698 244.522C857.804 244.523 856.937 244.211 856.248 243.641L836.779 227.586C836.389 227.264 836.066 226.869 835.829 226.422C835.592 225.976 835.445 225.487 835.396 224.983C835.348 224.48 835.4 223.972 835.548 223.489C835.696 223.005 835.938 222.556 836.26 222.166C836.582 221.776 836.978 221.453 837.425 221.216C837.872 220.979 838.361 220.832 838.865 220.784C839.369 220.736 839.877 220.787 840.361 220.936C840.844 221.084 841.294 221.326 841.685 221.647L861.153 237.702C861.765 238.207 862.207 238.888 862.417 239.653C862.627 240.418 862.595 241.229 862.326 241.975C862.058 242.721 861.565 243.366 860.916 243.822C860.266 244.278 859.492 244.523 858.698 244.522V244.522Z" fill="#735552"/>
<path d="M530.386 189.959C531.956 187.911 533.977 186.252 536.292 185.111C538.607 183.969 541.154 183.375 543.735 183.375C546.317 183.375 548.864 183.969 551.179 185.111C553.494 186.252 555.515 187.911 557.085 189.959L599.474 245.24C625.013 278.545 601.248 326.657 559.259 326.657H455.277V287.91L530.386 189.959Z" fill="#F5B35E"/>
<path d="M458.538 283.949L418.945 327.948L425.198 333.566L464.79 289.567L458.538 283.949Z" fill="#F5B35E"/>
<path d="M556.904 190.13C555.319 188.062 553.278 186.387 550.94 185.234C548.603 184.081 546.031 183.481 543.424 183.481C540.817 183.481 538.245 184.081 535.907 185.234C533.57 186.387 531.529 188.062 529.944 190.13L481.341 253.514C458.398 283.435 479.747 326.657 517.469 326.657H631.717C631.761 326.657 631.803 326.639 631.834 326.608C631.865 326.578 631.882 326.536 631.882 326.492V287.966C631.882 287.93 631.87 287.895 631.848 287.866L556.904 190.13Z" fill="#F5B35E"/>
<path d="M628.624 283.95L622.371 289.567L661.963 333.566L668.216 327.949L628.624 283.95Z" fill="#F5B35E"/>
<path d="M543.424 224.18L605.443 326.394H592.739L547.472 308.748L542.598 289.135L543.424 224.18Z" fill="#F5F5F5"/>
<path d="M542.121 326.394H592.739C571.297 314.452 550.059 269.893 543.424 224.18H543.128L542.432 294.84L542.121 326.394Z" fill="#735552"/>
<path d="M413.182 326.725H706.583V355.853H401.699L413.182 326.725Z" fill="#74B9F2"/>
<path d="M966.902 362.576L984.793 339.74L985.062 340.009C989.031 334.659 994.308 330.417 1000.39 327.691C1006.47 324.964 1013.15 323.844 1019.79 324.438C1029.48 325.417 1039.18 330.085 1048.59 327.572C1054.86 325.9 1059.83 321.303 1064.89 317.243C1083.12 302.596 1108.61 293.335 1129.98 302.842C1141.98 308.177 1151.57 318.919 1164.46 321.398C1184.06 325.167 1203.35 308.435 1222.92 312.379C1240.77 315.977 1247.21 341.778 1254.58 358.416L1024.96 363.093L966.902 362.576Z" fill="#9ACC67"/>
<path d="M1099.94 329.413C1084.93 335.348 1067.34 333.449 1053.2 341.24C1045.7 345.38 1039.64 352.039 1032.05 355.854L1022.21 362.592H1237.64L1254.58 356.175C1247.21 339.538 1240.77 315.977 1222.92 312.379C1203.36 308.435 1184.06 325.167 1164.46 321.398C1154.25 319.435 1146.11 312.289 1137.21 306.75C1134.44 308.087 1131.74 309.568 1129.13 311.186C1119.36 317.247 1110.63 325.183 1099.94 329.413Z" fill="#C8DA3E"/>
<path d="M1257.35 362.706C1249.81 345.11 1240.42 314.93 1222.18 311.124C1213.13 309.236 1204.13 311.83 1195.14 314.864C1185.78 323.095 1181.08 336.106 1171.48 344.122C1165.22 349.352 1157.42 352.045 1149.34 354.175C1145.42 355.209 1141.43 356.11 1137.53 357.104L1125.77 362.706" fill="#9ACC67"/>
<path d="M161.512 361.584C165.98 343.935 191.33 324.972 209.555 321.734C227.78 318.496 247.214 318.869 263.601 310.394C274.728 304.639 283.719 295.109 295.504 290.796C317.585 282.715 343.23 294.944 365.495 287.367C375.655 286.2 381.092 281.582 388.321 281.625C391.931 281.667 395.486 282.514 398.726 284.105C401.966 285.696 404.81 287.991 407.048 290.821C408.24 292.374 409.248 294.059 410.052 295.844C420.658 319.134 440.753 336.979 464.996 346.154L491.475 356.176L275.015 361.641L185.212 361.584H161.512Z" fill="#FFFF1C"/>
<path d="M1002.63 355.853C981.57 322.458 920.974 338.004 898.854 305.298C893.758 297.763 891.318 288.164 884.195 282.502C872.086 272.877 853.878 279.659 839.141 274.95C826.786 271.002 818.241 259.407 806.203 254.582C790.457 248.271 772.15 255.034 759.051 265.807C745.952 276.579 736.395 290.962 724.741 303.281C709.669 319.214 702.798 341.88 638.926 355.853L700.083 362.575H1008.81L1002.63 355.853Z" fill="#C8DA3E"/>
<path d="M908.767 355.854C901.623 353.778 894.338 352.106 887.457 349.282C875.546 344.393 865.321 336.242 854.347 329.509C843.373 322.776 830.808 317.287 818.008 318.694C805.43 320.076 793.957 327.992 781.307 327.673C770.379 327.397 760.552 321.007 749.802 319.021C734.07 316.116 718.326 322.824 703.733 329.377L702.365 329.249C702.246 329.074 702.121 328.906 701.993 328.745C690.452 338.691 672.623 348.482 638.926 355.854L654.999 362.576H931.445L908.767 355.854Z" fill="#9ACC67"/>
<path d="M791.759 302.819C793.031 303.448 794.45 303.72 795.866 303.609C803.998 303.611 812.107 302.301 820.234 302.612C844.311 303.532 866.374 318.488 890.469 318.35C895.185 318.323 900.063 317.651 904.063 315.154C905.002 314.564 905.87 313.867 906.648 313.077C903.653 310.629 901.027 307.76 898.854 304.56C893.758 297.025 891.318 287.426 884.195 281.764C872.086 272.139 853.878 278.921 839.141 274.212C839.022 274.174 838.906 274.131 838.789 274.092C822.455 274.089 806.666 279.965 794.314 290.644C792.371 292.125 790.849 294.088 789.9 296.339C789.119 298.64 789.676 301.565 791.759 302.819Z" fill="#FFFF1C"/>
<path d="M282.352 331.845C264.714 334.557 246.17 348.382 235.926 362.485H350.514L491.475 355.854L465.567 345.876C450.094 339.965 436.354 330.266 425.609 317.668C417.345 312.253 408.831 307.489 399.356 306.227C379.325 303.56 361.168 317.022 341.973 323.334C322.865 329.617 302.234 328.789 282.352 331.845Z" fill="#C8DA3E"/>
<path d="M718.282 316.055C720.526 314.175 722.458 311.928 724.83 310.212C728.916 307.256 733.98 306.09 738.742 304.426C746.544 301.693 753.757 297.508 759.999 292.091C766.684 286.284 772.33 279.015 780.259 275.069C786.073 272.176 792.685 271.305 798.705 268.866C804.402 266.558 809.933 262.103 810.922 256.146C809.404 255.272 807.827 254.502 806.203 253.844C790.458 247.533 772.151 254.296 759.052 265.068C745.953 275.84 736.396 290.224 724.742 302.543C719.495 308.089 715.24 314.452 709.23 320.979C712.54 319.943 715.615 318.271 718.282 316.055V316.055Z" fill="#FFFF1C"/>
<path opacity="0.1" d="M630.13 285.625L612.953 263.225L577.073 278.704L570.835 269.355L557.403 276.059L554.828 269.906C551.439 260.854 548.745 251.556 546.769 242.094L543.128 224.18L542.432 290.989L442.957 330.868L442.137 362.897H593.979L566.531 326.657H631.882V300.139L661.961 333.566L668.214 327.948L630.13 285.625Z" fill="black"/>
</g>
<defs>
<clipPath id="clip0_828_1865">
<rect width="1435" height="363" fill="white"/>
</clipPath>
</defs>
</svg>
