<svg width="80" height="74" viewBox="0 0 80 74" fill="none" xmlns="http://www.w3.org/2000/svg">
<ellipse cx="40" cy="36.8932" rx="35" ry="32.2819" fill="#00CCCC"/>
<path fill-rule="evenodd" clip-rule="evenodd" d="M48.8534 22.4048H31.2835C31.2835 22.4048 24.1582 15.8402 17.0678 19.8417C9.97735 23.8431 9.39981 46.2993 9.26014 49.0277C9.12012 51.7558 15.3152 54.8893 19.5137 50.5237C23.7121 46.1584 28.0342 41.6506 40.0767 41.6506C52.1187 41.6506 56.4266 46.1617 60.6247 50.5273C64.8235 54.8926 71.005 51.7555 70.865 49.027C70.725 46.2986 70.1514 23.8431 63.0617 19.8417C55.9709 15.8402 48.8534 22.4048 48.8534 22.4048Z" fill="#F9FAFC"/>
<path d="M23.2561 40.1742C28.3918 40.1742 32.5551 36.3342 32.5551 31.5974C32.5551 26.8605 28.3918 23.0205 23.2561 23.0205C18.1204 23.0205 13.957 26.8605 13.957 31.5974C13.957 36.3342 18.1204 40.1742 23.2561 40.1742Z" fill="#D0CECF"/>
<path fill-rule="evenodd" clip-rule="evenodd" d="M56.7326 40.1742C61.8683 40.1742 66.0317 36.3342 66.0317 31.5974C66.0317 26.8605 61.8683 23.0205 56.7326 23.0205C51.5969 23.0205 47.4336 26.8605 47.4336 31.5974C47.4336 36.3342 51.5969 40.1742 56.7326 40.1742Z" fill="#D0CECF"/>
<path d="M25.1181 26.4512H21.3984V36.7434H25.1181V26.4512Z" fill="#0B0A0A"/>
<path d="M28.8359 33.3126V29.8818L17.6771 29.8818V33.3126H28.8359Z" fill="#0B0A0A"/>
<path d="M38.7578 33.3126V29.8818H35.0382V33.3126H38.7578Z" fill="#0B0A0A"/>
<path d="M44.957 33.3126V29.8818H41.2374V33.3126H44.957Z" fill="#0B0A0A"/>
<path fill-rule="evenodd" clip-rule="evenodd" d="M56.5618 29.5274C55.1922 29.5274 54.082 28.5036 54.082 27.24C54.082 25.9772 55.1922 24.9531 56.5618 24.9531C57.9313 24.9531 59.0415 25.9772 59.0415 27.24C59.0415 28.5036 57.9313 29.5274 56.5618 29.5274Z" fill="#FCDB58"/>
<path fill-rule="evenodd" clip-rule="evenodd" d="M56.5618 38.6759C55.1922 38.6759 54.082 37.6521 54.082 36.3885C54.082 35.1257 55.1922 34.1016 56.5618 34.1016C57.9313 34.1016 59.0415 35.1257 59.0415 36.3885C59.0415 37.6521 57.9313 38.6759 56.5618 38.6759Z" fill="#009999"/>
<path fill-rule="evenodd" clip-rule="evenodd" d="M51.6047 34.1017C50.2352 34.1017 49.125 33.0778 49.125 31.8142C49.125 30.5514 50.2352 29.5273 51.6047 29.5273C52.9743 29.5273 54.0845 30.5514 54.0845 31.8142C54.0845 33.0778 52.9743 34.1017 51.6047 34.1017Z" fill="#017DB1"/>
<path fill-rule="evenodd" clip-rule="evenodd" d="M61.5227 34.1017C61.5227 34.1017 59.043 33.0778 59.043 31.8142C59.043 30.5514 60.1531 29.5273 61.5227 29.5273C62.8923 29.5273 64.0025 30.5514 64.0025 31.8142C64.0025 33.0778 61.5227 34.1017 61.5227 34.1017Z" fill="#CC3D00"/>
</svg>
