<svg width="38" height="26" viewBox="0 0 38 26" fill="none" xmlns="http://www.w3.org/2000/svg">
<path fill-rule="evenodd" clip-rule="evenodd" d="M32.9483 6.71026C33.6938 7.43523 34.2959 8.22651 34.7547 9.0841C33.8372 7.81982 32.8718 6.88708 31.8587 6.28589C31.6293 6.17979 31.3999 6.0958 31.1705 6.03392C30.7213 5.95435 30.272 5.91898 29.8228 5.92782C29.697 5.93494 29.5727 5.94378 29.4501 5.95435C29.7621 6.44075 30.0345 6.94027 30.2673 7.45291C30.5272 7.51611 30.7852 7.63989 31.0415 7.82424C31.6341 8.26629 32.0594 8.92054 32.3174 9.78696C32.3258 9.84885 32.3401 9.91074 32.3605 9.97263L32.3748 9.99915C32.5755 10.7948 32.5564 11.5552 32.3174 12.2802C32.1359 12.8549 31.8635 13.2881 31.5002 13.5798C31.4419 13.8892 31.3081 14.1633 31.0988 14.402H31.0128L30.8551 14.6938L31.0128 14.402H31.0988C31.3081 14.1633 31.4419 13.8892 31.5002 13.5798C31.5194 13.4653 31.5289 13.3459 31.5289 13.2217V13.1024C31.4716 11.7408 31.247 10.3882 30.8551 9.04431C30.8048 8.87004 30.7474 8.69764 30.683 8.52711C30.5652 8.16362 30.4266 7.80556 30.2673 7.45291C30.0345 6.94027 29.7621 6.44075 29.4501 5.95435C29.3839 5.86165 29.317 5.7644 29.2493 5.66259C29.1591 5.53578 29.0636 5.40758 28.9626 5.278C28.7633 5.00679 28.5483 4.74156 28.3174 4.4823C27.1896 3.20034 25.7129 2.51958 23.8873 2.44001L23.8013 2.51958C23.333 2.17478 22.8216 1.90954 22.2673 1.72388C21.1203 1.34371 19.9495 1.26414 18.7547 1.48517C17.5791 1.68852 16.4751 2.05984 15.4429 2.59915C14.4106 3.13846 13.4405 3.76175 12.5325 4.46904C11.839 5.01291 11.2034 5.6141 10.6257 6.27263C10.2324 6.07132 9.81662 5.92102 9.37838 5.82173C9.2828 5.79521 9.17766 5.77752 9.06296 5.76868C8.69976 5.73332 8.33178 5.74658 7.95902 5.80847C7.71051 5.86152 7.47156 5.92782 7.24217 6.00739C7.10836 6.04276 6.97455 6.0958 6.84074 6.16653C5.97097 6.53786 5.17288 7.03296 4.44647 7.65184C3.6914 8.31492 3.0319 9.03105 2.46798 9.80022C1.91362 10.5606 1.48351 11.3342 1.17766 12.121C0.843129 12.9167 0.647191 13.7699 0.589844 14.6805L0.618518 14.7203C0.647191 14.6938 0.675865 14.6628 0.704539 14.6275C1.23978 14.044 1.72724 13.5754 2.1669 13.2217C2.62569 12.8416 2.99367 12.5631 3.27085 12.3862C3.26129 12.4393 3.25173 12.4923 3.24217 12.5454C3.18483 12.7222 3.03668 13.204 2.79773 13.9909C2.54922 14.7954 2.37718 15.6309 2.2816 16.4974C2.19558 17.3638 2.20514 18.2214 2.31027 19.0701C2.35806 18.9817 2.40585 18.8933 2.45364 18.8049C3.03668 17.5406 3.66272 16.6432 4.33178 16.1128C4.33178 16.1481 4.33656 16.1879 4.34612 16.2321C4.59462 17.6467 5.30669 18.7651 6.48232 19.5873L6.58268 19.6271C6.57312 19.6006 6.56834 19.5741 6.56834 19.5475C6.50143 18.9463 6.59701 18.2833 6.85508 17.5583C6.86464 17.5937 6.88375 17.6246 6.91243 17.6511C7.61971 18.7739 8.40824 19.6138 9.27802 20.1708C9.26846 20.162 9.2589 20.1532 9.24934 20.1443C9.20155 20.0205 9.16332 19.8923 9.13465 19.7597C9.0773 19.5033 9.03429 19.2293 9.00562 18.9375C8.9865 18.5573 9.00562 18.1418 9.06296 17.6909C9.12292 17.2804 9.2424 16.9047 9.42139 16.5637C9.89047 17.4496 10.5022 18.2453 11.2565 18.9508C11.1896 18.827 11.1275 18.6944 11.0701 18.5529C11.0606 18.5352 11.0558 18.522 11.0558 18.5131C11.0462 18.4866 11.0415 18.4645 11.0415 18.4468C10.9268 18.3319 10.8646 18.2788 10.8551 18.2877C10.8646 18.2788 10.9268 18.3319 11.0415 18.4468L11.0701 18.5529L12.002 19.5077L12.2314 19.6404C12.1836 19.1895 12.2458 18.7474 12.4178 18.3142C12.4274 18.2877 12.4417 18.2612 12.4608 18.2346C12.6806 17.8103 13.0534 17.3991 13.5791 17.0013C13.5695 16.9571 13.5648 16.9173 13.5648 16.8819C13.5456 16.8024 13.5265 16.7272 13.5074 16.6565C13.4787 16.6477 13.4548 16.6256 13.4357 16.5902C13.407 16.5637 13.3832 16.5327 13.364 16.4974C13.3449 16.5062 13.3306 16.515 13.321 16.5239C13.3115 16.5239 13.2924 16.4487 13.2637 16.2984C13.1968 16.157 13.1729 16.0862 13.192 16.0862C13.1729 16.0862 13.1968 16.157 13.2637 16.2984C13.2732 16.3161 13.2876 16.3382 13.3067 16.3647C13.3258 16.4089 13.3449 16.4531 13.364 16.4974C13.4118 16.4708 13.4405 16.462 13.4501 16.4708C13.4596 16.515 13.474 16.5592 13.4931 16.6034V16.6167C13.5026 16.6256 13.5074 16.6388 13.5074 16.6565C13.5839 16.6742 13.6795 16.7007 13.7941 16.7361C13.8228 16.7449 13.8515 16.7537 13.8802 16.7626C13.8706 16.7626 13.8658 16.767 13.8658 16.7759C13.7703 16.8466 13.6747 16.9217 13.5791 17.0013C13.6078 17.1074 13.6747 17.2312 13.7798 17.3726C13.8754 17.5141 14.0761 17.6821 14.382 17.8766C14.2864 17.6821 14.1908 17.3594 14.0952 16.9085C14.0665 16.7935 14.0379 16.6742 14.0092 16.5504V16.5371V16.4974C13.9996 16.4797 13.9949 16.4664 13.9949 16.4576C13.9757 16.4134 13.9662 16.3692 13.9662 16.325L13.9232 16.073C13.8085 15.516 13.8085 14.9502 13.9232 14.3755C15.8252 13.8804 17.603 13.1422 19.2565 12.1608C20.9005 11.1794 22.3724 10.1097 23.6723 8.95148C24.8766 7.88171 25.5026 6.88266 25.5504 5.95435C25.7416 6.07812 25.9375 6.2019 26.1382 6.32567H26.1526C26.347 6.43891 26.5286 6.56269 26.6974 6.697C26.7506 6.74628 26.8032 6.79491 26.8551 6.84288C26.8646 6.84288 26.8742 6.8473 26.8838 6.85614C27.1036 7.01528 27.3234 7.18326 27.5432 7.36008C27.5528 7.36892 27.5671 7.38218 27.5863 7.39987C27.6914 7.48828 27.7535 7.54132 27.7726 7.55901L28.3031 8.06295C28.343 8.1027 28.3812 8.14248 28.4178 8.1823C28.5574 8.32984 28.6769 8.47572 28.7762 8.61994C28.8251 8.68352 28.8681 8.74541 28.9053 8.8056L29.3784 9.70739L29.7941 10.6092C29.8037 10.6357 29.8706 10.8258 29.9949 11.1794C30.186 11.7364 30.3055 12.2138 30.3533 12.6117C30.4138 13.0685 30.452 13.5238 30.468 13.9776C30.493 14.8297 30.4404 15.6829 30.3103 16.5371C30.2483 16.9513 30.1671 17.358 30.0665 17.7572C29.7566 18.9761 29.2644 20.1431 28.5898 21.2583C27.7105 22.7171 26.4871 23.8266 24.9196 24.587C23.1609 25.2677 21.3545 25.3031 19.5002 24.6931C17.9996 24.2068 16.6854 23.4818 15.5576 22.5181C15.5385 22.5093 15.5241 22.5005 15.5146 22.4916C15.3425 22.3413 15.1753 22.1866 15.0128 22.0275L14.9984 22.0142C14.9315 21.9523 14.8646 21.886 14.7977 21.8153L14.7834 21.802C14.7738 21.802 14.7691 21.7976 14.7691 21.7888C14.597 21.5854 14.4489 21.4086 14.3246 21.2583L13.6651 20.3167L13.4931 20.0117V19.9984C13.4644 19.9542 13.4405 19.9189 13.4214 19.8923V19.8791C13.4214 19.8437 13.407 19.8128 13.3784 19.7862C13.3497 19.7597 13.3162 19.7465 13.278 19.7465C13.2589 19.7465 13.2446 19.7509 13.235 19.7597C13.2159 19.7597 13.1968 19.7686 13.1777 19.7862L13.1633 19.7995V19.8128L13.149 19.7995L12.4178 18.3142C12.2458 18.7474 12.1836 19.1895 12.2314 19.6404L12.002 19.5077L11.873 19.5873C12.8575 20.2592 13.2876 21.108 13.1633 22.1336C13.5934 22.0805 13.8372 21.9081 13.8945 21.6164L13.9232 21.8153L13.9375 21.8816L13.7368 22.9027C14.0235 22.8232 14.2577 22.6994 14.4393 22.5314C14.4871 22.4872 14.5301 22.443 14.5683 22.3988C14.6066 22.3634 14.64 22.3281 14.6687 22.2927C14.6783 22.275 14.6926 22.2573 14.7117 22.2396C14.7499 22.1866 14.7786 22.138 14.7977 22.0938C14.8073 22.1115 14.8216 22.1291 14.8407 22.1468L14.7117 22.2396C14.9315 22.4695 15.1657 22.695 15.4142 22.916C15.4333 22.9337 15.4572 22.9558 15.4859 22.9823L15.5002 23.0088C15.9877 23.4774 16.6663 23.9416 17.5361 24.4013C18.2338 24.7991 19.0845 25.1086 20.0881 25.3296C20.0976 25.3296 20.1072 25.334 20.1167 25.3429H20.1311C21.4979 25.723 22.8407 25.7142 24.1597 25.3164C26.1287 24.7505 27.6579 23.6675 28.7476 22.0672C29.6404 20.7619 30.2665 19.3783 30.6257 17.9164C30.6622 18.3688 30.6335 18.7976 30.5397 19.2027C30.5301 19.2293 30.5253 19.2602 30.5253 19.2956L30.6113 19.2558C31.8826 18.4512 32.7284 17.3373 33.149 15.9138C33.1585 15.8696 33.1681 15.8299 33.1777 15.7945C33.7607 16.3515 34.2577 17.2842 34.6687 18.5927C34.7069 18.6811 34.7404 18.7739 34.7691 18.8712C34.9889 18.0048 35.1084 17.1295 35.1275 16.2454C35.1466 15.3613 35.0892 14.5081 34.9554 13.6859C34.8216 12.8725 34.7404 12.373 34.7117 12.1873C34.7117 12.1343 34.7022 12.0856 34.683 12.0414C34.9411 12.2094 35.2709 12.4968 35.6723 12.9035C36.045 13.2925 36.4608 13.7876 36.9196 14.3888C36.9387 14.4241 36.9626 14.4551 36.9913 14.4816L37.02 14.4551C37.0869 13.5267 37.0056 12.6471 36.7762 11.816C36.5851 11.0026 36.2649 10.2025 35.8157 9.41564C35.3664 8.61994 34.8121 7.86844 34.1526 7.16116C33.5217 6.50692 32.8097 5.97203 32.0164 5.5565C31.8921 5.48577 31.7631 5.43272 31.6293 5.39736C31.419 5.30895 31.1992 5.2338 30.9698 5.17191C30.6066 5.0835 30.2481 5.05255 29.8945 5.07908C29.7798 5.08792 29.6699 5.10118 29.5648 5.11886C29.3647 5.16041 29.164 5.21346 28.9626 5.278C29.0636 5.40758 29.1591 5.53578 29.2493 5.66259C29.5815 5.58302 29.8874 5.54324 30.1669 5.54324C30.6066 5.56092 30.9793 5.61838 31.2852 5.71564C31.916 5.91014 32.4704 6.24168 32.9483 6.71026ZM18.0235 1.90954C18.1669 1.86534 18.3103 1.82997 18.4536 1.80345C19.6962 1.51169 20.9244 1.58242 22.1382 2.01564C23.247 2.38696 24.0642 3.03236 24.5898 3.95184C25.1538 4.9332 25.2637 5.97203 24.9196 7.06833C25.0152 5.77752 24.6329 4.64144 23.7726 3.66008C23.2278 3.05889 22.5588 2.61683 21.7655 2.33392C20.5612 1.88302 19.3139 1.74156 18.0235 1.90954ZM27.701 3.92531C27.8061 4.02257 27.9065 4.12866 28.002 4.24359C28.2888 4.55303 28.4943 4.90668 28.6185 5.30453C28.4082 5.03929 28.1836 4.79174 27.9447 4.56187C27.0654 3.66892 25.971 3.14288 24.6615 2.98374L24.1884 2.50632C24.4943 2.55936 24.8049 2.61683 25.1203 2.67872C26.1048 2.85554 26.965 3.27107 27.701 3.92531ZM12.9053 16.2189C12.953 16.2542 13.0056 16.294 13.063 16.3382C13.1012 16.3647 13.1442 16.4001 13.192 16.4443C13.2207 16.4708 13.2493 16.4929 13.278 16.5106C13.1251 16.4399 13.0391 16.3913 13.02 16.3647C12.9722 16.294 12.9339 16.2454 12.9053 16.2189ZM12.9626 9.09736C12.9053 8.59341 12.7237 8.19557 12.4178 7.90381C12.3413 7.75351 12.2505 7.62531 12.1454 7.51922C12.1072 7.43965 12.0355 7.3424 11.9303 7.22747C11.9399 7.21862 11.9351 7.20978 11.916 7.20094C11.8178 7.1031 11.7174 7.01027 11.6149 6.92245C12.0442 6.55996 12.4886 6.37872 12.9483 6.37872C13.5791 6.36988 14.0522 6.697 14.3676 7.36008C14.683 8.032 14.7547 8.84539 14.5827 9.80022C14.5636 9.87095 14.5492 9.9461 14.5397 10.0257C14.3485 10.8833 13.9901 11.6215 13.4644 12.2404C12.9005 12.9123 12.3079 13.2527 11.6866 13.2615C11.3249 13.2615 11.0143 13.151 10.7547 12.93C10.7954 12.809 10.8288 12.7162 10.8551 12.6515C11.3043 12.4128 11.6675 12.1299 11.9447 11.8027C12.2505 11.4756 12.5086 11.0689 12.7189 10.5827C12.9292 10.1052 13.0104 9.61014 12.9626 9.09736ZM6.89809 6.88266C5.79892 7.43081 4.69498 8.30608 3.58626 9.50847C4.17885 8.68625 4.8957 7.93475 5.7368 7.25399C6.29116 6.81193 6.90287 6.50692 7.57192 6.33893C7.88734 6.25052 8.26965 6.20632 8.71888 6.20632C9.17766 6.21516 9.68901 6.33451 10.2529 6.56438C10.7404 6.79425 11.1036 7.0418 11.3425 7.30703C11.0367 7.16558 10.7213 7.03296 10.3963 6.90919C9.94707 6.73236 9.49307 6.63069 9.03429 6.60417C8.57551 6.57764 8.11195 6.59533 7.64361 6.65721C7.3951 6.71026 7.14659 6.78541 6.89809 6.88266ZM26.382 17.5052C26.057 17.072 25.7033 16.8377 25.321 16.8024C24.9292 16.7493 24.5134 16.8908 24.0737 17.2267L24.0594 17.24C23.9734 17.2931 23.8921 17.3682 23.8157 17.4655C23.787 17.5008 23.7726 17.5362 23.7726 17.5715C23.7726 17.6158 23.7918 17.6511 23.83 17.6776C23.8682 17.6953 23.9065 17.7042 23.9447 17.7042C23.9925 17.7042 24.0307 17.6865 24.0594 17.6511C24.1263 17.5715 24.1932 17.5097 24.2601 17.4655C24.6233 17.1825 24.9626 17.0588 25.278 17.0941C25.5839 17.1295 25.8658 17.324 26.1239 17.6776C26.1526 17.7042 26.186 17.7218 26.2243 17.7307C26.2625 17.7395 26.3007 17.7307 26.3389 17.7042C26.3772 17.6776 26.4011 17.6467 26.4106 17.6113C26.4202 17.5671 26.4106 17.5318 26.382 17.5052ZM13.9232 21.8153C13.9232 21.8241 13.9184 21.8374 13.9088 21.8551C13.9184 21.8551 13.928 21.8639 13.9375 21.8816L13.9232 21.8153ZM13.364 16.4974C13.3449 16.4531 13.3258 16.4089 13.3067 16.3647C13.2876 16.3382 13.2732 16.3161 13.2637 16.2984C13.2924 16.4487 13.3115 16.5239 13.321 16.5239C13.3306 16.515 13.3449 16.5062 13.364 16.4974ZM31.5289 13.1024V13.2217H31.5432C31.6962 13.0891 31.6914 13.0493 31.5289 13.1024Z" fill="black"/>
<path fill-rule="evenodd" clip-rule="evenodd" d="M3.58594 9.50907C4.69466 8.30668 5.7986 7.43141 6.89777 6.88326C7.14627 6.78601 7.39478 6.71086 7.64328 6.65781C8.11162 6.59593 8.57518 6.57824 9.03397 6.60477C9.49275 6.63129 9.94675 6.73296 10.396 6.90978C10.7209 7.03356 11.0364 7.16618 11.3422 7.30763C11.1033 7.0424 10.7401 6.79485 10.2526 6.56498C9.68868 6.33511 9.17734 6.21576 8.71855 6.20692C8.26933 6.20692 7.88701 6.25112 7.5716 6.33953C6.90254 6.50751 6.29084 6.81253 5.73647 7.25459C4.89538 7.93535 4.17853 8.68685 3.58594 9.50907ZM28.0017 4.24419C27.9061 4.12926 27.8058 4.02317 27.7006 3.92591C26.9647 3.27167 26.1045 2.85614 25.12 2.67932C24.8046 2.61743 24.4939 2.55996 24.1881 2.50692L24.6612 2.98434C25.9706 3.14348 27.065 3.66952 27.9444 4.56247C28.1833 4.79234 28.4079 5.03989 28.6182 5.30513C28.4939 4.90728 28.2884 4.55363 28.0017 4.24419ZM18.4533 1.80405C18.31 1.83057 18.1666 1.86594 18.0232 1.91014C19.3135 1.74216 20.5608 1.88362 21.7651 2.33452C22.5585 2.61743 23.2275 3.05949 23.7723 3.66068C24.6325 4.64204 25.0148 5.77812 24.9193 7.06892C25.2634 5.97263 25.1534 4.9338 24.5895 3.95244C24.0638 3.03296 23.2466 2.38756 22.1379 2.01624C20.924 1.58302 19.6959 1.51229 18.4533 1.80405ZM34.7544 9.0847C34.2956 8.22711 33.6935 7.43583 32.9479 6.71086C32.47 6.24228 31.9157 5.91074 31.2849 5.71624C30.979 5.61898 30.6062 5.56152 30.1666 5.54384C29.887 5.54384 29.5812 5.58362 29.249 5.66319C29.3166 5.765 29.3835 5.86225 29.4497 5.95495C29.5724 5.94438 29.6966 5.93554 29.8225 5.92842C30.2717 5.91958 30.7209 5.95495 31.1702 6.03452C31.3996 6.0964 31.6289 6.18039 31.8583 6.28649C32.8715 6.88768 33.8368 7.82042 34.7544 9.0847Z" fill="#663300"/>
<path fill-rule="evenodd" clip-rule="evenodd" d="M14.366 7.36044C14.0506 6.69736 13.5774 6.37024 12.9466 6.37908C12.487 6.37908 12.0425 6.56032 11.6133 6.92281C11.7158 7.01063 11.8161 7.10346 11.9144 7.2013C11.9335 7.21014 11.9383 7.21899 11.9287 7.22783H12.6312C13.1473 7.22783 13.6061 7.57705 14.0075 8.2755C14.409 8.95626 14.5858 9.53977 14.538 10.026C14.5476 9.94647 14.5619 9.87132 14.581 9.80059C14.7531 8.84575 14.6814 8.03237 14.366 7.36044ZM30.2656 7.45327C30.425 7.80592 30.5635 8.16398 30.6814 8.52747C30.8148 8.58614 30.9486 8.65687 31.0828 8.73966C31.7568 9.14662 32.1821 9.55773 32.3588 9.97299C32.3385 9.9111 32.3242 9.84921 32.3158 9.78733C32.0577 8.9209 31.6324 8.26666 31.0398 7.8246C30.7836 7.64025 30.5255 7.51647 30.2656 7.45327Z" fill="#CC0000"/>
<path fill-rule="evenodd" clip-rule="evenodd" d="M12.417 7.90388C12.7228 8.19564 12.9044 8.59349 12.9618 9.09743C13.0096 9.61022 12.9283 10.1053 12.7181 10.5827C12.5078 11.069 12.2497 11.4757 11.9439 11.8028C11.6667 12.1299 11.3035 12.4128 10.8543 12.6516C10.828 12.7163 10.7946 12.8091 10.7539 12.93C11.0135 13.1511 11.3241 13.2616 11.6858 13.2616C12.3071 13.2527 12.8997 12.9124 13.4636 12.2404C13.9893 11.6216 14.3477 10.8833 14.5389 10.0257C14.5866 9.53949 14.4098 8.95597 14.0084 8.27521C13.607 7.57676 13.1482 7.22754 12.632 7.22754H11.9295C12.0347 7.34247 12.1064 7.43973 12.1446 7.5193C12.2497 7.62539 12.3405 7.75358 12.417 7.90388ZM30.6822 8.52718C30.7466 8.69772 30.804 8.87012 30.8543 9.04439C31.2461 10.3882 31.4708 11.7409 31.5281 13.1025C31.6906 13.0494 31.6954 13.0892 31.5424 13.2218H31.5281C31.5281 13.346 31.5185 13.4653 31.4994 13.5799C31.8627 13.2882 32.1351 12.855 32.3166 12.2802C32.5556 11.5553 32.5747 10.7949 32.374 9.99922L32.3596 9.9727C32.183 9.55745 31.7576 9.14633 31.0837 8.73937C30.9494 8.65659 30.8156 8.58586 30.6822 8.52718Z" fill="#990000"/>
<path fill-rule="evenodd" clip-rule="evenodd" d="M13.0631 16.338C13.0058 16.2938 12.9532 16.254 12.9054 16.2186C12.9341 16.2451 12.9723 16.2938 13.0201 16.3645C13.0392 16.391 13.1253 16.4396 13.2782 16.5104C13.2495 16.4927 13.2208 16.4706 13.1922 16.4441C13.1444 16.3999 13.1014 16.3645 13.0631 16.338ZM23.6725 10.3039C24.5618 9.48129 25.2404 8.76074 25.7083 8.14227C25.9407 7.85066 26.1223 7.581 26.2531 7.33331C26.9222 7.47477 27.6055 7.7179 28.3033 8.0627L27.7728 7.55876C27.7537 7.54108 27.6916 7.48803 27.5864 7.39962C27.5673 7.38194 27.553 7.36868 27.5434 7.35984C27.3236 7.18301 27.1038 7.01503 26.8839 6.85589C26.8744 6.84705 26.8648 6.84263 26.8552 6.84263C26.8034 6.79466 26.7508 6.74604 26.6975 6.69675C26.5287 6.56245 26.3471 6.43867 26.1527 6.32543H26.1384C25.9377 6.20165 25.7417 6.07788 25.5506 5.9541C25.5028 6.88242 24.8768 7.88146 23.6725 8.95123C22.3726 10.1094 20.9006 11.1792 19.2567 12.1606C17.6032 13.1419 15.8254 13.8801 13.9233 14.3752C13.8086 14.9499 13.8086 15.5157 13.9233 16.0727L13.9664 16.3247C13.9664 16.3689 13.9759 16.4131 13.995 16.4573C13.995 16.4662 13.9998 16.4794 14.0094 16.4971V16.5369V16.5502C14.038 16.6739 14.0667 16.7933 14.0954 16.9082C14.1336 16.9347 14.1766 16.9657 14.2244 17.0011C14.1575 16.4087 14.2722 15.8296 14.5685 15.2638C15.0464 15.14 15.6438 14.9455 16.3606 14.6803C17.0679 14.415 18.1336 13.9244 19.5578 13.2082C20.9723 12.4833 22.3439 11.5152 23.6725 10.3039ZM12.461 18.2344C12.4419 18.2609 12.4275 18.2874 12.418 18.314L13.1492 19.7993H13.1635L13.1778 19.786C13.1969 19.7683 13.2161 19.7595 13.2352 19.7595L13.1778 19.6269L13.2495 19.7064L13.2208 19.6401L13.2352 19.6666L13.2208 19.6136C12.9437 19.2246 12.6904 18.7649 12.461 18.2344ZM13.4502 16.4706C13.4407 16.4617 13.412 16.4706 13.3642 16.4971C13.3833 16.5325 13.4072 16.5634 13.4359 16.5899C13.455 16.5988 13.4741 16.6076 13.4932 16.6165V16.6032C13.4741 16.559 13.4598 16.5148 13.4502 16.4706ZM13.7943 16.7358C13.8134 16.7447 13.8373 16.7579 13.866 16.7756C13.866 16.7668 13.8708 16.7623 13.8803 16.7623C13.8517 16.7535 13.823 16.7447 13.7943 16.7358Z" fill="#AC6C2D"/>
<path fill-rule="evenodd" clip-rule="evenodd" d="M29.3768 9.70703V9.72029C29.5449 11.1124 29.6023 12.4607 29.5488 13.7651C29.4919 15.2906 29.2864 16.7582 28.9323 18.168C28.8122 18.5385 28.6783 18.9009 28.5309 19.2554C28.4729 19.4129 28.4108 19.5676 28.3445 19.7196C27.5321 21.532 26.3899 23.1543 24.918 24.5866C26.4855 23.8263 27.7089 22.7167 28.5882 21.2579C29.2628 20.1427 29.755 18.9757 30.0649 17.7569C30.1655 17.3577 30.2467 16.951 30.3087 16.5368C30.4388 15.6825 30.4914 14.8293 30.4664 13.9773C30.4504 13.5235 30.4121 13.0682 30.3517 12.6113C30.3039 12.2135 30.1844 11.7361 29.9932 11.1791C29.869 10.8254 29.8021 10.6353 29.7925 10.6088L29.3768 9.70703Z" fill="#E4B381"/>
<path fill-rule="evenodd" clip-rule="evenodd" d="M25.7083 8.14294C25.2404 8.76141 24.5617 9.48196 23.6724 10.3046C22.3439 11.5158 20.9723 12.4839 19.5577 13.2089C18.1336 13.925 17.0679 14.4157 16.3606 14.6809C15.6437 14.9462 15.0464 15.1407 14.5685 15.2644C14.2722 15.8303 14.1575 16.4094 14.2244 17.0017C14.1766 16.9664 14.1336 16.9354 14.0953 16.9089C14.1909 17.3598 14.2865 17.6825 14.3821 17.877C14.0762 17.6825 13.8755 17.5145 13.7799 17.3731C13.6748 17.2316 13.6079 17.1078 13.5792 17.0017C13.0535 17.3996 12.6808 17.8107 12.4609 18.2351C12.6903 18.7655 12.9436 19.2253 13.2208 19.6143L13.2351 19.6673L13.2781 19.7469C13.3164 19.7469 13.3498 19.7601 13.3785 19.7867C13.4072 19.8132 13.4215 19.8441 13.4215 19.8795V19.8928C13.4406 19.9193 13.4645 19.9547 13.4932 19.9989V20.0121L13.6652 20.3171L14.3247 21.2587C14.449 21.409 14.5971 21.5858 14.7692 21.7892C14.7692 21.798 14.774 21.8024 14.7835 21.8024L14.7979 21.8157C14.8648 21.8864 14.9317 21.9527 14.9986 22.0146L15.0129 22.0279C15.1754 22.187 15.3427 22.3418 15.5147 22.492C15.5243 22.5009 15.5386 22.5097 15.5577 22.5186C16.6855 23.4823 17.9998 24.2072 19.5004 24.6935C21.3546 25.3035 23.1611 25.2682 24.9197 24.5874C26.3916 23.1551 27.5338 21.5328 28.3462 19.7204C28.4126 19.5684 28.4747 19.4137 28.5326 19.2562C28.6801 18.9017 28.8139 18.5392 28.9341 18.1688C29.2881 16.759 29.4936 15.2914 29.5505 13.7659C29.604 12.4614 29.5467 11.1132 29.3785 9.72108V9.70782L28.9054 8.80603C28.8682 8.74583 28.8252 8.68394 28.7764 8.62036C28.677 8.47614 28.5576 8.33027 28.4179 8.18273C28.3813 8.14291 28.3431 8.10313 28.3032 8.06337C27.6055 7.71857 26.9221 7.47544 26.2531 7.33398C26.1223 7.58167 25.9407 7.85133 25.7083 8.14294ZM25.3212 16.8028C25.7035 16.8382 26.0571 17.0725 26.3821 17.5057C26.4108 17.5322 26.4203 17.5676 26.4108 17.6118C26.4012 17.6471 26.3773 17.6781 26.3391 17.7046C26.3008 17.7311 26.2626 17.74 26.2244 17.7311C26.1861 17.7223 26.1527 17.7046 26.124 17.6781C25.866 17.3244 25.584 17.1299 25.2781 17.0946C24.9627 17.0592 24.6234 17.183 24.2602 17.4659C24.1933 17.5101 24.1264 17.572 24.0595 17.6515C24.0308 17.6869 23.9926 17.7046 23.9448 17.7046C23.9066 17.7046 23.8683 17.6958 23.8301 17.6781C23.7919 17.6515 23.7728 17.6162 23.7728 17.572C23.7728 17.5366 23.7871 17.5012 23.8158 17.4659C23.8922 17.3686 23.9735 17.2935 24.0595 17.2404L24.0738 17.2272C24.5135 16.8912 24.9293 16.7498 25.3212 16.8028ZM13.4358 16.5906C13.455 16.626 13.4789 16.6481 13.5075 16.6569C13.5075 16.6392 13.5028 16.626 13.4932 16.6171L13.4358 16.5906ZM13.866 16.7763C13.8373 16.7586 13.8134 16.7453 13.7943 16.7365C13.6796 16.7011 13.584 16.6746 13.5075 16.6569C13.5266 16.7277 13.5458 16.8028 13.5649 16.8824C13.5649 16.9177 13.5697 16.9575 13.5792 17.0017C13.6748 16.9222 13.7704 16.847 13.866 16.7763Z" fill="#DC9752"/>
<path d="M11.6141 6.92281C12.0434 6.56032 12.4878 6.37908 12.9475 6.37908C13.5783 6.37024 14.0514 6.69736 14.3668 7.36044C14.6822 8.03237 14.7539 8.84575 14.5819 9.80059C14.5627 9.87131 14.5484 9.94646 14.5389 10.026C14.3477 10.8836 13.9893 11.6219 13.4636 12.2407C12.8997 12.9127 12.3071 13.253 11.6858 13.2619C11.3241 13.2619 11.0135 13.1536 10.7539 12.937M30.2665 7.4599C30.5263 7.51868 30.7844 7.64025 31.0406 7.8246C31.6332 8.26666 32.0586 8.9209 32.3166 9.78732C32.325 9.84921 32.3417 9.9111 32.3668 9.97299L32.374 9.99951C32.5747 10.7952 32.5556 11.5555 32.3166 12.2805C32.1351 12.8553 31.8627 13.2885 31.4994 13.5802L30.2665 7.4599Z" stroke="#660000"/>
<path d="M13.938 21.8816L13.9237 21.8153M14.7122 22.2397C14.6931 22.2573 14.6787 22.275 14.6692 22.2927C14.6405 22.3281 14.6071 22.3634 14.5688 22.3988C14.5306 22.443 14.4876 22.4872 14.4398 22.5314C14.2582 22.6994 14.024 22.8232 13.7373 22.9027L13.938 21.8816L14.7122 22.2397ZM13.9237 21.8153L13.895 21.6164C13.8376 21.9081 13.5939 22.0805 13.1638 22.1336C13.2881 21.108 12.858 20.2592 11.8735 19.5873C11.7875 19.4989 11.711 19.4193 11.6441 19.3486L13.9237 21.8153ZM9.42188 16.5703C9.89096 17.4518 10.5027 18.2453 11.257 18.9508L9.42188 16.5703ZM23.8018 2.51958C23.3335 2.17478 22.8221 1.90954 22.2678 1.72388C21.1208 1.34371 19.95 1.26414 18.7552 1.48517C17.5796 1.68852 16.4756 2.05984 15.4434 2.59915C14.4111 3.13846 13.441 3.76175 12.533 4.46904C11.8395 5.01291 11.2063 5.61631 10.6333 6.27926L23.8018 2.51958ZM13.1781 19.6271L13.2355 19.7597L13.1781 19.6271ZM14.7982 22.0938C14.7791 22.138 14.7504 22.1866 14.7122 22.2397L14.7982 22.0938Z" stroke="black"/>
<path fill-rule="evenodd" clip-rule="evenodd" d="M26.6129 8.19551C26.7467 7.72693 26.7228 7.27162 26.5412 6.82956C26.35 6.37866 26.0585 6.05154 25.6666 5.8482C25.5997 5.82167 25.5471 5.81283 25.5089 5.82167C25.2222 5.91009 25.16 6.18858 25.3225 6.65716C25.3416 6.71905 25.3894 6.73673 25.4659 6.71021C25.6093 6.43613 25.8243 6.61737 26.1111 7.25393C26.3882 7.88165 26.3739 8.51379 26.0681 9.15035C26.2879 8.99121 26.4695 8.67293 26.6129 8.19551Z" fill="black"/>
<path fill-rule="evenodd" clip-rule="evenodd" d="M19.2466 16.3424C19.8185 16.6644 20.4818 16.8233 21.2364 16.819C21.9966 16.823 22.6274 16.6663 23.1288 16.3489C23.647 16.0366 23.8838 15.6573 23.8391 15.211C23.8042 14.7676 23.4993 14.3879 22.9245 14.0721C22.3709 13.7626 21.7131 13.6081 20.9511 13.6087C20.1985 13.6107 19.5627 13.7677 19.0438 14.0797C18.5453 14.395 18.3135 14.774 18.3485 15.2166C18.3928 15.6615 18.6922 16.0368 19.2466 16.3424Z" fill="url(#paint0_linear_827_1145)"/>
<path fill-rule="evenodd" clip-rule="evenodd" d="M26.2791 15.4721C26.323 15.8885 26.5836 16.2397 27.0608 16.5255C27.5561 16.8309 28.1253 16.9846 28.7685 16.9867C28.9288 16.9864 29.0775 16.9774 29.2144 16.9597C29.3902 16.1559 29.4752 15.1911 29.4694 14.0656C29.1744 13.9925 28.8515 13.9555 28.5008 13.9548C27.8569 13.9564 27.3136 14.1021 26.8707 14.3921C26.4456 14.6915 26.2484 15.0515 26.2791 15.4721Z" fill="url(#paint1_linear_827_1145)"/>
<path fill-rule="evenodd" clip-rule="evenodd" d="M30.92 15.8702C31.0555 15.5183 30.9145 15.08 30.4967 14.5554C30.5542 15.205 30.5279 15.8538 30.4177 16.5018C30.6165 16.4405 30.784 16.23 30.92 15.8702Z" fill="url(#paint2_linear_827_1145)"/>
<path fill-rule="evenodd" clip-rule="evenodd" d="M30.2155 14.3708C29.9965 14.2369 29.76 14.13 29.5059 14.05C29.5115 15.1669 29.4279 16.1242 29.255 16.9219C29.6989 16.8715 30.0775 16.7364 30.3906 16.5165C30.5023 15.8669 30.529 15.2165 30.4708 14.5652L30.4679 14.5374C30.3943 14.4851 30.3101 14.4295 30.2155 14.3708Z" fill="url(#paint3_linear_827_1145)"/>
<path fill-rule="evenodd" clip-rule="evenodd" d="M20.978 13.21C20.1203 13.1986 19.3961 13.3741 18.8054 13.7365C18.268 14.0947 17.9881 14.5233 17.9659 15.0223L17.9674 15.0367L17.9222 15.0395L13.3805 15.9449L13.4979 16.3586L18.0633 15.5388C18.1985 15.9331 18.4956 16.2775 18.9547 16.5722C19.5817 16.9745 20.3241 17.1801 21.1818 17.189C22.0403 17.2083 22.759 17.0283 23.3379 16.6491C23.876 16.3116 24.1568 15.8926 24.1803 15.3921C24.8143 15.1895 25.4163 15.2538 25.9863 15.5851C25.9924 15.5969 25.9934 15.6065 25.9892 15.614C26.0403 16.0905 26.2945 16.5102 26.7519 16.8731C27.2592 17.2616 27.8657 17.4708 28.5713 17.5006C29.2869 17.5428 29.8927 17.394 30.3886 17.0542C30.8853 16.7207 31.1295 16.2894 31.1213 15.7606C31.1142 15.2438 30.8566 14.7905 30.3485 14.4005C29.8509 14.0113 29.2439 13.7973 28.5276 13.7585C27.8225 13.7253 27.2218 13.8738 26.7254 14.2039C26.3644 14.453 26.1367 14.7477 26.0422 15.0881C26.0404 15.096 26.0359 15.1011 26.0286 15.1035C25.3707 14.7834 24.7345 14.7308 24.1203 14.9459C24.1221 14.9344 24.1207 14.92 24.1159 14.9026C23.993 14.5038 23.6844 14.1455 23.1901 13.8278C22.574 13.4348 21.8367 13.2288 20.978 13.21ZM30.0587 14.6797C30.4808 14.982 30.6927 15.3317 30.6942 15.729C30.702 16.1434 30.4987 16.4802 30.0843 16.7392C29.6678 17.0035 29.1594 17.1173 28.5593 17.0805C27.9714 17.0626 27.4655 16.9004 27.0417 16.5938C26.6297 16.2947 26.4174 15.9401 26.4047 15.5302C26.4103 15.1272 26.6186 14.7902 27.0296 14.519C27.4496 14.2668 27.9529 14.1534 28.5396 14.1787C29.1387 14.2093 29.6451 14.3763 30.0587 14.6797ZM22.8882 14.1368C23.4237 14.4516 23.7032 14.8213 23.7266 15.2461C23.7481 15.667 23.5066 16.0254 23.0021 16.3215C23.0029 16.3288 22.9984 16.3339 22.9885 16.3369C22.5119 16.618 21.9257 16.7607 21.23 16.7651C21.2096 16.7642 21.184 16.7609 21.1533 16.7553L21.1382 16.7563L20.6209 16.7303C20.1262 16.6615 19.6384 16.4788 19.1576 16.1822C18.725 15.8911 18.4991 15.5519 18.4799 15.1646C18.4593 14.7582 18.6762 14.4061 19.1305 14.1083C19.1552 14.1025 19.1743 14.0916 19.1878 14.0757C19.3227 14.0048 19.4623 13.9381 19.6067 13.8756C20.0183 13.7247 20.4904 13.6519 21.0231 13.6572C21.4519 13.6667 21.8468 13.7293 22.2078 13.8451L22.5533 13.9688L22.7275 14.0451C22.7855 14.0789 22.8391 14.1094 22.8882 14.1368ZM17.9567 15.0809L17.9717 15.08C17.9748 15.1016 17.9767 15.1208 17.9775 15.1377L17.9567 15.0809Z" fill="#990000"/>
<path fill-rule="evenodd" clip-rule="evenodd" d="M13.5944 17.271C13.514 17.0681 13.4252 16.8859 13.3281 16.7244C13.3303 16.7246 13.3299 16.7195 13.3269 16.7093C13.2705 16.6416 13.2115 16.5687 13.15 16.4906C13.1526 16.4904 13.1522 16.4854 13.1488 16.4756C12.913 16.1236 12.5982 15.9157 12.2043 15.8519C11.8475 15.8053 11.5665 15.8975 11.3614 16.1283C11.1174 16.4384 10.996 16.8002 10.997 17.2139C11.0098 17.3701 11.0328 17.5299 11.066 17.6934C11.1887 18.2296 11.4268 18.687 11.7802 19.0654C12.111 19.4096 12.4599 19.5759 12.8271 19.5643C13.1206 19.5515 13.4516 19.3467 13.82 18.9499L13.8255 18.814C13.8442 18.787 13.8579 18.7563 13.8664 18.7218C13.9278 18.4838 13.9396 18.222 13.9019 17.9365L13.9007 17.9214C13.8623 17.9076 13.8334 17.8786 13.814 17.8346C13.7125 17.5555 13.6393 17.3676 13.5944 17.271ZM11.5128 16.8456C11.8049 15.9793 12.3487 16.1123 13.1442 17.2446C12.5167 16.9797 11.9934 17.1825 11.5745 17.853C11.4614 17.4964 11.4408 17.1606 11.5128 16.8456Z" fill="#DC9752"/>
<path fill-rule="evenodd" clip-rule="evenodd" d="M13.1582 17.2527C12.358 16.1163 11.8109 15.9828 11.517 16.8523C11.4446 17.1684 11.4654 17.5054 11.5792 17.8633C12.0006 17.1904 12.5269 16.9868 13.1582 17.2527Z" fill="#AC6C2D"/>
<path fill-rule="evenodd" clip-rule="evenodd" d="M14.1055 17.8686C14.1302 17.8318 14.1324 17.7915 14.1122 17.7477C14.01 17.4624 13.9364 17.2695 13.8913 17.1689C13.802 16.9431 13.7064 16.7411 13.6043 16.5627C13.6019 16.5627 13.5962 16.5579 13.5872 16.5483C13.537 16.4798 13.4833 16.4066 13.4261 16.3289C13.4233 16.3291 13.4176 16.3243 13.409 16.3145C13.12 15.8833 12.7319 15.6282 12.2448 15.549C11.7608 15.49 11.3813 15.6215 11.1061 15.9435C10.8167 16.3073 10.6732 16.7305 10.6757 17.213L10.6769 17.228C10.6892 17.393 10.7134 17.5679 10.7494 17.7527C10.8844 18.3414 11.1474 18.8431 11.5383 19.2577C11.9508 19.687 12.3931 19.8846 12.8653 19.8505C13.3478 19.8248 13.6663 19.5249 13.8208 18.9511C13.4521 19.348 13.1209 19.5528 12.8273 19.5656C12.4599 19.5773 12.1107 19.411 11.7798 19.0666C11.4261 18.6881 11.1879 18.2306 11.0652 17.6943C11.0319 17.5307 11.0089 17.3709 10.9961 17.2146C10.9951 16.8009 11.1166 16.439 11.3607 16.1288C11.5659 15.8979 11.8471 15.8057 12.2042 15.8523C12.5982 15.9161 12.9133 16.124 13.1492 16.4762C13.1526 16.486 13.153 16.491 13.1503 16.4912C13.2119 16.5693 13.2709 16.6422 13.3274 16.71C13.3304 16.7202 13.3307 16.7252 13.3286 16.725C13.4257 16.8866 13.5146 17.0688 13.595 17.2717C13.64 17.3684 13.7132 17.5563 13.8147 17.8355C13.8342 17.8796 13.8631 17.9085 13.9015 17.9224L13.9026 17.9374C13.9443 17.9509 13.9816 17.9493 14.0144 17.9327C14.0615 17.9257 14.0919 17.9044 14.1055 17.8686Z" fill="black"/>
<path fill-rule="evenodd" clip-rule="evenodd" d="M22.4375 22.3918C22.4523 22.434 22.4782 22.4601 22.5152 22.4699C22.7472 22.5742 23.0642 22.6048 23.4661 22.5614C23.5095 22.5571 23.544 22.539 23.5697 22.5071C23.5965 22.475 23.6093 22.4361 23.6083 22.3903C23.6054 22.3549 23.5893 22.3244 23.56 22.2988C23.5305 22.2722 23.494 22.2605 23.4503 22.2637C23.1022 22.302 22.8269 22.2785 22.6244 22.1932C22.589 22.1831 22.5511 22.1862 22.5108 22.2024C22.4791 22.2204 22.4531 22.2488 22.4327 22.2876C22.4215 22.3252 22.4231 22.36 22.4375 22.3918ZM23.7547 20.5861L23.7407 20.5855C23.429 20.5503 22.9584 20.5022 22.3289 20.4414C21.7336 20.3848 21.2357 20.2216 20.8351 19.9519C20.8075 19.9376 20.7752 19.931 20.7381 19.9322C20.7121 19.9363 20.6874 19.9499 20.6639 19.9731C20.6388 19.9945 20.6226 20.0185 20.6152 20.045C20.6089 20.0837 20.6105 20.1184 20.6201 20.1491C20.7114 20.3494 20.8932 20.6306 21.1656 20.9927C21.1748 20.9957 21.1795 20.996 21.1797 20.9934C21.2515 21.0685 21.3296 21.1417 21.414 21.2128L21.4268 21.2283C21.4395 21.2465 21.4569 21.2622 21.479 21.2754C21.4877 21.2831 21.4919 21.2883 21.4917 21.2909C21.7718 21.4998 22.1528 21.6572 22.6345 21.7631C23.3111 21.9074 23.9112 21.8728 24.435 21.6591C24.451 21.6561 24.4655 21.6518 24.4785 21.6464C24.6182 21.6111 24.7588 21.5636 24.9002 21.5039C24.9383 21.489 24.9644 21.4606 24.9783 21.4187C24.9984 21.3869 25.0015 21.3524 24.9875 21.3152C24.9751 21.2758 24.9496 21.2449 24.9111 21.2223C24.8808 21.2126 24.8476 21.2159 24.8115 21.2323C24.7525 21.2573 24.6942 21.2791 24.6364 21.2978L24.6377 21.2831C24.6491 21.1554 24.6593 20.9876 24.6684 20.7798C24.7448 20.7564 24.8223 20.7305 24.901 20.7022C24.9393 20.6961 24.9696 20.6729 24.9918 20.6324C25.0117 20.6023 25.0148 20.5678 25.001 20.529C24.997 20.4889 24.9762 20.4582 24.9387 20.4368C24.9109 20.4173 24.8785 20.4107 24.8417 20.4172C24.723 20.4558 24.6072 20.4897 24.4941 20.5188C24.4846 20.5275 24.4744 20.5368 24.4634 20.5469C24.2566 20.6134 24.0203 20.6265 23.7547 20.5861ZM23.4849 21.2409L24.3235 21.3269C24.3234 21.3578 24.3212 21.3824 24.3169 21.4008C23.8458 21.5771 23.3078 21.6 22.7029 21.4695C22.3556 21.3933 22.0644 21.2849 21.8292 21.1443C22.2641 21.1214 22.816 21.1536 23.4849 21.2409ZM23.7003 20.8804C23.9528 20.9154 24.1793 20.9068 24.3796 20.8546C24.3762 20.9855 24.3713 21.0941 24.3648 21.1805L23.5121 21.0938C22.7238 20.9902 22.0962 20.9642 21.629 21.0156C21.6228 21.0097 21.6138 21.0043 21.6023 20.9994C21.5244 20.9288 21.4509 20.8558 21.382 20.7807L21.3947 20.7961C21.3071 20.6778 21.2274 20.5699 21.1555 20.4725C21.4899 20.6082 21.8676 20.6961 22.2886 20.7364C22.9132 20.7967 23.3838 20.8447 23.7003 20.8804Z" fill="black"/>
<path fill-rule="evenodd" clip-rule="evenodd" d="M23.7018 20.8836C23.3837 20.8473 22.9108 20.7985 22.2832 20.7371C21.8602 20.6962 21.4806 20.6067 21.1445 20.4688C21.2168 20.5678 21.2969 20.6775 21.3849 20.7979L21.3721 20.7822C21.4414 20.8586 21.5152 20.9328 21.5935 21.0047C21.6051 21.0096 21.6141 21.0151 21.6204 21.0211C22.0898 20.9688 22.7206 20.9954 23.5127 21.1007L24.3695 21.1889C24.3761 21.101 24.381 20.9905 24.3845 20.8574C24.1831 20.9105 23.9556 20.9193 23.7018 20.8836ZM24.3281 21.3378L23.4854 21.2504C22.8132 21.1615 22.2586 21.1288 21.8215 21.152C22.0579 21.295 22.3506 21.4053 22.6995 21.4829C23.3074 21.6156 23.8481 21.5923 24.3215 21.413C24.3257 21.3943 24.3279 21.3692 24.3281 21.3378Z" fill="white"/>
<path fill-rule="evenodd" clip-rule="evenodd" d="M21.1062 14.5227C21.0596 14.4206 20.9863 14.3411 20.8864 14.2844C20.7896 14.2288 20.6863 14.2134 20.5763 14.2381C20.4503 14.2671 20.3495 14.3318 20.2742 14.4323C20.1659 14.5773 20.0929 14.7359 20.0553 14.9082C20.0183 15.0799 20.0053 15.2525 20.0163 15.426C20.0235 15.5453 20.0509 15.6609 20.0984 15.7727C20.1518 15.7609 20.2055 15.7511 20.2594 15.7433C20.3831 15.7291 20.507 15.728 20.6312 15.74C20.7523 15.7492 20.8711 15.7642 20.9875 15.7853C21.0101 15.7548 21.0302 15.7223 21.048 15.6878C21.1124 15.5649 21.1576 15.437 21.1834 15.3039C21.2072 15.1794 21.2156 15.0546 21.2085 14.9296C21.2014 14.8092 21.1759 14.6928 21.132 14.5804C21.1234 14.5609 21.1148 14.5417 21.1062 14.5227Z" fill="black"/>
<path fill-rule="evenodd" clip-rule="evenodd" d="M27.9545 14.9341C27.9131 14.8321 27.8479 14.7528 27.7587 14.6962C27.6723 14.6408 27.5799 14.6256 27.4814 14.6504C27.3686 14.6796 27.2782 14.7444 27.2104 14.8449C27.1131 14.99 27.0473 15.1487 27.0131 15.3209C26.9794 15.4925 26.9672 15.6651 26.9764 15.8385C26.9825 15.9577 27.0066 16.0732 27.0488 16.1849C27.0966 16.173 27.1446 16.1632 27.1928 16.1553C27.3036 16.1409 27.4145 16.1396 27.5255 16.1515C27.6338 16.1604 27.7401 16.1753 27.8442 16.1962C27.8645 16.1657 27.8826 16.1332 27.8986 16.0986C27.9566 15.9758 27.9974 15.8478 28.0211 15.7148C28.0427 15.5903 28.0506 15.4655 28.0447 15.3406C28.0387 15.2203 28.0163 15.104 27.9775 14.9917C27.9698 14.9722 27.9622 14.953 27.9545 14.9341Z" fill="black"/>
<path fill-rule="evenodd" clip-rule="evenodd" d="M20.6337 14.8031C20.6358 14.7388 20.6147 14.6835 20.5706 14.6372C20.5267 14.5911 20.4727 14.5677 20.4085 14.5668C20.3443 14.5658 20.2887 14.5878 20.2416 14.6326C20.1947 14.6776 20.1703 14.7323 20.1682 14.7966C20.1661 14.8609 20.187 14.9161 20.2308 14.9621C20.275 15.0085 20.3291 15.0321 20.3933 15.033C20.4575 15.0339 20.513 15.0118 20.5599 14.9667C20.607 14.922 20.6316 14.8674 20.6337 14.8031Z" fill="white"/>
<path fill-rule="evenodd" clip-rule="evenodd" d="M27.579 15.2445C27.5811 15.1802 27.5601 15.1249 27.5159 15.0786C27.4721 15.0325 27.418 15.0091 27.3538 15.0082C27.2896 15.0073 27.234 15.0292 27.1869 15.074C27.1401 15.119 27.1156 15.1737 27.1135 15.238C27.1114 15.3023 27.1323 15.3575 27.1762 15.4035C27.2203 15.4499 27.2745 15.4735 27.3386 15.4744C27.4028 15.4753 27.4584 15.4532 27.5052 15.4082C27.5523 15.3634 27.5769 15.3088 27.579 15.2445Z" fill="white"/>
<path fill-rule="evenodd" clip-rule="evenodd" d="M30.9455 12.9749C30.9594 12.9309 30.9562 12.8856 30.936 12.839C30.4898 11.871 29.6695 11.4391 28.4749 11.5433C28.4363 11.5519 28.4011 11.5741 28.3693 11.6098C28.3432 11.6474 28.3292 11.688 28.3272 11.7314C28.3347 11.7807 28.3554 11.8172 28.3894 11.8409C28.4249 11.8766 28.4635 11.8907 28.5052 11.8832C29.5414 11.7909 30.2551 12.158 30.6464 12.9845C30.6645 13.0321 30.694 13.0642 30.7349 13.0807C30.777 13.0947 30.8161 13.0907 30.8521 13.0687C30.8982 13.0491 30.9293 13.0179 30.9455 12.9749ZM21.8741 11.1019C21.8503 11.0653 21.8163 11.0422 21.772 11.0327C20.3929 10.894 19.4213 11.2973 18.8572 12.2428C18.8369 12.2876 18.8314 12.3328 18.8407 12.3784C18.8496 12.4231 18.8705 12.455 18.9032 12.4743C18.9455 12.504 18.9886 12.5136 19.0324 12.5032C19.0752 12.4932 19.1062 12.4665 19.1254 12.4229C19.637 11.5996 20.5076 11.2492 21.7373 11.3717C21.7812 11.3803 21.8205 11.3673 21.8552 11.3325C21.8906 11.3072 21.9089 11.2712 21.91 11.2246C21.9189 11.1787 21.9069 11.1378 21.8741 11.1019Z" fill="black"/>
<defs>
<linearGradient id="paint0_linear_827_1145" x1="19.0725" y1="14.1384" x2="21.3104" y2="17.5817" gradientUnits="userSpaceOnUse">
<stop stop-color="#DD9A57"/>
<stop offset="1" stop-color="#C8C19B"/>
</linearGradient>
<linearGradient id="paint1_linear_827_1145" x1="26.91" y1="14.5555" x2="30.4641" y2="16.7295" gradientUnits="userSpaceOnUse">
<stop stop-color="#DD9A57"/>
<stop offset="1" stop-color="#C8C19B"/>
</linearGradient>
<linearGradient id="paint2_linear_827_1145" x1="30.6713" y1="16.3535" x2="31.5789" y2="15.5995" gradientUnits="userSpaceOnUse">
<stop stop-color="#456162"/>
<stop offset="1" stop-color="#343F40"/>
</linearGradient>
<linearGradient id="paint3_linear_827_1145" x1="29.9563" y1="16.8371" x2="31.4341" y2="15.0459" gradientUnits="userSpaceOnUse">
<stop stop-color="#CCD2B7"/>
<stop offset="1" stop-color="#E1C29A"/>
</linearGradient>
</defs>
</svg>
