<svg width="324" height="134" viewBox="0 0 324 134" fill="none" xmlns="http://www.w3.org/2000/svg">
<path d="M327.926 175.234L162.8 159.343C149.654 148.866 137.331 136.876 125.993 123.531C130.73 116.438 151.101 102.21 155.028 102.761C156.815 103.012 158.711 103.256 160.405 102.746C161.527 102.36 162.589 101.741 163.546 100.916C167.779 97.6279 171.706 93.7674 175.255 89.405C175.676 88.7981 176.213 88.3321 176.817 88.0498C178.27 87.461 179.974 88.2685 181.297 89.0205C188.124 92.872 195.18 96.0644 202.402 98.5696C203.067 98.8411 203.761 98.9923 204.461 99.0183C205.371 98.9462 206.262 98.6528 207.082 98.1548C216.916 93.0816 226.993 88.7672 237.254 85.2364C239.121 84.6 241.104 84.7542 242.892 85.6745L257.868 93.9271C259.656 94.8528 261.674 94.8076 263.435 93.8024C269.204 90.2182 274.974 86.6339 280.743 83.0495C281.431 82.5566 282.193 82.2468 282.983 82.1396C284.046 82.1477 285.087 82.5109 285.998 83.1913C290.48 85.9425 294.823 89.0284 299.005 92.4319C305.749 97.863 314.452 115.621 316.609 125.24L327.926 175.234Z" fill="#D0C4FF"/>
<path d="M232.25 88.7844H232.258C232.409 88.7815 232.552 88.7046 232.656 88.5706C232.761 88.4366 232.819 88.2565 232.816 88.0698C232.794 86.2149 232.771 83.5614 232.749 80.9952C232.727 78.4276 232.704 75.7725 232.681 73.9146C232.675 73.5276 232.418 73.2199 232.106 73.2257C231.795 73.2316 231.546 73.5488 231.548 73.9358C231.571 75.7907 231.594 78.4442 231.616 81.0104C231.638 83.578 231.661 86.2331 231.683 88.091C231.688 88.4755 231.94 88.7844 232.25 88.7844Z" fill="#D0C4FF"/>
<path d="M233.819 74.1063L234.122 74.7582C234.459 75.4833 234.459 76.3766 234.122 77.1017C233.785 77.8267 233.163 78.2734 232.489 78.2734H231.883C231.209 78.2734 230.586 77.8267 230.25 77.1017C229.913 76.3766 229.913 75.4833 230.25 74.7582L230.552 74.1063C230.889 73.3812 231.512 72.9346 232.186 72.9346C232.86 72.9346 233.482 73.3812 233.819 74.1063Z" fill="#D0C4FF"/>
<path d="M232.675 74.0749L236.276 81.8227C236.377 82.0407 236.377 82.3093 236.276 82.5273C236.174 82.7453 235.987 82.8796 235.784 82.8796H228.584C228.381 82.8796 228.194 82.7453 228.093 82.5273C227.992 82.3093 227.992 82.0407 228.093 81.8227L231.693 74.0749C231.794 73.8569 231.982 73.7227 232.184 73.7227C232.387 73.7227 232.574 73.8569 232.675 74.0749Z" fill="#D0C4FF"/>
<path d="M262.944 109.248C258.61 110.108 253.812 108.131 251.283 103.674C248.754 99.2177 249.087 92.3536 252.456 88.8585C253.359 87.9216 254.526 87.052 254.675 85.602C254.694 84.7754 254.541 83.9568 254.23 83.2255C253.034 79.6256 252.238 75.7148 252.606 71.8475C252.975 67.9801 254.663 64.1649 257.441 62.3627C261.392 59.8 266.588 62.0765 269.282 66.4878C271.976 70.8991 272.531 76.8509 271.918 82.3359C271.763 83.728 271.568 85.2791 272.219 86.4281C272.781 87.206 273.494 87.7922 274.29 88.131C277.296 89.9172 279.717 92.9329 281.147 96.6728C282.335 99.8078 282.696 103.771 281.055 106.573C279.948 108.462 278.136 109.494 276.348 110.216C272.386 111.809 268.186 112.266 264.062 111.553L262.944 109.248Z" fill="#BEE09B"/>
<path d="M251.283 103.674C248.754 99.2177 249.088 92.3537 252.456 88.8586C253.359 87.9216 254.526 87.0521 254.676 85.6021C254.694 84.7755 254.541 83.9568 254.23 83.2255C253.35 80.6976 252.789 78.016 252.567 75.2754C254.267 77.0847 256.264 78.4105 258.419 79.1601C261.201 80.0899 264.512 80.1458 266.321 82.932C267.682 85.0289 267.701 88.0368 268.81 90.352C271.19 95.3223 277.127 95.0183 281.37 97.3009C282.374 100.324 282.588 103.955 281.055 106.573C279.948 108.462 278.136 109.494 276.348 110.216C272.386 111.809 268.186 112.266 264.062 111.553L262.944 109.249C258.61 110.108 253.812 108.131 251.283 103.674Z" fill="black" fill-opacity="0.1"/>
<path d="M263.18 121.946C263.191 121.946 263.202 121.946 263.213 121.945C263.775 121.935 264.311 121.647 264.702 121.146C265.094 120.645 265.309 119.971 265.301 119.272C265.248 114.942 265.195 108.746 265.143 102.754C265.091 96.7554 265.038 90.553 264.985 86.2119C264.967 84.7574 264.004 83.5959 262.833 83.6175C261.662 83.6397 260.728 84.8366 260.745 86.2912C260.798 90.6214 260.851 96.8177 260.903 102.81C260.955 108.808 261.008 115.01 261.061 119.351C261.078 120.79 262.022 121.945 263.18 121.946Z" fill="#735552"/>
<path d="M263.18 108.233C263.672 108.233 264.149 108.02 264.528 107.63L271.214 100.775C272.117 99.8492 272.245 98.189 271.499 97.0669C270.754 95.9449 269.418 95.786 268.515 96.7119L261.829 103.567C261.139 104.275 260.881 105.444 261.184 106.49C261.486 107.536 262.285 108.234 263.18 108.233Z" fill="#735552"/>
<path d="M298.606 138.239C293.261 133.623 279.641 120.995 273.759 117.271C271.771 116.012 269.677 114.78 267.395 114.592C264.504 114.353 261.749 115.809 258.929 116.555C249.293 119.106 239.54 113.302 231.504 106.871C223.467 100.44 215.467 92.9027 205.668 91.2896C197.484 89.9423 189.19 93.008 181.876 97.3029C174.562 101.598 167.881 107.136 160.521 111.334C158.581 112.441 156.501 113.476 154.321 113.386C152.223 113.298 150.391 111.469 148.291 111.469C131.441 111.469 126.247 131.524 118.807 142.583C111.367 153.642 104.873 165.675 95.6776 174.966H327.926" fill="#499E84"/>
<path d="M279.436 175.233H220.417C222.642 168.252 224.581 160.605 226.698 153.377C226.844 152.878 226.988 152.36 227.131 151.825C227.7 151.038 228.384 150.392 229.147 149.923C230.506 149.133 231.92 149.209 233.291 148.568C240.05 145.402 244.62 125.647 251.493 125.55C254.189 125.513 256.741 128.646 259.423 129.354C263.04 130.308 266.812 126.844 270.267 129.73C272.16 131.31 273.769 134.679 275.677 136.133C277.817 137.763 280.117 136.839 282.336 137.475C286.714 138.731 290.699 146.61 292.267 157.11C292.836 160.92 293.023 165.742 291.891 168.62C291.42 169.882 290.542 170.836 289.473 171.248C287.633 172.065 285.752 172.076 283.9 172.703C282.326 173.289 280.824 174.141 279.436 175.233Z" fill="black" fill-opacity="0.1"/>
<path d="M137.254 48.1779H137.268C137.514 48.1732 137.748 48.0477 137.919 47.8289C138.089 47.6101 138.183 47.3159 138.18 47.011C138.143 43.9819 138.105 39.6485 138.069 35.4578C138.033 31.2647 137.996 26.9288 137.959 23.8947C137.95 23.2608 137.53 22.7554 137.02 22.7648C136.51 22.7745 136.102 23.2954 136.109 23.9293C136.145 26.9584 136.183 31.2918 136.219 35.4825C136.255 39.6756 136.293 44.0116 136.329 47.0457C136.337 47.6736 136.749 48.1779 137.254 48.1779Z" fill="#A58FFF"/>
<path d="M138.778 21.9823L141.341 27.4975C141.678 28.2226 141.678 29.1159 141.341 29.841C141.004 30.5661 140.381 31.0127 139.708 31.0127H134.582C133.908 31.0127 133.285 30.5661 132.948 29.841C132.612 29.1159 132.612 28.2226 132.948 27.4975L135.511 21.9823C135.848 21.2572 136.471 20.8105 137.145 20.8105C137.819 20.8105 138.441 21.2572 138.778 21.9823Z" fill="#A58FFF"/>
<path d="M137.95 24.1573L143.829 36.8099C143.994 37.1659 143.994 37.6045 143.829 37.9605C143.664 38.3165 143.358 38.5358 143.027 38.5358H131.268C130.937 38.5358 130.632 38.3165 130.466 37.9605C130.301 37.6045 130.301 37.1659 130.466 36.8099L136.346 24.1573C136.511 23.8013 136.817 23.582 137.148 23.582C137.479 23.582 137.784 23.8013 137.95 24.1573Z" fill="#A58FFF"/>
<path d="M159.313 78.882C158.751 79.8212 160.028 81.2626 160.727 80.4782C158.724 71.623 156.339 62.7026 151.932 55.3111C147.526 47.9197 140.754 42.1896 133.352 42.0255C131.129 41.9762 128.81 42.4029 126.75 41.363C124.952 40.4555 123.619 38.5568 122.385 36.6962C118.767 31.2416 106.112 11.3815 99.8957 1.61178C99.1547 0.44724 97.9777 -0.151501 96.7921 0.0329415C95.6066 0.217384 94.5847 1.15819 94.0977 2.51379C89.3427 15.7313 78.5266 45.6239 74.4026 55.5777L67.8221 87.2048L132.953 150.122L160.727 80.4782" fill="#A58FFF"/>
<path d="M128.793 86.0197H128.807C129.053 86.015 129.287 85.8895 129.458 85.6707C129.628 85.4519 129.722 85.1577 129.719 84.8528C129.682 81.8237 129.644 77.4903 129.608 73.2996C129.572 69.1065 129.535 64.7706 129.498 61.7365C129.489 61.1026 129.069 60.5972 128.559 60.6066C128.049 60.6163 127.641 61.1372 127.648 61.7711C127.684 64.8003 127.722 69.1336 127.758 73.3243C127.794 77.5175 127.832 81.8534 127.868 84.8875C127.876 85.5154 128.288 86.0197 128.793 86.0197Z" fill="#D0C4FF"/>
<path d="M130.317 59.8241L132.88 65.3393C133.217 66.0644 133.217 66.9577 132.88 67.6828C132.543 68.4079 131.921 68.8545 131.247 68.8545H126.121C125.447 68.8545 124.825 68.4079 124.488 67.6828C124.151 66.9577 124.151 66.0644 124.488 65.3393L127.05 59.8241C127.387 59.099 128.01 58.6523 128.684 58.6523C129.358 58.6523 129.98 59.099 130.317 59.8241Z" fill="#D0C4FF"/>
<path d="M129.485 61.9991L135.364 74.6516C135.53 75.0076 135.53 75.4463 135.364 75.8023C135.199 76.1583 134.893 76.3776 134.562 76.3776H122.803C122.473 76.3776 122.167 76.1583 122.001 75.8023C121.836 75.4463 121.836 75.0076 122.001 74.6516L127.881 61.9991C128.046 61.6431 128.352 61.4238 128.683 61.4238C129.014 61.4238 129.319 61.6431 129.485 61.9991Z" fill="#D0C4FF"/>
<path d="M108.203 95.6215H108.218C108.463 95.6168 108.697 95.4913 108.868 95.2725C109.039 95.0537 109.133 94.7594 109.129 94.4546C109.092 91.4255 109.055 87.0921 109.019 82.9014C108.982 78.7083 108.945 74.3724 108.908 71.3383C108.903 70.9276 108.722 70.5515 108.433 70.3515C108.145 70.1516 107.792 70.1582 107.508 70.3688C107.225 70.5795 107.053 70.9623 107.058 71.3729C107.095 74.402 107.132 78.7354 107.168 82.9261C107.204 87.1192 107.242 91.4551 107.279 94.4892C107.286 95.1172 107.698 95.6215 108.203 95.6215Z" fill="#D0C4FF"/>
<path d="M109.731 69.4256L112.294 74.9409C112.631 75.666 112.631 76.5593 112.294 77.2843C111.957 78.0094 111.335 78.4561 110.661 78.4561H105.535C104.861 78.4561 104.239 78.0094 103.902 77.2843C103.565 76.5593 103.565 75.666 103.902 74.9409L106.464 69.4256C106.801 68.7006 107.424 68.2539 108.098 68.2539C108.772 68.2539 109.394 68.7006 109.731 69.4256Z" fill="#D0C4FF"/>
<path d="M108.899 71.6007L114.778 84.2532C114.944 84.6092 114.944 85.0478 114.778 85.4039C114.613 85.7599 114.307 85.9792 113.976 85.9792H102.217C101.887 85.9792 101.581 85.7599 101.415 85.4039C101.25 85.0478 101.25 84.6092 101.415 84.2532L107.295 71.6007C107.46 71.2447 107.766 71.0254 108.097 71.0254C108.428 71.0254 108.733 71.2447 108.899 71.6007Z" fill="#D0C4FF"/>
<path d="M234.08 170.322C233.51 152.198 235.182 129.497 233.543 111.474C232.816 103.478 231.958 95.3722 229.388 87.9856C221.765 66.0767 197.881 55.763 180.965 67.076C172.046 73.0414 164.863 83.9837 154.813 85.5657C144.741 87.1513 134.807 78.6255 124.824 80.9278C115.928 82.9795 109.811 92.8722 104.573 102.038L76.7253 108.576L139.025 170.181L234.08 170.322Z" fill="#499E84"/>
<path d="M108.202 25.1863L101.419 17.8102C99.1056 21.4457 97.1118 25.378 95.4715 29.5402C95.1917 27.4102 94.7138 25.3277 94.0473 23.3347C93.9195 22.9527 93.746 22.5306 93.4246 22.4223C93.1561 22.3756 92.883 22.4505 92.6553 22.6334C89.9022 24.3276 87.2446 26.2512 84.7004 28.391C88.2879 18.6159 91.8602 8.7242 94.0944 2.51377C94.5814 1.15818 95.6033 0.217384 96.7888 0.0329418C97.9744 -0.1515 99.1513 0.447231 99.8924 1.61176C102.456 5.64024 106.113 11.3842 109.781 17.1266C109.255 19.8132 108.728 22.4998 108.202 25.1863Z" fill="#D0C4FF"/>
<path d="M139.031 170.181L99.4855 131.077C99.0526 126.421 99.7658 121.712 101.531 117.57C103.442 113.549 106.185 110.237 109.475 107.978C112.106 106.069 115.088 104.65 118.129 104.881C124.984 105.401 129.777 113.771 136.35 116.245C145.225 119.587 154.17 111.514 163.408 110.504C172.182 109.544 180.455 114.985 188.658 118.974C196.86 122.963 206.786 125.353 213.989 119.053C217.268 116.186 219.766 111.665 223.626 110.317C226.642 109.263 229.967 110.462 232.481 112.785C232.929 113.2 235.372 117.57 236.353 128.687C237.333 139.803 233.543 153.075 234.086 170.323L139.031 170.181Z" fill="black" fill-opacity="0.1"/>
<path d="M125.996 134L121.476 127.535C113.06 123.912 107.224 109.477 102.624 100C96.9542 88.3195 91.9204 80.2147 85.7877 68.9009C79.6549 57.587 69.9346 50.6913 59.7033 45.745C49.4719 40.7987 39.5745 44.0518 31.8703 53.7695C25.866 61.343 26.8416 70.1293 16.1005 75.0606C5.35936 79.9919 1.68684 120.65 0.00834656 134C-0.257774 136.116 41.7381 136.116 125.996 134Z" fill="#9ACC67"/>
<path d="M46.7276 71.025C37.4136 73.6091 37.5994 83.0148 31.8775 85.9788C27.1538 88.4258 21.5898 85.9345 17.2862 89.3759C14.2659 91.791 9.55965 98.5777 3.16763 109.736C5.48308 89.407 9.64973 77.8824 15.6675 75.1619C24.6942 71.0811 27.4533 59.3708 33.4576 51.7973C41.1619 42.0796 50.9849 41.5112 61.2162 46.4575C71.4476 51.4038 80.4638 58.8914 86.5965 70.2053C90.8759 78.0999 94.7331 83.3661 98.4023 91.7287C93.4161 84.4897 84.2872 78.7103 76.7296 78.4554C74.0397 78.3647 68.8967 79.8052 66.206 79.7609C56.6635 79.6039 56.0416 68.441 46.7276 71.025Z" fill="#C8DA3E"/>
<path d="M162.178 113.974C155.101 115.379 147.266 112.149 143.136 104.871C139.006 97.5936 139.55 86.3842 145.052 80.6765C146.527 79.1464 148.432 77.7264 148.676 75.3585C148.706 74.0085 148.456 72.6717 147.948 71.4774C145.996 65.5986 144.695 59.212 145.297 52.8964C145.899 46.5809 148.655 40.3504 153.192 37.4072C159.644 33.2222 168.13 36.9399 172.53 44.1438C176.929 51.3478 177.834 61.0674 176.835 70.0247C176.581 72.2981 176.262 74.8311 177.325 76.7075C178.113 78.098 179.471 78.7599 180.708 79.4885C185.617 82.4054 189.571 87.3302 191.905 93.4377C193.846 98.5574 194.435 105.03 191.755 109.606C189.948 112.69 186.988 114.376 184.068 115.554C177.599 118.156 170.739 118.903 164.005 117.738L162.178 113.974Z" fill="#C8DA3E"/>
<path d="M143.136 104.782C139.006 97.5045 139.551 86.2951 145.052 80.5874C146.527 79.0573 148.433 77.6373 148.676 75.2694C148.707 73.9195 148.456 72.5826 147.949 71.3883C146.511 67.2601 145.595 62.8808 145.233 58.4053C148.008 61.3599 151.27 63.5251 154.79 64.7492C159.333 66.2677 164.739 66.359 167.693 70.909C169.916 74.3334 169.948 79.2454 171.759 83.0263C175.645 91.143 185.34 90.6466 192.269 94.3742C193.909 99.3105 194.259 105.242 191.755 109.516C189.948 112.601 186.988 114.287 184.068 115.465C177.599 118.067 170.739 118.814 164.005 117.649L162.178 113.885C155.101 115.29 147.267 112.06 143.136 104.782Z" fill="black" fill-opacity="0.1"/>
<path d="M162.569 133.094H162.602C163.175 133.083 163.721 132.79 164.12 132.279C164.52 131.768 164.739 131.081 164.73 130.369C164.644 123.296 164.557 113.177 164.473 103.392C164.388 93.5962 164.301 83.4675 164.215 76.3797C164.197 74.9132 163.235 73.7354 162.055 73.7354H162.021C160.828 73.7581 159.875 74.9781 159.893 76.4606C159.979 83.5368 160.067 93.6595 160.151 103.449C160.236 113.24 160.323 123.365 160.409 130.45C160.427 131.916 161.388 133.094 162.569 133.094Z" fill="#735552"/>
<path d="M162.571 110.7C163.072 110.701 163.558 110.484 163.945 110.086L174.863 98.8917C175.783 97.9479 175.914 96.2556 175.154 95.1119C174.395 93.9682 173.033 93.8061 172.112 94.7498L161.194 105.945C160.491 106.666 160.227 107.858 160.536 108.924C160.845 109.99 161.659 110.701 162.571 110.7Z" fill="#735552"/>
<path d="M237.391 174.318C234.885 162.011 220.669 148.789 210.448 146.531C200.227 144.273 189.329 144.533 180.139 138.623C173.898 134.61 168.856 127.965 162.247 124.957C149.864 119.323 135.483 127.85 122.996 122.567C117.298 121.753 114.249 118.533 110.195 118.563C106.095 118.621 102.235 120.978 99.6929 124.975C99.0244 126.058 98.4591 127.233 98.0084 128.478C92.0605 144.717 80.7911 157.161 67.1956 163.559L52.3463 170.547L173.737 174.357L224.1 174.318H237.391Z" fill="#FFFF1C"/>
</svg>
