<svg width="27" height="27" viewBox="0 0 27 27" fill="none" xmlns="http://www.w3.org/2000/svg">
    <path fill-rule="evenodd" clip-rule="evenodd" d="M25.891 19.337c-1.005 0-2.578.603-3.33 1.465-1.019-.892-3.227-1.649-5.261-2.137-.74-1.114-.805-1.974-.736-2.484a.424.424 0 0 0-.505-.473c-1.327.268-2.056 1.436-2.437 2.372l-.052-.001c-2.055 0-5.02 1.664-5.02 3.716 0 2.052 2.965 3.716 5.02 3.716.069 0 .144-.002.225-.005.742.399 1.61.644 2.249.644.785 0 .401-.368-.063-.94 2.308-.442 5.335-1.332 6.58-2.423.752.863 2.325 1.466 3.33 1.466 1.36 0-.784-1.1-.784-2.458s2.144-2.458.784-2.458zm-15.041 2.5a.568.568 0 1 1-.001-1.135.568.568 0 0 1 0 1.135z" fill="#fff"/>
    <path fill-rule="evenodd" clip-rule="evenodd" d="M1.352 5.684c1.119 0 2.87.667 3.706 1.62 1.133-.986 3.59-1.823 5.854-2.362.824-1.232.895-2.182.819-2.746a.467.467 0 0 1 .145-.405.476.476 0 0 1 .417-.117c1.476.295 2.288 1.587 2.712 2.621l.058-.001c2.287 0 5.586 1.839 5.586 4.107 0 2.269-3.299 4.108-5.586 4.108-.077 0-.16-.003-.25-.007-.826.441-1.792.713-2.503.713-.874 0-.447-.408.07-1.04-2.568-.488-5.936-1.471-7.322-2.677-.837.954-2.587 1.62-3.706 1.62-1.513 0 .873-1.217.873-2.717s-2.386-2.717-.873-2.717zM18.09 8.448a.63.63 0 0 0 .632-.627.63.63 0 0 0-.632-.627.63.63 0 0 0-.632.627.63.63 0 0 0 .632.627z" fill="#F63"/>
    <path fill-rule="evenodd" clip-rule="evenodd" d="M5.8 17.832a1.65 1.65 0 1 0-.001 3.299 1.65 1.65 0 0 0 0-3.3zM8.3 14.718a1.1 1.1 0 1 0 0 2.2 1.1 1.1 0 0 0 0-2.2zM23.162 6.916a1.65 1.65 0 1 0 .001-3.3 1.65 1.65 0 0 0 0 3.3zM25.08 1.995a.825.825 0 1 0 0-1.65.825.825 0 0 0 0 1.65z" fill="#008485"/>
</svg>
