<svg width="60" height="50" viewBox="0 0 236 212" fill="none" xmlns="http://www.w3.org/2000/svg">
<g clip-path="url(#clip0_9_1108)">
<path fill-rule="evenodd" clip-rule="evenodd" d="M213.846 14.3893C201.861 0.10576 180.35 -1.75381 166.042 10.2519L87.686 76.0006L143.495 142.511L221.851 76.7628C236.159 64.757 238.061 43.248 226.078 28.9668L213.846 14.3893Z" fill="#EFA6A9"/>
<path fill-rule="evenodd" clip-rule="evenodd" d="M10.5137 185.005C-1.47157 170.722 0.432386 149.215 14.7403 137.209L93.0965 71.4607L148.906 137.971L70.5495 203.72C56.2416 215.726 34.729 213.864 22.7457 199.583L10.5137 185.005Z" fill="#EFA6A9"/>
<path fill-rule="evenodd" clip-rule="evenodd" d="M215.953 81.3203L78.8673 196.349L23.06 129.841L160.146 14.8118L215.953 81.3203Z" fill="#E4939A"/>
<path fill-rule="evenodd" clip-rule="evenodd" d="M199.486 95.5293L95.1149 183.107L38.5404 115.685L142.912 28.1066L199.486 95.5293Z" fill="#C0DDFF"/>
<path fill-rule="evenodd" clip-rule="evenodd" d="M127.547 40.905L143.35 142.633L199.486 95.5294L142.912 28.1066L127.547 40.905Z" fill="#4A90E2"/>
</g>
<defs>
<clipPath id="clip0_9_1108">
<rect width="236" height="212" fill="white"/>
</clipPath>
</defs>
</svg>
