<svg width="70" height="46" viewBox="0 0 475 309" fill="none" xmlns="http://www.w3.org/2000/svg">
<g clip-path="url(#clip0_9_1089)">
<path fill-rule="evenodd" clip-rule="evenodd" d="M123.702 151.663L378.158 4.77204C378.572 4.53279 420.239 14.0679 442.222 52.1389C464.206 90.2099 452.548 132.631 452.127 132.874L197.672 279.765L160.687 215.714L123.702 151.663Z" fill="#FFCF3F"/>
<path fill-rule="evenodd" clip-rule="evenodd" d="M429.28 17.9568L466.264 82.0083L216.503 226.19L177.562 244.94L142.192 183.686L429.28 17.9568Z" fill="#343A41"/>
<path fill-rule="evenodd" clip-rule="evenodd" d="M436.943 55.35C436.943 55.35 421.671 25.2234 376.528 4.62476C376.528 4.62476 426.261 -11.1362 457.724 43.3534C489.185 97.8375 450.667 133.021 450.667 133.021C455.394 83.6268 436.943 55.35 436.943 55.35Z" fill="#343A41"/>
<path fill-rule="evenodd" clip-rule="evenodd" d="M123.7 151.666L175.014 164.74L160.684 215.717L211.999 228.791L197.669 279.767L6.15928 304.92L123.7 151.666Z" fill="#FFDFCF"/>
<path fill-rule="evenodd" clip-rule="evenodd" d="M76.1437 296.968L3.98225 306.177L47.5281 247.411L76.1437 296.968Z" fill="#343A41"/>
</g>
<defs>
<clipPath id="clip0_9_1089">
<rect width="475" height="309" fill="white"/>
</clipPath>
</defs>
</svg>
