<svg width="27" height="29" viewBox="0 0 27 29" fill="none" xmlns="http://www.w3.org/2000/svg">
    <path fill-rule="evenodd" clip-rule="evenodd" d="m14.938 21.338 9.64-11.489c.015-.018-.588-2.611-3.053-4.68-2.464-2.067-5.224-2.297-5.24-2.278L6.645 14.38l4.146 3.479 4.146 3.479z" fill="#FFCF3F"/>
    <path fill-rule="evenodd" clip-rule="evenodd" d="m23.74 6.637-4.146-3.48-9.462 11.277-1.233 1.837 3.965 3.327L23.74 6.637z" fill="#E8AE03"/>
    <path fill-rule="evenodd" clip-rule="evenodd" d="M21.315 5.405s1.951 1.514 3.272 4.541c0 0 1.043-2.52-2.485-5.48-3.527-2.96-5.827-1.495-5.827-1.495 3.21.776 5.04 2.434 5.04 2.434z" fill="#E7AE03"/>
    <path fill-rule="evenodd" clip-rule="evenodd" d="m14.938 21.338-.83-3.221-3.316-.258-.83-3.222-3.317-.257-1.707 10.456 10-3.498z" fill="#FFDFCF"/>
    <path fill-rule="evenodd" clip-rule="evenodd" d="m5.48 20.988-.625 3.946 3.834-1.254-3.208-2.692z" fill="#343A41"/>
</svg>
