<svg width="20" height="19" viewBox="0 0 20 19" fill="none" xmlns="http://www.w3.org/2000/svg">
    <mask id="zq77b0gzba" style="mask-type:alpha" maskUnits="userSpaceOnUse" x="0" y="0" width="20" height="19">
        <path d="m10.21 14.601 5.764 3.515-1.53-6.625 5.093-4.458-6.706-.575-2.62-6.249L7.59 6.458l-6.706.575 5.092 4.458-1.53 6.625 5.764-3.515z" fill="#fff"/>
    </mask>
    <g mask="url(#zq77b0gzba)">
        <path d="m10.21 14.601 5.764 3.515-1.53-6.625 5.093-4.458-6.706-.575-2.62-6.249L7.59 6.458l-6.706.575 5.092 4.458-1.53 6.625 5.764-3.515z" fill="#FFCF3F"/>
    </g>
    <mask id="5zwp22y2ab" style="mask-type:alpha" maskUnits="userSpaceOnUse" x="0" y="0" width="11" height="19">
        <path d="M10.21 14.601V.209L7.59 6.458l-6.706.575 5.092 4.458-1.53 6.625 5.764-3.515z" fill="#fff"/>
    </mask>
    <g mask="url(#5zwp22y2ab)">
        <path d="M10.21 14.601V.209L7.59 6.458l-6.706.575 5.092 4.458-1.53 6.625 5.764-3.515z" fill="#F6C431"/>
    </g>
</svg>
