<svg width="24" height="24" viewBox="0 0 24 24" fill="none" xmlns="http://www.w3.org/2000/svg">
    <path fill-rule="evenodd" clip-rule="evenodd" d="M8.998 19.5v-11a.484.484 0 0 0-.14-.359.491.491 0 0 0-.36-.14h-1a.484.484 0 0 0-.5.5v11a.484.484 0 0 0 .5.5h1a.484.484 0 0 0 .5-.5zm4 0v-11a.484.484 0 0 0-.5-.5h-1a.484.484 0 0 0-.5.5v11a.484.484 0 0 0 .5.5h1a.484.484 0 0 0 .5-.5zm3.999 0v-11a.484.484 0 0 0-.5-.5h-1a.484.484 0 0 0-.5.5v11a.484.484 0 0 0 .5.5h1a.484.484 0 0 0 .5-.5zM8.498 4h6.999l-.75-1.828A.438.438 0 0 0 14.481 2H9.53a.442.442 0 0 0-.266.172L8.498 4zm14.497.5v1a.484.484 0 0 1-.14.36.491.491 0 0 1-.36.14h-1.5v14.813c0 .865-.244 1.612-.733 2.242-.49.63-1.078.945-1.766.945H5.5c-.687 0-1.276-.305-1.766-.914-.49-.61-.734-1.346-.733-2.211V5.999H1.5a.484.484 0 0 1-.5-.5v-1c0-.146.047-.265.141-.359A.491.491 0 0 1 1.5 4h4.827L7.42 1.39c.156-.385.437-.713.843-.984C8.671.136 9.082 0 9.498 0h5c.416 0 .827.135 1.233.406.406.27.687.599.844.984L17.669 4h4.826a.484.484 0 0 1 .5.5z" fill="#8A5E18"/>
</svg>
