<svg width="26" height="15" viewBox="0 0 26 15" fill="none" xmlns="http://www.w3.org/2000/svg">
<path fill-rule="evenodd" clip-rule="evenodd" d="M14.3 0.0601604C14.0045 0.040107 13.6205 0.0200535 13.1477 0C12.6947 0 12.35 0.0100267 12.1136 0.0300802C9.71061 0.130348 7.55379 0.721925 5.64318 1.80481C3.43712 3.00802 1.55606 4.81283 0 7.21925C1.55606 9.62567 3.43712 11.4305 5.64318 12.6337C7.24325 13.5238 9.01598 14.0853 10.9614 14.3182C11.3398 14.3779 11.6845 14.4181 11.9955 14.4385C12.3244 14.4741 12.7183 14.4841 13.1773 14.4686C13.6565 14.475 14.0406 14.455 14.3295 14.4084C14.6188 14.3829 14.9142 14.3428 15.2159 14.2881C17.0855 14.0486 18.809 13.4971 20.3864 12.6337C22.5727 11.4305 24.4439 9.62567 26 7.21925C24.4439 4.81283 22.5727 3.00802 20.3864 1.80481C18.5545 0.802139 16.5258 0.220588 14.3 0.0601604ZM9.24773 3.36898C10.2917 2.30615 11.5424 1.78476 13 1.80481C14.4576 1.78476 15.6886 2.29612 16.6932 3.3389C16.7129 3.3389 16.7227 3.34893 16.7227 3.36898C17.7864 4.43182 18.3182 5.70521 18.3182 7.18917C18.3182 8.67313 17.7864 9.94652 16.7227 11.0094C16.7227 11.0294 16.7129 11.0394 16.6932 11.0394C15.6886 12.1023 14.4576 12.6337 13 12.6337C11.5424 12.6337 10.2917 12.1023 9.24773 11.0394C8.18409 9.95655 7.66212 8.67313 7.68182 7.18917C7.66212 5.70521 8.18409 4.43182 9.24773 3.36898ZM14.9205 7.15909C14.9205 6.61765 14.7235 6.15642 14.3295 5.7754C13.975 5.39438 13.5318 5.20388 13 5.20388C12.4682 5.20388 12.0152 5.39438 11.6409 5.7754C11.2667 6.15642 11.0795 6.61765 11.0795 7.15909C11.0795 7.68048 11.2667 8.14171 11.6409 8.54278C12.0152 8.9238 12.4682 9.11431 13 9.11431C13.5318 9.11431 13.975 8.9238 14.3295 8.54278C14.7235 8.14171 14.9205 7.68048 14.9205 7.15909Z" fill="#704C14"/>
</svg>
