<svg width="42" height="42" viewBox="0 0 42 42" fill="none" xmlns="http://www.w3.org/2000/svg">
    <path d="M3.5 15.063V5.374A1.87 1.87 0 0 1 5.375 3.5h9.688a.94.94 0 0 1 .937.938v3.125a.94.94 0 0 1-.938.937H8.5v6.563a.94.94 0 0 1-.938.937H4.438a.94.94 0 0 1-.937-.938zM26 4.437v3.125a.94.94 0 0 0 .938.938H33.5v6.563a.94.94 0 0 0 .938.937h3.124a.94.94 0 0 0 .938-.938V5.376A1.87 1.87 0 0 0 36.625 3.5h-9.688a.94.94 0 0 0-.937.938zM37.563 26h-3.126a.94.94 0 0 0-.937.938V33.5h-6.563a.94.94 0 0 0-.937.938v3.124a.94.94 0 0 0 .938.938h9.687a1.87 1.87 0 0 0 1.875-1.875v-9.688a.94.94 0 0 0-.938-.937zM16 37.563v-3.126a.94.94 0 0 0-.938-.937H8.5v-6.563A.94.94 0 0 0 7.562 26H4.438a.94.94 0 0 0-.937.938v9.687A1.87 1.87 0 0 0 5.375 38.5h9.688a.94.94 0 0 0 .937-.938z" fill="#704C14"/>
</svg>
