<svg width="19" height="15" viewBox="0 0 19 15" fill="none" xmlns="http://www.w3.org/2000/svg">
<path fill-rule="evenodd" clip-rule="evenodd" d="M18.5518 2.77678C18.5518 3.09595 18.4401 3.36724 18.2166 3.59066L9.55117 12.2561L7.9234 13.8839C7.69998 14.1073 7.42869 14.219 7.10952 14.219C6.79034 14.219 6.51905 14.1073 6.29563 13.8839L4.66786 12.2561L0.335129 7.9234C0.111708 7.69998 0 7.42869 0 7.10952C0 6.79034 0.111708 6.51905 0.335129 6.29563L1.9629 4.66786C2.18632 4.44444 2.45761 4.33274 2.77678 4.33274C3.09595 4.33274 3.36724 4.44444 3.59066 4.66786L7.10952 8.19868L14.9611 0.335129C15.1845 0.111708 15.4558 0 15.775 0C16.0942 0 16.3654 0.111708 16.5889 0.335129L18.2166 1.9629C18.4401 2.18632 18.5518 2.45761 18.5518 2.77678Z" fill="#8CC800"/>
</svg>
