<svg width="9" height="17" viewBox="0 0 9 17" fill="none" xmlns="http://www.w3.org/2000/svg">
    <path fill-rule="evenodd" clip-rule="evenodd" d="M6.84 14.525c-.007.002-.56.186-1.04.186-.265 0-.372-.055-.406-.079-.168-.117-.48-.336.054-1.4l1-1.994c.593-1.184.681-2.329.245-3.225-.356-.733-1.039-1.236-1.92-1.416a4.776 4.776 0 0 0-.958-.097C1.966 6.5.721 7.58.67 7.626a.5.5 0 0 0 .493.848c.005-.002.56-.187 1.04-.187.262 0 .368.055.401.078.17.118.482.34-.05 1.402l-1 1.995c-.595 1.185-.682 2.33-.246 3.225.356.733 1.038 1.236 1.921 1.416.314.063.636.097.954.097 1.85 0 3.096-1.08 3.148-1.126a.5.5 0 0 0-.49-.849zM8.5 3.001a2.5 2.5 0 1 1-5 0 2.5 2.5 0 0 1 5 0z" fill="#8A5E18"/>
</svg>
