<?xml version="1.0" standalone="no"?>
<!DOCTYPE svg PUBLIC "-//W3C//DTD SVG 20010904//EN"
 "http://www.w3.org/TR/2001/REC-SVG-20010904/DTD/svg10.dtd">
<svg version="1.0" xmlns="http://www.w3.org/2000/svg"
 width="150.000000pt" height="146.000000pt" viewBox="0 0 150.000000 146.000000"
 preserveAspectRatio="xMidYMid meet">

<g transform="translate(0.000000,146.000000) scale(0.100000,-0.100000)"
 stroke="none" fill="#8B572A">
<path d="M162 1340 c-30 -13 -46 -56 -32 -90 6 -14 51 -66 100 -115 50 -49 90
-98 90 -108 0 -10 -23 -42 -50 -71 -88 -93 -70 -106 145 -106 152 0 156 1 180
25 24 24 25 28 25 180 0 215 -13 233 -106 145 -29 -27 -61 -50 -71 -50 -10 0
-57 39 -103 86 -77 78 -126 115 -147 113 -4 0 -18 -4 -31 -9z"/>
<path d="M1255 1331 c-16 -10 -66 -55 -110 -100 -44 -45 -88 -81 -98 -81 -10
0 -42 23 -71 50 -93 88 -106 70 -106 -145 0 -152 1 -156 25 -180 24 -24 28
-25 180 -25 215 0 233 13 145 106 -27 29 -50 61 -50 71 0 10 40 59 90 108 49
49 94 101 100 115 15 35 -2 77 -35 90 -34 13 -35 13 -70 -9z"/>
<path d="M238 589 c-29 -16 -21 -39 32 -95 28 -29 50 -61 50 -71 0 -10 -40
-59 -90 -108 -49 -49 -94 -101 -100 -115 -24 -58 32 -114 90 -90 14 6 66 51
115 100 49 50 98 90 108 90 10 0 42 -23 71 -50 93 -88 106 -70 106 145 0 152
-1 156 -25 180 -24 24 -27 25 -182 25 -89 0 -166 -5 -175 -11z"/>
<path d="M895 575 c-24 -24 -25 -28 -25 -180 0 -215 13 -233 106 -145 29 28
61 50 71 50 10 0 59 -40 108 -90 49 -49 101 -94 115 -100 58 -24 114 32 90 90
-6 14 -51 66 -100 115 -50 49 -90 98 -90 108 0 10 23 42 50 71 88 93 70 106
-145 106 -152 0 -156 -1 -180 -25z"/>
</g>
</svg>
