<svg width="34" height="34" viewBox="0 0 34 34" fill="none" xmlns="http://www.w3.org/2000/svg">
    <path d="m9.354 12.277 14.8-4.735v2.465l-14.8 4.375v-2.105zM11.489 15.926H25.34v1.866l-15.474.457 1.622-2.323z" fill="#fff"/>
    <path d="m10.767 14.631 15.08-5.066-.792-2.386a.657.657 0 0 0-.832-.418L7.82 12.271a.663.663 0 0 0-.416.838l.389 1.17a1.984 1.984 0 0 0 .378 3.18v9.345a.66.66 0 0 0 .658.661h17.293a.66.66 0 0 0 .657-.661v-11.31H11.085a1.975 1.975 0 0 0-.318-.863zm9.929-5.907 1.996-.67-.48 1.954-1.997.67.48-1.954zm-4.933 1.658 1.997-.671-.48 1.954-1.997.67.48-1.954zM9.13 16.739a1.007 1.007 0 0 1-1.002-1.009c0-.556.45-1.01 1.002-1.01.553 0 1.003.454 1.003 1.01s-.45 1.01-1.002 1.01zm1.701-4.7 1.997-.671-.48 1.954-1.997.67.48-1.953zm1.961 5.69h-2.104l1.07-1.7h2.105l-1.07 1.7zm4.166-1.7h2.105l-1.07 1.7h-2.105l1.07-1.7zm6.234 1.7h-2.105l1.071-1.7h2.105l-1.07 1.7z" fill="#343A41"/>
    <path d="M15.93 24.375v-4.412l3.837 2.206-3.836 2.206z" fill="#fff"/>
</svg>
