<svg width="33" height="33" viewBox="0 0 33 33" fill="none" xmlns="http://www.w3.org/2000/svg">
    <path fill-rule="evenodd" clip-rule="evenodd" d="M16.5 4.95c-6.38 0-11.55 5.17-11.55 11.55 0 6.38 5.17 11.55 11.55 11.55 6.38 0 11.55-5.17 11.55-11.55 0-6.38-5.17-11.55-11.55-11.55z" fill="#FFCF3F"/>
    <path fill-rule="evenodd" clip-rule="evenodd" d="M19.8 10.725c-.912 0-1.65 1.109-1.65 2.475 0 1.368.738 2.475 1.65 2.475.912 0 1.65-1.107 1.65-2.475 0-1.366-.738-2.475-1.65-2.475zM23.892 18.38a.826.826 0 0 0-1.585-.462 6.08 6.08 0 0 1-5.807 4.357 6.08 6.08 0 0 1-5.808-4.357.824.824 0 0 0-1.025-.56.828.828 0 0 0-.56 1.023c.954 3.264 3.993 5.544 7.393 5.544s6.438-2.28 7.392-5.544zM12.375 15.683a3.493 3.493 0 0 1-3.24-2.17.826.826 0 0 1 1.528-.626 1.844 1.844 0 0 0 1.712 1.146c.754 0 1.424-.45 1.71-1.146a.826.826 0 0 1 1.528.625 3.493 3.493 0 0 1-3.238 2.171z" fill="#000"/>
</svg>
