<svg width="44" height="44" viewBox="0 0 44 44" fill="none" xmlns="http://www.w3.org/2000/svg">
    <path d="M35.751 17.416V9.2c0-.608-.241-1.19-.67-1.62l-3.242-3.241a2.292 2.292 0 0 0-1.62-.671H10.542a2.292 2.292 0 0 0-2.292 2.291v11.459A4.583 4.583 0 0 0 3.668 22v8.02c0 .634.513 1.146 1.146 1.146H8.25v6.875a2.292 2.292 0 0 0 2.292 2.292H33.46a2.292 2.292 0 0 0 2.291-2.291v-6.876h3.438c.633 0 1.146-.512 1.146-1.145V22a4.583 4.583 0 0 0-4.584-4.584zM31.168 35.75H12.835v-6.875h18.333v6.875zm0-16.042H12.835V8.25h13.75v3.437c0 .633.512 1.146 1.145 1.146h3.438v6.875zm3.438 5.156a1.72 1.72 0 1 1 0-3.438 1.72 1.72 0 0 1 0 3.438z" fill="#704C14"/>
</svg>
