<svg width="22" height="20" viewBox="0 0 22 20" fill="none" xmlns="http://www.w3.org/2000/svg">
<path fill-rule="evenodd" clip-rule="evenodd" d="M18.7 5.55556H3.3C1.474 5.55556 0 7.04445 0 8.88889V15.5556H4.4V20H17.6V15.5556H22V8.88889C22 7.04445 20.526 5.55556 18.7 5.55556ZM15.4 17.7778H6.6V12.2222H15.4V17.7778ZM18.7 10C18.095 10 17.6 9.5 17.6 8.88889C17.6 8.27778 18.095 7.77778 18.7 7.77778C19.305 7.77778 19.8 8.27778 19.8 8.88889C19.8 9.5 19.305 10 18.7 10ZM17.6 0H4.4V4.44444H17.6V0Z" fill="#8A5E18"/>
</svg>
