<svg width="14" height="14" viewBox="0 0 14 14" fill="none" xmlns="http://www.w3.org/2000/svg">
<path fill-rule="evenodd" clip-rule="evenodd" d="M13.67 12.0673L12.0673 13.67C11.8474 13.89 11.5802 14 11.266 14C10.9517 14 10.6846 13.89 10.4646 13.67L7 10.2054L3.53535 13.67C3.31537 13.89 3.04826 14 2.73401 14C2.41975 14 2.15264 13.89 1.93266 13.67L0.329966 12.0673C0.109988 11.8474 0 11.5802 0 11.266C0 10.9517 0.109988 10.6846 0.329966 10.4646L3.79461 7L0.329966 3.53535C0.109988 3.31537 0 3.04826 0 2.73401C0 2.41975 0.109988 2.15264 0.329966 1.93266L1.93266 0.329966C2.15264 0.109988 2.41975 0 2.73401 0C3.04826 0 3.31537 0.109988 3.53535 0.329966L7 3.79461L10.4646 0.329966C10.6846 0.109988 10.9517 0 11.266 0C11.5802 0 11.8474 0.109988 12.0673 0.329966L13.67 1.93266C13.89 2.15264 14 2.41975 14 2.73401C14 3.04826 13.89 3.31537 13.67 3.53535L10.2054 7L13.67 10.4646C13.89 10.6846 14 10.9517 14 11.266C14 11.5802 13.89 11.8474 13.67 12.0673Z" fill="#DE003D"/>
</svg>
