<svg width="24" height="22" viewBox="0 0 24 22" fill="none" xmlns="http://www.w3.org/2000/svg">
    <path fill-rule="evenodd" clip-rule="evenodd" d="M20.671 16.913S24 14.633 24 10.137C24 3.444 16.914.97 13.104 1.035c-3.81.067-4.946 1.071-4.946 1.071S6.86 1.162 5.487.372C4.435-.038 4.19-.098 3.46.138c-.584 0-.217.974.018 1.326.233.35 1.366 2.291 1.366 2.291S2.467 6.206 2.291 7.817c0-.029-1.12-.009-1.734-.009-.614 0-.556.67-.556.67l.017 4.717s-.038.67.52.67c.555 0 1.737.013 1.737.013s1.662 2.417 2.716 2.856c0 .03-.91 2.505-.91 2.505s-.44.762.35 1.055c.79.292 2.85 1.158 3.728 1.422.878.264 1.003-.334 1.003-.334l.868-1.879 5.684.01.868 1.936s.167.898 1.337.401a54.667 54.667 0 0 0 3.414-1.585c.965-.498.33-1.427.33-1.427l-.992-1.925zM5.324 8.763a.966.966 0 1 1 .002-1.933.966.966 0 0 1-.002 1.932zm13.599-3.011c-.308.365-.51.096-.757.023 0 0-1.05-.976-2.594-1.431-1.599-.47-3.281-.243-3.281-.243-.248-.074-.55-.082-.551-.465.013-.473.587-.477.58-.493 0 0 1.893-.175 3.478.291 1.558.458 2.749 1.455 2.749 1.455s.636.44.376.863z" fill="#8A5E18"/>
</svg>
