<svg width="41" height="41" viewBox="0 0 41 41" fill="none" xmlns="http://www.w3.org/2000/svg">
    <path d="M36.434 24.605 33.5 22.911a13.269 13.269 0 0 0 0-4.836l2.934-1.694a.833.833 0 0 0 .38-.965A17.157 17.157 0 0 0 33.044 8.9a.829.829 0 0 0-1.02-.159l-2.934 1.695a13 13 0 0 0-4.188-2.418V4.636a.825.825 0 0 0-.647-.806 17.317 17.317 0 0 0-7.523 0 .825.825 0 0 0-.647.806v3.389a13.41 13.41 0 0 0-4.188 2.418L8.97 8.748a.818.818 0 0 0-1.02.159 17.052 17.052 0 0 0-3.767 6.516.824.824 0 0 0 .379.964l2.934 1.695a13.268 13.268 0 0 0 0 4.836l-2.934 1.694a.833.833 0 0 0-.38.965 17.156 17.156 0 0 0 3.769 6.516.829.829 0 0 0 1.02.158l2.934-1.694a13 13 0 0 0 4.188 2.418v3.389c0 .386.269.723.647.806 2.529.565 5.119.537 7.523 0a.825.825 0 0 0 .647-.806v-3.39a13.41 13.41 0 0 0 4.188-2.417l2.935 1.695a.818.818 0 0 0 1.02-.159 17.053 17.053 0 0 0 3.767-6.516.85.85 0 0 0-.386-.972zm-15.94 1.399a5.518 5.518 0 0 1-5.51-5.511 5.518 5.518 0 0 1 5.51-5.51 5.518 5.518 0 0 1 5.511 5.51 5.518 5.518 0 0 1-5.51 5.51z" fill="#704C14"/>
</svg>
