<svg width="46" height="46" viewBox="0 0 46 46" fill="none" xmlns="http://www.w3.org/2000/svg">
    <path d="M38.572 8.625H7.426a3.595 3.595 0 0 0-3.594 3.594V33.78a3.595 3.595 0 0 0 3.594 3.594h31.146a3.595 3.595 0 0 0 3.593-3.594V12.22a3.595 3.595 0 0 0-3.593-3.594zm-18.41 16.748a.462.462 0 0 1 .688.068l1.46 2.074c.127.18.112.419-.037.576-4.014 4.253-12.938 2.403-12.938-5.084 0-7.284 9.112-8.947 12.915-5.248.157.15.187.24.075.427l-1.31 2.283a.467.467 0 0 1-.682.128c-3.054-2.396-7.082-1.116-7.082 2.336.007 3.593 3.825 5.278 6.91 2.44zm14.254 0a.462.462 0 0 1 .69.068l1.46 2.074c.126.18.111.419-.038.576-4.006 4.26-12.93 2.403-12.93-5.084 0-7.284 9.111-8.947 12.915-5.248.157.15.187.24.075.427l-1.31 2.283a.467.467 0 0 1-.682.128c-3.055-2.396-7.083-1.116-7.083 2.336 0 3.593 3.819 5.278 6.903 2.44z" fill="#704C14"/>
</svg>
