<svg width="20" height="19" viewBox="0 0 20 19" fill="none" xmlns="http://www.w3.org/2000/svg">
<path d="M11.1302 15.6783L10.3701 16.4384C10.0483 16.7602 9.52791 16.7602 9.20951 16.4384L2.55387 9.78615C2.23204 9.46433 2.23204 8.94393 2.55387 8.62552L9.20951 1.96989C9.53133 1.64806 10.0517 1.64806 10.3701 1.96989L11.1302 2.72994C11.4554 3.05519 11.4486 3.58586 11.1165 3.90427L6.99096 7.83465H16.8306C17.286 7.83465 17.6523 8.20099 17.6523 8.65634V9.75191C17.6523 10.2073 17.286 10.5736 16.8306 10.5736H6.99096L11.1165 14.504C11.452 14.8224 11.4589 15.3531 11.1302 15.6783Z" fill="#008080"/>
</svg>
