<svg width="10" height="11" viewBox="0 0 10 11" fill="none" xmlns="http://www.w3.org/2000/svg">
<g clip-path="url(#clip0_40_250)">
<path d="M0.717773 1.71875V9.28125C0.717773 9.8508 1.14823 10.3125 1.67923 10.3125H8.72995C9.26095 10.3125 9.69141 9.8508 9.69141 9.28125V1.71875C9.69141 1.1492 9.26095 0.6875 8.72995 0.6875H1.67923C1.14823 0.6875 0.717773 1.1492 0.717773 1.71875ZM2.48045 2.0625H4.72328C5.15019 2.0625 5.36586 2.61811 5.06322 2.94274L4.42256 3.62996L8.33905 7.83073C8.43291 7.93141 8.43291 8.09465 8.33905 8.19534L7.71753 8.86198C7.62365 8.96266 7.47145 8.96266 7.37759 8.86198L3.46112 4.66123L2.82039 5.34854C2.51935 5.67138 1.99972 5.44468 1.99972 4.98392V2.57812C1.99972 2.29335 2.21495 2.0625 2.48045 2.0625Z" fill="#757575"/>
</g>
<defs>
<clipPath id="clip0_40_250">
<rect width="8.97363" height="11" fill="white" transform="matrix(-1 0 0 1 9.69141 0)"/>
</clipPath>
</defs>
</svg>
