<svg width="19" height="30" viewBox="0 0 19 30" fill="none" xmlns="http://www.w3.org/2000/svg">
<path fill-rule="evenodd" clip-rule="evenodd" d="M16.6637 10.7726L16.6298 10.48C16.5982 10.1863 16.5789 9.98676 16.5721 9.88138C16.1921 4.25358 14.3374 1.19528 11.0079 0.706495C10.7274 0.663894 10.4379 0.640352 10.1393 0.635867C9.91988 0.613446 9.70613 0.599993 9.49804 0.595509C5.0647 0.483401 2.63202 3.81748 2.2 10.5978H2.17625C1.95458 13.7031 1.84375 16.8085 1.84375 19.9139H1.85732C1.85958 20.2323 1.86524 20.5507 1.87429 20.8691C1.91048 22.6404 2.01679 24.4139 2.19321 26.1897L2.23393 26.6134L2.41036 26.748C3.1681 27.2973 3.91452 27.7704 4.64964 28.1673C6.04976 28.9229 7.40804 29.3982 8.72446 29.5933H8.73125C11.6943 30.0215 14.4358 29.0125 16.9555 26.5664C17.1704 25.674 17.2383 23.5361 17.1591 20.1527L17.1761 20.1426C17.1354 17.0193 16.9646 13.896 16.6637 10.7726Z" fill="#CC6600"/>
<path fill-rule="evenodd" clip-rule="evenodd" d="M17.8361 9.88824L17.1677 9.78061C16.7108 3.33891 14.1956 0.0911533 9.62203 0.0373416C4.85167 -0.155483 2.22108 3.11806 1.73024 9.85797C1.72346 9.9342 1.7178 10.0127 1.71328 10.0934L0.780243 10.2347C0.773458 10.2571 0.767803 10.2806 0.763279 10.3053C0.758755 10.321 0.755362 10.3378 0.753101 10.3557C-0.0227327 13.562 -0.176542 16.7952 0.291672 20.0553L0.305243 20.0654L1.2756 20.3075V20.3882L1.6556 26.1898C1.72798 26.6943 1.85578 27.0172 2.03899 27.1584C2.22221 27.2997 2.34661 27.3894 2.41221 27.4275C8.06923 30.9835 13.0318 30.8154 17.3001 26.923L17.4595 26.6943L17.5681 26.4723L17.7717 20.5463L18.7794 19.914C19.2249 16.2234 18.9105 12.8815 17.8361 9.88824ZM17.0558 11.4185L16.9336 10.3322L17.5274 10.386C17.6156 10.673 17.697 10.9645 17.7717 11.2604C18.068 12.4376 18.2546 13.6775 18.3315 14.9802C18.4174 16.4331 18.4095 17.9421 18.3077 19.5071L17.5342 19.9241L17.3408 15.1853L17.0558 11.4185ZM16.6317 10.4802L16.6656 10.7728C16.9664 13.8961 17.1372 17.0194 17.1779 20.1427L17.161 20.1528C17.2401 23.5362 17.1723 25.6741 16.9574 26.5665C14.4376 29.0127 11.6962 30.0216 8.7331 29.5934H8.72632C7.40989 29.3983 6.05161 28.923 4.65149 28.1674C3.91637 27.7705 3.16995 27.2974 2.41221 26.7481L2.23578 26.6136L2.19506 26.1898C2.01864 24.414 1.91233 22.6405 1.87614 20.8692C1.86709 20.5508 1.86143 20.2324 1.85917 19.914H1.8456C1.8456 16.8086 1.95643 13.7033 2.1781 10.5979H2.20185C2.63387 3.81761 5.06655 0.48353 9.49989 0.595638C9.70798 0.600122 9.92173 0.613575 10.1411 0.635996C10.4397 0.640481 10.7292 0.664023 11.0097 0.706624C14.3392 1.19541 16.194 4.25371 16.574 9.88151C16.5808 9.98689 16.6 10.1864 16.6317 10.4802ZM1.22471 10.6786L1.83542 10.6315C1.80376 11.0665 1.7687 11.4992 1.73024 11.9297C1.71893 12.0486 1.70762 12.1674 1.69631 12.2862L1.54364 15.192C1.48709 16.6584 1.50631 18.2851 1.60131 20.0721L1.58435 19.8602L1.57417 19.8535L0.803993 19.6618L0.817565 19.6483L0.770065 19.6315V19.6147C0.537089 18.0811 0.46697 16.5598 0.559708 15.0508V15.0373C0.618517 14.0867 0.723696 13.1382 0.875243 12.192C0.879767 12.1764 0.88316 12.1629 0.885422 12.1517C0.966851 11.6674 1.06185 11.1842 1.17042 10.7021V10.692L1.23489 10.6853L1.22471 10.6786ZM6.09685 24.2963L6.11381 24.7403L9.59828 25.1607L9.53382 24.5788L6.09685 24.2963ZM2.96185 23.6607C3.06816 23.8961 3.23893 24.0642 3.47417 24.1651C4.08036 24.4297 4.7103 24.6225 5.36399 24.7436L5.32667 24.1618L2.94149 23.1696L2.96185 23.6607ZM14.7758 24.377L16.2992 23.4084L16.2754 22.7963H16.0345C15.4985 23.1237 14.9669 23.4521 14.4399 23.7817L14.4636 24.3804L14.7758 24.377ZM13.8122 24.5284L13.7952 24.1349L10.2938 24.5452L10.3108 25.0194L12.8419 25.0295L13.7342 24.747L13.819 24.7201L13.8122 24.5385V24.5351V24.5284Z" fill="black"/>
<path fill-rule="evenodd" clip-rule="evenodd" d="M1.54307 15.1924L0.559138 15.0511C0.4664 16.5601 0.536519 18.0814 0.769495 19.615V19.6318L0.816995 19.6486L0.803424 19.6621L1.5736 19.8538L1.58378 19.8605L1.60075 20.0724C1.50575 18.2854 1.48652 16.6587 1.54307 15.1924ZM18.3309 14.9805L17.3402 15.1856L17.5336 19.9244L18.3072 19.5074C18.409 17.9424 18.4169 16.4334 18.3309 14.9805Z" fill="#CC9900"/>
<path fill-rule="evenodd" clip-rule="evenodd" d="M1.50181 12.3C1.27336 12.3067 1.06413 12.2708 0.874129 12.1924C0.722582 13.1385 0.617403 14.087 0.558594 15.0376V15.0511L1.54252 15.1924L1.6952 12.2865C1.62961 12.2933 1.56514 12.2977 1.50181 12.3ZM17.7706 11.2607C17.4991 11.3302 17.2605 11.3829 17.0547 11.4188L17.3397 15.1856L18.3304 14.9805C18.2535 13.6778 18.0669 12.4379 17.7706 11.2607Z" fill="#FFCC00"/>
<path fill-rule="evenodd" clip-rule="evenodd" d="M1.83518 10.6314L1.22446 10.6784L1.23464 10.6852L1.17018 10.6919V10.702C1.06161 11.184 0.966607 11.6672 0.885179 12.1515C0.882917 12.1627 0.879524 12.1762 0.875 12.1919C1.065 12.2704 1.27423 12.3062 1.50268 12.2995C1.56601 12.2973 1.63048 12.2928 1.69607 12.2861C1.70738 12.1672 1.71869 12.0484 1.73 11.9296C1.76845 11.4991 1.80351 11.0663 1.83518 10.6314ZM16.9334 10.332L17.0555 11.4184C17.2614 11.3825 17.5 11.3298 17.7714 11.2603C17.6968 10.9643 17.6154 10.6728 17.5271 10.3858L16.9334 10.332Z" fill="#FFFFCC"/>
<path fill-rule="evenodd" clip-rule="evenodd" d="M14.6389 21.0038C14.7679 20.1338 14.873 19.256 14.9545 18.3704C14.4862 19.1753 13.7647 19.3334 12.7898 18.8446C12.7672 18.8334 12.7457 18.8222 12.7254 18.8109C12.3544 18.6204 12.0049 18.237 11.677 17.6607C11.1974 16.7885 10.9181 15.7381 10.8389 14.5094C10.7598 13.2784 10.9034 12.2325 11.2698 11.3715C11.6498 10.497 12.1384 10.061 12.7355 10.0632C13.0522 10.0632 13.353 10.1809 13.638 10.4163C13.7195 10.4388 13.8032 10.4657 13.8891 10.497C13.9841 10.5307 14.1255 10.617 14.3132 10.756C14.4964 10.895 14.6401 11.071 14.7441 11.284C14.8459 11.4993 14.9918 11.8704 15.1818 12.3973C15.1637 11.3435 15.1151 10.2818 15.0359 9.2123C14.7509 5.34682 13.4085 2.51162 11.0086 0.70669C10.7281 0.664089 10.4386 0.640546 10.14 0.636062C9.92059 0.61364 9.70684 0.600187 9.49875 0.595703C9.26351 0.698842 8.98417 0.837856 8.66071 1.01274C7.89393 1.42754 6.89869 2.53629 5.675 4.33898C4.44905 6.14167 3.58161 9.09795 3.07268 13.2078C2.6497 16.6024 2.25048 19.1562 1.875 20.8692C1.91119 22.6405 2.0175 24.4141 2.19393 26.1899L2.23464 26.6136L2.41107 26.7482C3.16881 27.2975 3.91524 27.7706 4.65036 28.1675C6.05048 28.9231 7.40875 29.3984 8.72518 29.5935H8.73196C9.46708 29.6226 10.3108 29.2627 11.263 28.5139C12.213 27.7627 13.0318 26.5206 13.7195 24.7874L13.733 24.747L12.8407 25.0296L10.3096 25.0195L10.2927 24.5453L13.7941 24.1349L13.8111 24.5284L13.8416 24.441L13.8111 24.5352V24.5385C14.1571 23.5408 14.4331 22.3625 14.6389 21.0038ZM3.47304 24.1652C3.2378 24.0643 3.06702 23.8962 2.96071 23.6607L2.94036 23.1697L5.32554 24.1618L5.36286 24.7437C4.70917 24.6226 4.07923 24.4298 3.47304 24.1652ZM6.11268 24.7403L6.09571 24.2964L9.53268 24.5789L9.59714 25.1607L6.11268 24.7403ZM7.58518 11.089C7.66208 11.1607 7.72768 11.265 7.78196 11.4018C8.46732 13.1663 8.39946 15.1058 7.57839 17.2201C6.75732 19.3323 5.70214 19.8939 4.41286 18.9051L4.42982 18.8816C4.15613 18.6663 3.92315 18.3121 3.73089 17.8188C3.39839 16.9556 3.29774 15.9096 3.42893 14.6809C3.55786 13.4522 3.88018 12.4018 4.39589 11.5296C4.92518 10.6663 5.48952 10.2347 6.08893 10.2347C6.47345 10.2347 6.80369 10.4085 7.07964 10.756C7.16786 10.7986 7.25494 10.8457 7.34089 10.8973C7.42685 10.9511 7.50827 11.015 7.58518 11.089Z" fill="#CC6600"/>
<path fill-rule="evenodd" clip-rule="evenodd" d="M7.78371 11.4021C7.72943 11.2653 7.66383 11.1611 7.58693 11.0893C7.51002 11.0153 7.42859 10.9514 7.34264 10.8976C7.25669 10.846 7.1696 10.799 7.08139 10.7564C6.80544 10.4088 6.4752 10.2351 6.09068 10.2351C5.49127 10.2351 4.92693 10.6667 4.39764 11.5299C3.88193 12.4021 3.5596 13.4525 3.43068 14.6812C3.29949 15.9099 3.40014 16.9559 3.73264 17.8191C3.9249 18.3124 4.15788 18.6667 4.43157 18.8819L4.4146 18.9055C5.70389 19.8943 6.75907 19.3326 7.58014 17.2205C8.40121 15.1061 8.46907 13.1667 7.78371 11.4021ZM16.6662 10.7732L16.6323 10.4806C16.6006 10.1869 16.5814 9.9873 16.5746 9.88192C16.1946 4.25412 14.3398 1.19582 11.0103 0.707031C13.4102 2.51196 14.7526 5.34717 15.0376 9.21264C15.1168 10.2821 15.1654 11.3438 15.1835 12.3976C14.9935 11.8707 14.8476 11.4996 14.7459 11.2844C14.6418 11.0714 14.4982 10.8954 14.315 10.7564C14.1272 10.6173 13.9859 10.531 13.8909 10.4974C13.8049 10.466 13.7212 10.4391 13.6398 10.4167C13.3548 10.1812 13.0539 10.0635 12.7373 10.0635C12.1401 10.0613 11.6516 10.4974 11.2716 11.3718C10.9051 12.2328 10.7615 13.2788 10.8407 14.5097C10.9198 15.7384 11.1992 16.7889 11.6787 17.6611C12.0067 18.2373 12.3562 18.6207 12.7271 18.8113C12.7475 18.8225 12.7689 18.8337 12.7916 18.8449C13.7664 19.3337 14.488 19.1756 14.9562 18.3707C14.8748 19.2564 14.7696 20.1342 14.6407 21.0041C14.4348 22.3629 14.1589 23.5411 13.8128 24.5389L13.8196 24.7205L13.7348 24.7474L13.7212 24.7877C13.0336 26.5209 12.2148 27.7631 11.2648 28.5142C10.3125 29.2631 9.46883 29.623 8.73371 29.5938C11.6968 30.0221 14.4382 29.0131 16.958 26.5669C17.1729 25.6745 17.2407 23.5366 17.1616 20.1532L17.1785 20.1431C17.1378 17.0198 16.967 13.8965 16.6662 10.7732ZM16.2998 23.4088L14.7764 24.3774L14.4642 24.3808L14.4405 23.7821C14.9675 23.4525 15.4991 23.1241 16.0351 22.7967H16.276L16.2998 23.4088ZM13.8128 24.5342V24.5413L13.8582 24.4413L13.8128 24.5342Z" fill="#993300"/>
<path fill-rule="evenodd" clip-rule="evenodd" d="M5.67429 4.33878C6.89798 2.53609 7.89321 1.42735 8.66 1.01255C8.98345 0.837661 9.2628 0.698648 9.49804 0.595509C5.0647 0.483401 2.63202 3.81748 2.2 10.5978H2.17625C1.95458 13.7031 1.84375 16.8085 1.84375 19.9139H1.85732C1.85958 20.2323 1.86524 20.5507 1.87429 20.8691C2.24976 19.156 2.64899 16.6022 3.07196 13.2076C3.58089 9.09775 4.44833 6.14147 5.67429 4.33878Z" fill="#FF9900"/>
<path fill-rule="evenodd" clip-rule="evenodd" d="M7.08139 10.7563C6.80544 10.4088 6.4752 10.235 6.09068 10.235C5.49127 10.235 4.92693 10.6666 4.39764 11.5299C3.88193 12.4021 3.5596 13.4525 3.43068 14.6812C3.29949 15.9099 3.40014 16.9559 3.73264 17.8191C3.9249 18.3124 4.15788 18.6666 4.43157 18.8819C4.64419 19.0455 4.87943 19.1274 5.13728 19.1274C5.748 19.1274 6.31234 18.6913 6.83032 17.8191C7.34377 16.9559 7.66609 15.9099 7.79728 14.6812C7.92847 13.4525 7.82895 12.4021 7.49871 11.5299C7.37657 11.2137 7.23746 10.9559 7.08139 10.7563ZM7.15603 11.8191C7.39353 12.6106 7.44782 13.5646 7.31889 14.6812C7.18996 15.7955 6.91627 16.744 6.49782 17.5265C6.07484 18.3202 5.62472 18.7171 5.14746 18.7171C4.67925 18.7171 4.32074 18.3202 4.07193 17.5265C3.8299 16.744 3.77335 15.7955 3.90228 14.6812C4.02895 13.5646 4.30264 12.6106 4.72335 11.8191C5.15538 11.0366 5.6055 10.6453 6.07371 10.6453C6.55324 10.6453 6.91401 11.0366 7.15603 11.8191ZM5.39175 13.7429C5.23794 13.7429 5.10449 13.8191 4.99139 13.9716C4.87829 14.1195 4.82175 14.3034 4.82175 14.5231C4.82175 14.7429 4.87829 14.929 4.99139 15.0814C5.10449 15.2294 5.23794 15.3034 5.39175 15.3034C5.54782 15.3034 5.68353 15.2294 5.79889 15.0814C5.91199 14.929 5.96853 14.7429 5.96853 14.5231C5.96853 14.3034 5.91199 14.1195 5.79889 13.9716C5.68353 13.8191 5.54782 13.7429 5.39175 13.7429ZM14.7764 17.661C15.1428 16.7888 15.2864 15.7384 15.2073 14.5097C15.1281 13.2787 14.8499 12.2328 14.3726 11.3718C14.1419 10.9525 13.8976 10.6341 13.6398 10.4166C13.3548 10.1812 13.054 10.0635 12.7373 10.0635C12.1401 10.0612 11.6516 10.4973 11.2716 11.3718C10.9051 12.2328 10.7615 13.2787 10.8407 14.5097C10.9198 15.7384 11.1992 16.7888 11.6787 17.661C12.0067 18.2373 12.3562 18.6207 12.7271 18.8112C12.7475 18.8225 12.7689 18.8337 12.7916 18.8449H12.8017C12.9691 18.9166 13.1399 18.9525 13.3141 18.9525C13.9225 18.9525 14.41 18.522 14.7764 17.661ZM11.3225 14.5399C11.2388 13.4234 11.3326 12.4749 11.6041 11.6947C11.8891 10.9009 12.2668 10.5041 12.7373 10.5041C13.2145 10.5041 13.6477 10.9009 14.0367 11.6947C14.4235 12.4772 14.6565 13.4256 14.7357 14.5399C14.8148 15.6565 14.7176 16.6106 14.4439 17.4021C14.1702 18.1823 13.7959 18.5736 13.3209 18.5758C12.8526 18.5736 12.4195 18.1823 12.0214 17.4021C11.6323 16.6106 11.3994 15.6565 11.3225 14.5399ZM13.2021 13.7429C13.0483 13.7429 12.9148 13.8191 12.8017 13.9716C12.6887 14.1195 12.6321 14.3034 12.6321 14.5231C12.6321 14.7429 12.6887 14.929 12.8017 15.0814C12.9148 15.2294 13.0483 15.3034 13.2021 15.3034C13.3582 15.3034 13.4939 15.2294 13.6092 15.0814C13.7223 14.929 13.7789 14.7429 13.7789 14.5231C13.7789 14.3034 13.7223 14.1195 13.6092 13.9716C13.4939 13.8191 13.3582 13.7429 13.2021 13.7429Z" fill="black"/>
<path fill-rule="evenodd" clip-rule="evenodd" d="M7.31976 14.681C7.44869 13.5644 7.3944 12.6104 7.1569 11.8189C6.91488 11.0364 6.55411 10.6452 6.07458 10.6452C5.60637 10.6452 5.15625 11.0364 4.72422 11.8189C4.30351 12.6104 4.02982 13.5644 3.90315 14.681C3.77422 15.7954 3.83077 16.7438 4.0728 17.5263C4.32161 18.32 4.68012 18.7169 5.14833 18.7169C5.62559 18.7169 6.07571 18.32 6.49869 17.5263C6.91714 16.7438 7.19083 15.7954 7.31976 14.681ZM4.99226 13.9714C5.10536 13.8189 5.23881 13.7427 5.39262 13.7427C5.54869 13.7427 5.6844 13.8189 5.79976 13.9714C5.91286 14.1194 5.9694 14.3032 5.9694 14.523C5.9694 14.7427 5.91286 14.9288 5.79976 15.0813C5.6844 15.2292 5.54869 15.3032 5.39262 15.3032C5.23881 15.3032 5.10536 15.2292 4.99226 15.0813C4.87917 14.9288 4.82262 14.7427 4.82262 14.523C4.82262 14.3032 4.87917 14.1194 4.99226 13.9714ZM11.6049 11.6945C11.3335 12.4748 11.2396 13.4232 11.3233 14.5398C11.4002 15.6564 11.6332 16.6104 12.0223 17.4019C12.4204 18.1822 12.8535 18.5734 13.3217 18.5757C13.7967 18.5734 14.1711 18.1822 14.4448 17.4019C14.7185 16.6104 14.8157 15.6564 14.7365 14.5398C14.6574 13.4254 14.4244 12.477 14.0376 11.6945C13.6486 10.9008 13.2154 10.5039 12.7382 10.5039C12.2677 10.5039 11.8899 10.9008 11.6049 11.6945ZM12.8026 13.9714C12.9157 13.8189 13.0492 13.7427 13.203 13.7427C13.359 13.7427 13.4948 13.8189 13.6101 13.9714C13.7232 14.1194 13.7798 14.3032 13.7798 14.523C13.7798 14.7427 13.7232 14.9288 13.6101 15.0813C13.4948 15.2292 13.359 15.3032 13.203 15.3032C13.0492 15.3032 12.9157 15.2292 12.8026 15.0813C12.6895 14.9288 12.633 14.7427 12.633 14.523C12.633 14.3032 12.6895 14.1194 12.8026 13.9714Z" fill="white"/>
</svg>
