<svg width="169" height="30" viewBox="0 0 169 30" fill="none" xmlns="http://www.w3.org/2000/svg">
<path fill-rule="evenodd" clip-rule="evenodd" d="M33.2956 19.5492V24.1715H35.8014V29.3346H23.9882V24.1634H26.4939V15.7627H23.9882V10.6239H30.933L31.5054 14.2806H31.9347C33.0148 12.7038 35.5124 10.2641 39.02 10.2641V16.896C38.1433 16.6965 37.2483 16.5887 36.3495 16.5741C34.6187 16.5741 33.2956 17.4585 33.2956 19.5492ZM22.1333 22.0618C22.1333 25.4967 20.0189 29.3346 14.1218 29.3346H0V24.1634H2.50573V8.88207H0V3.72702H13.517C18.8174 3.72702 20.9667 7.0835 20.9667 10.0884C20.986 12.1999 19.9068 14.1693 18.118 15.2867V15.7167C20.581 16.8578 22.1509 19.3356 22.1333 22.0537V22.0618ZM9.31553 14.2643H12.0157C13.6709 14.2643 14.4971 12.7741 14.4971 11.5326C14.4971 10.2912 13.6709 8.88207 12.0157 8.88207H9.31553V14.2643ZM15.3234 21.1098C15.3234 19.7061 14.5133 18.1347 12.5206 18.1347H9.31553V24.1634H12.5206C14.4998 24.1634 15.3234 22.5243 15.3234 21.1098ZM64.1287 8.73063C66.6695 8.73063 68.6082 7.42157 68.6082 4.3653C68.6082 1.30906 66.656 0 64.1287 0C61.6013 0 59.6518 1.30906 59.6518 4.3653C59.6518 7.42157 61.577 8.73063 64.1287 8.73063ZM68.2437 10.6239H58.9228V15.7627H61.4285V29.3184H70.736V24.1525H68.2302L68.2437 10.6239ZM145.573 16.6823C145.573 24.4095 139.86 30 132.218 30C124.577 30 118.864 24.4176 118.864 16.6823C118.864 8.94698 124.577 3.36728 132.218 3.36728C139.86 3.36728 145.573 8.95511 145.573 16.6823ZM138.629 16.6823C138.629 12.4712 136.161 9.28508 132.219 9.28508C128.276 9.28508 125.811 12.4712 125.811 16.6823C125.811 20.8934 128.276 24.0822 132.218 24.0822C136.161 24.0822 138.629 20.9015 138.629 16.6823ZM56.0606 24.1634H58.5664V29.3265H51.3543L50.7818 25.6698H50.3579C49.3966 27.8633 47.4741 29.6863 44.0368 29.6863C40.7453 29.6863 38.2288 27.2521 38.2288 23.8063C38.2288 19.7007 41.5824 17.6776 45.0656 17.6668C46.5122 17.6396 47.9467 17.9362 49.2643 18.535V17.9264C49.2643 16.2847 48.0196 15.4138 46.3212 15.4138C44.1206 15.4138 42.0333 16.4957 42.0333 16.4957V11.1432C43.867 10.5822 45.7704 10.2826 47.6874 10.2533C53.1309 10.2533 56.0579 12.9769 56.0579 17.9264L56.0606 24.1634ZM49.2589 21.6724C48.6392 21.2737 47.919 21.0598 47.1825 21.0557C45.9917 21.0557 45.0224 21.7725 45.0224 22.8678C45.0224 23.9632 45.9323 24.5528 46.8261 24.5528C48.3517 24.5528 49.2589 23.1491 49.2589 21.6724ZM169 12.1466C169 17.5694 165.295 20.5662 159.884 20.5662H156.185V24.1606H158.691V29.3238H146.878V24.1661H149.383V8.88748H146.878V3.72702H159.884C165.295 3.72702 169 6.72376 169 12.1466ZM162.198 12.1466C162.198 10.6266 161.259 8.90102 159.161 8.90102H156.19V15.403H159.161C161.259 15.403 162.198 13.6666 162.198 12.1466ZM92.5694 17.3503C92.5694 11.4704 89.0592 10.2506 86.1268 10.2506C82.6166 10.2506 80.1163 12.6848 79.0416 14.267H78.6123L78.0399 10.6239H71.0951V15.7627H73.6008V29.3184H82.9083V24.1525H80.4025V19.6736C80.4025 17.9778 81.6257 16.5579 83.4267 16.5579C84.7768 16.5579 85.7677 17.2449 85.7677 18.8406V29.3292H95.0752V24.1634H92.5694V17.3503ZM117.559 12.1466C117.559 17.5694 113.855 20.5689 108.441 20.5689H104.742V24.1634H107.247V29.3265H97.94V8.89018H95.4343V3.72702H108.441C113.855 3.72702 117.559 6.72376 117.559 12.1466ZM110.755 12.1466C110.755 10.6266 109.815 8.90102 107.72 8.90102H104.75V15.4057H107.72C109.815 15.4057 110.755 13.6666 110.755 12.1466Z" fill="black"/>
</svg>
