<svg width="130" height="19" viewBox="0 0 130 19" fill="none" xmlns="http://www.w3.org/2000/svg">
<path fill-rule="evenodd" clip-rule="evenodd" d="M85.5986 2.13303C90.5189 2.13303 94.2143 5.67257 94.2143 10.5656C94.2143 15.4604 90.5293 19 85.5986 19C80.6679 19 76.9829 15.4673 76.9829 10.5656C76.9829 5.66401 80.6784 2.13303 85.5986 2.13303ZM127.808 15.2361C128.868 15.0645 129.764 15.4916 129.966 16.7957C130.168 18.0998 129.445 18.7877 128.384 18.9627C127.324 19.1378 126.428 18.7089 126.226 17.4031C126.024 16.0973 126.748 15.4076 127.808 15.2361ZM31.061 6.49325C34.5718 6.49325 36.4622 8.2202 36.4622 11.3537L36.4657 15.3045H38.0808V18.5751H33.4288L33.0595 16.2588H32.7824C32.1639 17.6465 30.9216 18.8013 28.7054 18.8013C26.5816 18.8013 24.9595 17.2593 24.9595 15.0766C24.9595 12.4759 27.1199 11.1961 29.3692 11.1893C30.3022 11.1717 31.2273 11.3596 32.0768 11.7392V11.3555C32.0768 10.3155 31.2753 9.76384 30.1777 9.76384C28.7594 9.76384 27.4126 10.4491 27.4126 10.4491V7.05691C28.5958 6.70136 29.824 6.51161 31.061 6.49325ZM25.4717 6.49325V10.701C24.906 10.5751 24.3285 10.5074 23.7486 10.4988C22.6318 10.4988 21.7885 11.0573 21.7885 12.3834V15.3114H23.4036V18.582H15.7741V15.3045H17.3909V9.98484H15.7741V6.71938H20.2553L20.6246 9.0357H20.9016C21.5986 8.03687 23.2085 6.49325 25.4717 6.49325ZM55.8627 6.49325C57.7549 6.49325 60.0199 7.26592 60.0199 10.9905V15.3045H61.635V18.5751H55.631V11.9328C55.631 10.9203 55.0003 10.4868 54.1204 10.4868C52.9583 10.4868 52.169 11.3863 52.169 12.4605V15.3045H53.7859V18.57H47.7819V9.98484H46.1651V6.71938H50.6445L51.0139 9.03743H51.2909C51.9843 8.03517 53.5977 6.49325 55.8627 6.49325ZM103.447 2.36089C106.94 2.36089 109.331 4.25914 109.331 7.69251H109.327C109.327 11.1293 106.937 13.0259 103.443 13.0259H101.063V15.3045H102.68V18.5751H95.0558V15.3079H96.6727V5.62976H95.0558V2.36089H103.447ZM70.2524 2.36089C73.7509 2.36089 76.1484 4.25914 76.1484 7.69251C76.1484 11.1293 73.7579 13.0259 70.2646 13.0259H67.8777V15.3045H69.4945V18.5751H63.4836V5.62976H61.8615V2.36089H70.2524ZM44.3165 6.71938V15.3045H45.9333V18.57H39.9294V9.98484H38.3125V6.71938H44.3165ZM8.6364 2.17143C12.0171 2.17143 13.397 4.3056 13.397 6.21794C13.4099 7.56199 12.7197 8.81567 11.5756 9.52664V9.80181C13.1496 10.5259 14.1534 12.101 14.1423 13.8294C14.1423 16.0151 12.7899 18.4571 9.02449 18.4571H0V15.1725H1.60067V5.45611H0V2.17143H8.6364ZM118.287 5.42857L118.577 7.94982L117.448 8.09428L118.092 13.5562C118.4 16.1109 117.476 18.0225 114.51 18.4013C113.626 18.5173 112.728 18.4521 111.868 18.2093L111.506 15.1454C112.166 15.3933 112.869 15.49 113.568 15.429C114.436 15.318 114.857 14.7683 114.72 13.6125L114.121 8.52419L112.744 8.70039L112.447 6.1756L118.287 5.42857ZM120.446 8.68571L123.737 9.18205V10.725L123.916 10.7537C124.492 10.1814 125.752 9.34241 127.28 9.572L126.764 12.6445C126.397 12.5042 126.014 12.4001 125.624 12.3339C124.869 12.2191 124.226 12.4993 124.092 13.3417L123.814 14.9945L124.905 15.1633L124.533 17.3714L119.121 16.556L119.493 14.3479L120.585 14.5167L121.167 11.0644L120.075 10.8955L120.446 8.68571ZM30.7369 13.336C29.9703 13.336 29.3431 13.7883 29.3431 14.4839C29.3431 15.1794 29.9303 15.5495 30.507 15.5495C31.4931 15.5495 32.0768 14.6603 32.0768 13.7249C31.6766 13.4732 31.212 13.3383 30.7369 13.336ZM85.5986 5.87302C83.0549 5.87302 81.4641 7.89298 81.4641 10.5588C81.4641 13.2246 83.0566 15.2463 85.5986 15.2463C88.1406 15.2463 89.7383 13.24 89.7383 10.5656H89.7331C89.7383 7.89981 88.1424 5.87302 85.5986 5.87302ZM8.00165 11.3392H5.94734V15.1725H8.00165C9.26597 15.1725 9.79206 14.1252 9.79206 13.2309C9.79206 12.3367 9.26597 11.3392 8.00165 11.3392ZM102.978 5.63662H101.063V9.75698H102.98C104.334 9.75698 104.94 8.65708 104.94 7.69423L104.936 7.69251C104.936 6.72967 104.33 5.63662 102.978 5.63662ZM69.7994 5.63662H67.8829V9.75698H69.7994C71.1445 9.75698 71.7508 8.65708 71.7508 7.69423L71.7577 7.69251C71.7577 6.72967 71.1514 5.63662 69.7994 5.63662ZM7.68083 5.45611H5.94734V8.87832H7.68083C8.73645 8.87832 9.26597 7.93247 9.26597 7.1414C9.26597 6.35032 8.73645 5.45611 7.68083 5.45611ZM41.6595 0C43.2972 0 44.5482 0.830942 44.5482 2.76521C44.5482 4.69947 43.2972 5.53039 41.6595 5.53039L41.6609 5.53009L41.5438 5.5289C40.0042 5.49027 38.8307 4.69523 38.7729 2.9049L38.7707 2.76521C38.7707 0.829229 40.0217 0 41.6595 0Z" fill="#3B4147"/>
</svg>
