<svg width="224" height="36" viewBox="0 0 224 36" fill="none" xmlns="http://www.w3.org/2000/svg">
<path fill-rule="evenodd" clip-rule="evenodd" d="M147.493 3.9496C155.971 3.9496 162.339 10.5036 162.339 19.5638C162.339 28.6271 155.989 35.1812 147.493 35.1812C138.997 35.1812 132.648 28.6398 132.648 19.5638C132.648 10.4877 139.015 3.9496 147.493 3.9496ZM220.223 28.2118C222.05 27.8941 223.594 28.6849 223.942 31.0996C224.289 33.5143 223.043 34.788 221.216 35.1122C219.389 35.4363 217.845 34.6422 217.498 32.2243C217.15 29.8064 218.396 28.5294 220.223 28.2118ZM53.5206 12.0232C59.5698 12.0232 62.8271 15.2209 62.8271 21.0231L62.8331 28.3384H65.6161V34.3945H57.6004L56.964 30.1054H56.4866C55.4209 32.675 53.2804 34.8132 49.4617 34.8132C45.8021 34.8132 43.0071 31.9581 43.0071 27.9165C43.0071 23.1009 46.7297 20.7312 50.6055 20.7185C52.213 20.686 53.807 21.0339 55.2708 21.7368V21.0262C55.2708 19.1006 53.8898 18.0791 51.9985 18.0791C49.5547 18.0791 47.2341 19.3481 47.2341 19.3481V13.0669C49.2727 12.4085 51.3891 12.0572 53.5206 12.0232ZM43.8897 12.0232V19.8144C42.915 19.5813 41.9199 19.4559 40.9206 19.4401C38.9963 19.4401 37.5432 20.4742 37.5432 22.9296V28.3511H40.3262V34.4071H27.1799V28.3384H29.9659V18.4883H27.1799V12.4419H34.9014L35.5378 16.7309H36.0152C37.216 14.8814 39.99 12.0232 43.8897 12.0232ZM96.2558 12.0232C99.5161 12.0232 103.419 13.4539 103.419 20.3505V28.3384H106.202V34.3945H95.8565V22.0953C95.8565 20.2204 94.7697 19.4179 93.2536 19.4179C91.2512 19.4179 89.8913 21.0833 89.8913 23.0724V28.3384H92.6772V34.3849H82.3319V18.4883H79.5459V12.4419H87.2644L87.9009 16.7341H88.3782C89.573 14.8783 92.353 12.0232 96.2558 12.0232ZM178.247 4.37151C184.266 4.37151 188.385 7.8864 188.385 14.2438H188.379C188.379 20.6075 184.26 24.1193 178.241 24.1193H174.14V28.3384H176.926V34.3945H163.789V28.3448H166.575V10.4243H163.789V4.37151H178.247ZM121.05 4.37151C127.079 4.37151 131.21 7.8864 131.21 14.2438C131.21 20.6075 127.091 24.1193 121.071 24.1193H116.958V28.3384H119.744V34.3945H109.387V10.4243H106.592V4.37151H121.05ZM76.3607 12.4419V28.3384H79.1467V34.3849H68.8014V18.4883H66.0154V12.4419H76.3607ZM14.8812 4.02071C20.7064 4.02071 23.0841 7.97243 23.0841 11.5134C23.1062 14.0021 21.917 16.3235 19.9456 17.6399V18.1494C22.6579 19.4902 24.3874 22.4068 24.3682 25.607C24.3682 29.6543 22.0379 34.176 15.5499 34.176H0V28.094H2.75809V10.1027H0V4.02071H14.8812ZM203.817 10.0518L204.318 14.7202L202.371 14.9877L203.482 25.1011C204.012 29.8316 202.421 33.3712 197.309 34.0726C195.786 34.2875 194.24 34.1667 192.758 33.717L192.134 28.0438C193.271 28.5028 194.482 28.6819 195.686 28.569C197.181 28.3635 197.907 27.3456 197.671 25.2055L196.639 15.7837L194.267 16.11L193.754 11.435L203.817 10.0518ZM207.537 16.0828L213.209 17.0019V19.8589L213.516 19.9121C214.51 18.8524 216.681 17.2988 219.314 17.7239L218.425 23.4131C217.791 23.1533 217.132 22.9606 216.46 22.8379C215.159 22.6254 214.051 23.1442 213.821 24.7041L213.341 27.7644L215.22 28.077L214.58 32.1656L205.255 30.6559L205.895 26.5671L207.777 26.8797L208.78 20.4872L206.898 20.1746L207.537 16.0828ZM52.9621 24.6934C51.6412 24.6934 50.5605 25.5309 50.5605 26.8189C50.5605 28.1069 51.5722 28.7921 52.5659 28.7921C54.2651 28.7921 55.2708 27.1457 55.2708 25.4136C54.5813 24.9474 53.7807 24.6977 52.9621 24.6934ZM147.493 10.8747C143.11 10.8747 140.369 14.615 140.369 19.5511C140.369 24.4873 143.113 28.2306 147.493 28.2306C151.873 28.2306 154.626 24.5158 154.626 19.5638H154.617C154.626 14.6276 151.876 10.8747 147.493 10.8747ZM13.7875 20.9962H10.2477V28.094H13.7875C15.966 28.094 16.8725 26.1547 16.8725 24.4989C16.8725 22.8431 15.966 20.9962 13.7875 20.9962ZM177.439 10.437H174.14V18.0664H177.442C179.775 18.0664 180.82 16.0298 180.82 14.247L180.814 14.2438C180.814 12.4609 179.769 10.437 177.439 10.437ZM120.27 10.437H116.967V18.0664H120.27C122.587 18.0664 123.632 16.0298 123.632 14.247L123.644 14.2438C123.644 12.4609 122.599 10.437 120.27 10.437ZM13.2347 10.1027H10.2477V16.4395H13.2347C15.0536 16.4395 15.966 14.6881 15.966 13.2233C15.966 11.7585 15.0536 10.1027 13.2347 10.1027ZM71.7825 0C74.6045 0 76.76 1.53861 76.76 5.12018C76.76 8.70172 74.6045 10.2403 71.7825 10.2403L71.785 10.2397L71.5832 10.2375C68.9303 10.166 66.9082 8.69389 66.8088 5.37884L66.8049 5.12018C66.8049 1.53543 68.9605 0 71.7825 0Z" fill="#3B4147"/>
</svg>
