<svg width="380" height="277" viewBox="0 0 380 277" fill="none" xmlns="http://www.w3.org/2000/svg">
<path d="M190.27 115.106C164.811 115.106 145.739 132.248 145.739 155.931C145.739 179.615 164.811 196.757 190.27 196.757C215.729 196.757 234.801 179.615 234.801 155.931C234.801 132.248 215.729 115.106 190.27 115.106ZM190.27 178.539C177.135 178.539 168.859 168.767 168.859 155.849C168.859 142.93 177.046 133.159 190.27 133.159C203.494 133.159 211.681 142.93 211.681 155.849C211.681 168.767 203.404 178.539 190.27 178.539ZM150.867 107.405H111.463V91.5879H119.83V65.9167H111.463V50.1H134.583L136.473 61.2794H137.912C141.51 56.4764 149.787 48.9407 161.482 48.9407V69.312C158.603 68.6495 155.545 68.3182 152.576 68.3182C146.818 68.3182 142.41 71.051 142.41 77.4274V91.5879H150.777L150.867 107.405ZM107.055 178.87H98.6885V167.773H111.013C129.096 167.773 141.421 158.581 141.421 141.936C141.421 125.292 129.096 116.183 111.013 116.183H67.6516V131.999H76.0181V178.87H67.6516V194.687H107.055V178.87ZM98.6885 132.082H108.584C115.601 132.082 118.66 137.382 118.66 142.102C118.66 146.822 115.511 152.122 108.584 152.122H98.6885V132.082ZM105.256 85.1287C105.346 76.7649 100.038 69.2292 91.8514 65.7511V64.4262C97.7889 61.031 101.387 54.9858 101.387 48.5266C101.387 39.3347 94.1904 29.0662 76.5578 29.0662H31.4868V44.883H39.8533V91.6707H31.4868V107.487H78.537C98.2387 107.405 105.256 95.6456 105.256 85.1287ZM62.5237 44.8002H71.6099C77.0976 44.8002 79.8864 49.1063 79.8864 52.9156C79.8864 56.7248 77.0976 61.2794 71.6099 61.2794H62.5237V44.8002ZM62.5237 91.5879V73.1212H73.2292C79.7965 73.1212 82.5853 77.9242 82.5853 82.2304C82.5853 86.5365 79.7965 91.5879 73.2292 91.5879H62.5237ZM181.724 71.7135C170.118 71.7135 158.963 77.9242 158.963 90.5114C158.963 101.111 167.33 108.564 178.305 108.564C189.73 108.564 196.207 103.016 199.356 96.2253H200.796L202.685 107.405H226.705V91.5879H218.338V72.4587C218.338 57.3045 208.532 48.9407 190.45 48.9407C184.063 49.0235 177.675 49.9344 171.558 51.6734V68.0698C171.558 68.0698 178.485 64.7574 185.862 64.7574C191.529 64.7574 195.668 67.4073 195.668 72.4587V74.2806C191.35 72.5416 186.582 71.6307 181.724 71.7135ZM196.028 84.135C196.028 88.1099 192.789 92.8301 187.661 92.8301C184.692 92.8301 181.634 91.0082 181.634 87.6958C181.634 84.3834 184.872 82.1475 188.831 82.1475C191.35 82.0647 193.868 82.81 196.028 84.135ZM230.303 30.9709C230.303 21.6133 236.78 17.6384 245.237 17.6384C253.693 17.6384 260.171 21.6961 260.171 30.9709C260.171 40.2456 253.693 44.3033 245.237 44.3033C236.78 44.3033 230.303 40.3284 230.303 30.9709ZM348.423 91.5879V107.405H317.386V75.2743C317.386 70.3885 314.148 68.3182 309.56 68.3182C303.532 68.3182 299.484 72.7072 299.484 77.8414V91.5879H307.85V107.405H276.814V65.9167H268.447V50.1H291.567L293.457 61.2794H294.896C298.494 56.4764 306.771 48.9407 318.466 48.9407C328.272 48.9407 339.967 52.6671 339.967 70.7197V91.5879H348.423ZM236.331 65.9167H227.964V50.1H259.001V91.6707H267.368V107.487H236.331V65.9167ZM282.571 116.183H239.209V131.999H247.576V178.87H239.209V194.687H278.613V178.87H270.246V167.773H282.571C300.653 167.773 312.978 158.581 312.978 141.936C312.978 125.292 300.564 116.183 282.571 116.183ZM280.142 151.956H270.246V131.999H280.142C287.159 131.999 290.218 137.299 290.218 142.019C290.218 146.739 287.069 152.039 280.142 151.956Z" fill="black"/>
<path d="M116.412 221.6V228.224H132.785V234.766H116.412V248.43H107.775V214.809H134.224V221.6H116.412Z" fill="black"/>
<path d="M161.482 233.193V248.347H153.026V245.697C151.226 247.685 148.707 248.844 145.649 248.844C140.251 248.844 136.293 245.366 136.293 240.812C136.293 236.257 140.251 232.862 145.829 232.862C148.708 232.862 151.136 233.607 153.026 235.512V233.524C153.026 230.957 151.496 229.135 147.538 229.135C146.368 229.135 143.49 229.301 139.261 231.62V224.829C144.209 223.504 148.258 223.504 149.787 223.504C156.804 223.421 161.482 226.982 161.482 233.193ZM153.026 241.888V239.735C151.496 237.996 150.057 237.499 148.528 237.499C146.189 237.499 144.479 238.99 144.479 240.894C144.479 242.716 146.189 244.124 148.528 244.124C149.967 244.124 151.406 243.544 153.026 241.888Z" fill="black"/>
<path d="M208.893 231.371V248.347H200.526V234.104C200.526 231.703 199.177 230.295 196.838 230.295C194.948 230.295 193.509 231.371 191.98 233.193V248.265H183.613V234.021C183.613 231.62 182.264 230.212 179.925 230.212C178.036 230.212 176.596 231.206 175.157 233.11V248.265H166.79V223.753H175.157V227.728C177.226 224.995 179.745 223.256 183.613 223.256C187.662 223.256 190.54 225.161 191.62 228.307C193.779 225.161 196.478 223.256 200.526 223.256C205.654 223.422 208.893 226.486 208.893 231.371Z" fill="black"/>
<path d="M214.02 216.134C214.02 213.567 216.179 211.663 218.968 211.663C221.757 211.663 223.916 213.567 223.916 216.134C223.916 218.701 221.757 220.606 218.968 220.606C216.089 220.606 214.02 218.701 214.02 216.134ZM214.65 223.836H223.106V248.347H214.65V223.836Z" fill="black"/>
<path d="M228.954 214.727H237.41V248.348H228.954V214.727Z" fill="black"/>
<path d="M269.707 223.836L255.763 256.38H245.507L251.445 246.608L240.469 223.836H249.736L255.403 239.238L260.351 223.836H269.707Z" fill="black"/>
</svg>
