<svg width="222" height="29" viewBox="0 0 222 29" fill="none" xmlns="http://www.w3.org/2000/svg">
<path d="M213.137 13.0238L215.676 20.5714L217.863 13.0238L221.991 13.023L215.794 29H211.233L213.89 24.2143L209 13.0238H213.137ZM113.429 2.90975C119.984 2.90975 124.895 7.76716 124.895 14.4549C124.895 21.1426 119.984 26 113.429 26C106.874 26 101.963 21.1426 101.963 14.4549C101.963 7.76716 106.874 2.90975 113.429 2.90975ZM40.9058 8.87004C45.5615 8.87004 48.0863 11.2401 48.0863 15.5343L48.0631 20.9314H50.2172V25.4134H44.0327L43.5463 22.2455H43.1757C42.365 24.1462 40.6973 25.7184 37.7556 25.7184C34.9297 25.7184 32.7755 23.63 32.7755 20.6264C32.7755 17.0596 35.6478 15.2996 38.6358 15.2996C39.8866 15.2762 41.1142 15.5343 42.2492 16.0505V15.5343C42.2492 14.1029 41.1837 13.352 39.7244 13.352C37.8251 13.352 36.0415 14.2906 36.0415 14.2906V9.64441C37.6166 9.15162 39.2612 8.89351 40.9058 8.87004ZM73.8666 8.89351C76.3914 8.89351 79.4025 9.94946 79.4025 15.0415L79.4257 20.9549H81.5799V25.4368H73.5886V16.3321C73.5886 14.9477 72.7548 14.361 71.5735 14.361C70.0216 14.361 68.9792 15.5812 68.9792 17.0596V20.9549H71.1334V25.4368H63.1422V13.6805H60.988V9.19856H66.9409L67.4273 12.3664H67.7979C68.7244 11.0054 70.8554 8.89351 73.8666 8.89351ZM137.171 3.2148C141.827 3.2148 145 5.84296 145 10.5361C145 15.2292 141.827 17.8339 137.171 17.8339H133.998V20.9549H136.152V25.4368H126.006V20.9549H128.161V7.69677H126.006V3.2148H137.171ZM11.6046 3.2148C16.1446 3.2148 17.9976 6.12456 17.9976 8.72924C17.9976 10.5596 17.0711 12.2726 15.5423 13.2347V13.6101C17.6501 14.6191 18.9936 16.7545 18.9936 19.1246C18.9936 22.1047 17.1637 25.4368 12.1142 25.4368H0V20.9549H2.15415V7.69677H0V3.2148H11.6046ZM93.0455 3.2148C97.6781 3.2148 100.875 5.84296 100.875 10.5361C100.875 15.2292 97.6781 17.8339 93.0455 17.8339H89.8722V20.9549H92.0263V25.4368H84.0351V7.69677H81.881V3.2148H93.0455ZM58.5327 9.19856L58.5559 20.9549H60.7101V25.4368H52.6957V13.6805H50.5415V9.19856H58.5327ZM33.4473 8.89351V14.6426C32.7061 14.4783 31.9185 14.3845 31.1542 14.361C29.6949 14.361 28.5599 15.1354 28.5599 16.9422V20.9549H30.7141V25.4368H20.5687V20.9549H22.7228V13.6805H20.5687V9.19856H26.5216L27.008 12.3664H27.3786C28.3051 11.0054 30.4361 8.89351 33.4473 8.89351ZM208 9V25H204V9H208ZM191.233 13C193.531 13.0233 195 14.4884 195 16.8372V25H191.209V18.1628C191.209 17 190.594 16.3488 189.575 16.3488C188.698 16.3488 188.106 16.8605 187.395 17.7674V25H183.605V18.1628C183.605 17 182.989 16.3488 181.946 16.3488C181.07 16.3488 180.478 16.8139 179.791 17.7442V25H176V13.2326H179.791V15.1395C180.714 13.814 181.852 13 183.605 13C185.429 13 186.732 13.907 187.206 15.4186C188.201 13.9302 189.385 13 191.233 13ZM168.844 13C171.983 13.0229 174 14.6914 174 17.64V24.7943H170.31V23.5143C169.531 24.4743 168.454 25 167.102 25C164.742 25 163 23.3543 163 21.2057C163 19.0571 164.719 17.4343 167.171 17.4343C168.431 17.4343 169.485 17.7771 170.31 18.6914V17.7543C170.31 16.5429 169.623 15.6743 167.904 15.6743C167.377 15.6743 166.14 15.7429 164.283 16.84V13.64C166.438 13 168.202 13 168.844 13ZM162 9V12.246H153.936V15.4H161.356V18.5079H153.936V25H150V9H162ZM201.722 12.9683V25H198.278V12.9683H201.722ZM168.34 19.6514C167.331 19.6514 166.598 20.36 166.598 21.2286C166.598 22.0971 167.331 22.7371 168.34 22.7371C169.004 22.7829 169.646 22.5314 170.31 21.7314V20.7257C169.623 19.9029 169.004 19.6514 168.34 19.6514ZM40.4888 18.2563C39.4696 18.2563 38.6358 18.8899 38.6358 19.8285C38.6358 20.7671 39.4233 21.2834 40.1877 21.2834C41.4848 21.2834 42.2724 20.0632 42.2724 18.796C41.7396 18.444 41.1142 18.2563 40.4888 18.2563ZM10.7476 15.722H7.99121V20.9549H10.7476C12.4385 20.9549 13.1566 19.5235 13.1566 18.3033C13.1566 17.083 12.4385 15.722 10.7476 15.722ZM113.429 8.02529C110.047 8.02529 107.939 10.7942 107.939 14.4549C107.939 18.1155 110.047 20.8845 113.429 20.8845C116.811 20.8845 118.942 18.1155 118.942 14.4549C118.942 10.7942 116.811 8.02529 113.429 8.02529ZM92.4201 7.69677H89.8722V13.352H92.4201C94.2037 13.352 95.0144 11.8267 95.0144 10.5126C95.0144 9.19856 94.2268 7.69677 92.4201 7.69677ZM136.546 7.69677H133.998V13.352H136.546C138.352 13.352 139.14 11.8267 139.14 10.5126C139.14 9.19856 138.352 7.69677 136.546 7.69677ZM10.3075 7.69677H7.99121V12.3664H10.3075C11.7436 12.3664 12.4385 11.0758 12.4385 9.9964C12.4385 8.91698 11.7204 7.69677 10.3075 7.69677ZM199.989 7C201.144 7 202 7.95113 202 9.1876C202 10.4241 201.123 11.3752 199.989 11.3752C198.877 11.3752 198 10.4241 198 9.1876C198 7.92735 198.877 7 199.989 7ZM55.012 0C57.1893 0 58.857 1.12636 58.857 3.77798C58.857 6.42961 57.1893 7.55597 55.012 7.55597C52.8347 7.55597 51.1669 6.42961 51.1669 3.77798C51.1669 1.12636 52.8347 0 55.012 0Z" fill="black"/>
</svg>
