<svg width="200" height="35" viewBox="0 0 200 35" fill="none" xmlns="http://www.w3.org/2000/svg">
<path fill-rule="evenodd" clip-rule="evenodd" d="M39.4031 22.8074V28.2001H42.3685V34.2238H28.3884V28.1906H31.3538V18.3898H28.3884V12.3945H36.6071L37.2845 16.6607H37.7926C39.0707 14.821 42.0266 11.9748 46.1775 11.9748V19.712C45.14 19.4793 44.0809 19.3535 43.0171 19.3365C40.9689 19.3365 39.4031 20.3683 39.4031 22.8074ZM26.1933 25.7388C26.1933 29.7462 23.691 34.2238 16.7122 34.2238H0V28.1906H2.96536V10.3624H0V4.34819H15.9964C22.2691 4.34819 24.8127 8.26408 24.8127 11.7697C24.8355 14.2332 23.5583 16.5308 21.4415 17.8345V18.3362C24.3563 19.6675 26.2141 22.5582 26.1933 25.7294V25.7388ZM11.0243 16.6417H14.2198C16.1786 16.6417 17.1564 14.9031 17.1564 13.4547C17.1564 12.0064 16.1786 10.3624 14.2198 10.3624H11.0243V16.6417ZM18.1342 24.6281C18.1342 22.9904 17.1755 21.1571 14.8173 21.1571H11.0243V28.1906H14.8173C17.1596 28.1906 18.1342 26.2784 18.1342 24.6281ZM75.8919 10.1857C78.8988 10.1857 81.1932 8.6585 81.1932 5.09285C81.1932 1.52723 78.8829 0 75.8919 0C72.901 0 70.5939 1.52723 70.5939 5.09285C70.5939 8.6585 72.8722 10.1857 75.8919 10.1857ZM80.7618 12.3945H69.7311V18.3898H72.6965V34.2048H83.7112V28.178H80.7458L80.7618 12.3945ZM172.276 19.4627C172.276 28.4777 165.515 35 156.472 35C147.428 35 140.667 28.4872 140.667 19.4627C140.667 10.4381 147.428 3.9285 156.472 3.9285C165.515 3.9285 172.276 10.4476 172.276 19.4627ZM164.058 19.4627C164.058 14.5497 161.137 10.8326 156.472 10.8326C151.806 10.8326 148.889 14.5497 148.889 19.4627C148.889 24.3757 151.806 28.0959 156.472 28.0959C161.137 28.0959 164.058 24.3851 164.058 19.4627ZM66.3439 28.1906H69.3093V34.2143H60.7743L60.0968 29.9482H59.5951C58.4575 32.5072 56.1824 34.634 52.1146 34.634C48.2193 34.634 45.2411 31.7941 45.2411 27.7741C45.2411 22.9841 49.2099 20.6239 53.3321 20.6113C55.044 20.5795 56.7416 20.9255 58.301 21.6241V20.9142C58.301 18.9988 56.8279 17.9828 54.818 17.9828C52.2137 17.9828 49.7436 19.2449 49.7436 19.2449V13.0004C51.9136 12.3459 54.1661 11.9964 56.4348 11.9622C62.8768 11.9622 66.3407 15.1397 66.3407 20.9142L66.3439 28.1906ZM58.2946 25.2844C57.5611 24.8193 56.7089 24.5698 55.8373 24.565C54.4281 24.565 53.2809 25.4012 53.2809 26.6791C53.2809 27.9571 54.3578 28.645 55.4155 28.645C57.2209 28.645 58.2946 27.0073 58.2946 25.2844ZM200 14.171C200 20.4977 195.616 23.9939 189.212 23.9939H184.834V28.1874H187.8V34.2111H173.82V28.1937H176.785V10.3687H173.82V4.34819H189.212C195.616 4.34819 200 7.84439 200 14.171ZM191.951 14.171C191.951 12.3977 190.839 10.3845 188.356 10.3845H184.841V17.9702H188.356C190.839 17.9702 191.951 15.9444 191.951 14.171ZM109.55 20.2421C109.55 13.3822 105.396 11.9591 101.925 11.9591C97.7712 11.9591 94.8122 14.799 93.5404 16.6449H93.0323L92.3549 12.3945H84.1362V18.3898H87.1016V34.2048H98.1163V28.178H95.1509V22.9526C95.1509 20.9741 96.5984 19.3175 98.7298 19.3175C100.328 19.3175 101.5 20.119 101.5 21.9807V34.2175H112.515V28.1906H109.55V20.2421ZM139.124 14.171C139.124 20.4977 134.739 23.997 128.332 23.997H123.955V28.1906H126.92V34.2143H115.905V10.3719H112.94V4.34819H128.332C134.739 4.34819 139.124 7.84439 139.124 14.171ZM131.071 14.171C131.071 12.3977 129.959 10.3845 127.479 10.3845H123.964V17.9733H127.479C129.959 17.9733 131.071 15.9444 131.071 14.171Z" fill="white"/>
</svg>
