<?xml version="1.0" standalone="no"?>
<!DOCTYPE svg PUBLIC "-//W3C//DTD SVG 20010904//EN"
 "http://www.w3.org/TR/2001/REC-SVG-20010904/DTD/svg10.dtd">
<svg version="1.0" xmlns="http://www.w3.org/2000/svg"
 width="128.000000pt" height="128.000000pt" viewBox="0 0 128.000000 128.000000"
 preserveAspectRatio="xMidYMid meet">

<g transform="translate(0.000000,128.000000) scale(0.100000,-0.100000)"
fill="#008080" stroke="none">
<path d="M562 1039 c-74 -14 -150 -56 -208 -113 -160 -161 -160 -411 0 -572
162 -161 420 -161 582 0 93 94 137 225 115 347 -41 234 -258 384 -489 338z
m230 -86 c65 -30 133 -95 165 -162 25 -49 28 -67 28 -151 0 -76 -4 -104 -22
-142 -30 -66 -96 -133 -162 -165 -50 -25 -67 -28 -156 -28 -89 0 -106 3 -156
28 -111 54 -179 157 -187 283 -10 159 76 294 220 346 71 25 203 21 270 -9z"/>
<path d="M530 755 c-11 -14 -6 -23 35 -65 l49 -50 -49 -50 c-47 -47 -48 -51
-32 -67 16 -16 20 -15 67 32 l50 49 50 -49 c47 -47 51 -48 67 -32 16 16 15 20
-32 67 l-49 50 49 50 c47 47 48 51 32 67 -16 16 -20 15 -67 -32 l-50 -49 -48
47 c-26 26 -50 47 -54 47 -3 0 -11 -7 -18 -15z"/>
</g>
</svg>
