<svg width="29" height="29" viewBox="0 0 29 29" fill="none" xmlns="http://www.w3.org/2000/svg">
<path d="M28.2015 8.04903L25.5903 10.6602C25.3241 10.9264 24.8937 10.9264 24.6275 10.6602L18.3403 4.37305C18.0741 4.10684 18.0741 3.67637 18.3403 3.41016L20.9515 0.799024C22.0107 -0.260156 23.7325 -0.260156 24.7974 0.799024L28.2015 4.20313C29.2663 5.26231 29.2663 6.98418 28.2015 8.04903ZM16.0974 5.65313L1.22356 20.527L0.022779 27.4088C-0.141479 28.3377 0.668482 29.142 1.59739 28.9834L8.47922 27.777L23.353 12.9031C23.6193 12.6369 23.6193 12.2065 23.353 11.9402L17.0659 5.65313C16.7941 5.38692 16.3636 5.38692 16.0974 5.65313ZM7.02922 19.2525C6.7177 18.941 6.7177 18.4426 7.02922 18.1311L15.7519 9.4084C16.0634 9.09688 16.5618 9.09688 16.8734 9.4084C17.1849 9.71993 17.1849 10.2184 16.8734 10.5299L8.1507 19.2525C7.83918 19.5641 7.34074 19.5641 7.02922 19.2525ZM4.9845 24.016H7.70324V26.0721L4.04993 26.7121L2.2884 24.9506L2.92844 21.2973H4.9845V24.016Z" fill="#008080"/>
</svg>
