<svg width="83" height="99" viewBox="0 0 83 99" fill="none" xmlns="http://www.w3.org/2000/svg">
<path d="M0 0H83V99L42 81.5L0 99V0Z" fill="#FFF9EB"/>
  <svg width="62" height="62" viewBox="0 0 62 62" fill="none" x="13%" y ="10%" xmlns="http://www.w3.org/2000/svg">
<path d="M61.9981 31C61.9981 22.4667 58.9649 15.1667 52.8984 9.1C46.8652 3.03333 39.5655 0 30.9991 0C22.4326 0 15.1162 3.03333 9.04972 9.1C3.01657 15.1333 0 22.4333 0 31C0 39.5667 3.01657 46.8833 9.04972 52.95C15.1162 58.9833 22.4326 62 30.9991 62C39.5655 62 46.8652 58.9833 52.8984 52.95C58.9649 46.8833 61.9981 39.5667 61.9981 31ZM52.5984 20.4C52.5984 21 52.3817 21.5167 51.9484 21.95L27.0992 47.35C26.6659 47.7833 26.1659 48 25.5992 48C24.9992 48 24.4826 47.7833 24.0493 47.35L9.99969 33C9.56637 32.5667 9.34972 32.0333 9.34972 31.4C9.34972 30.8 9.56637 30.2833 9.99969 29.85L13.0496 26.75C13.4829 26.3167 13.9996 26.1 14.5996 26.1C15.1662 26.1 15.6662 26.3167 16.0995 26.75L25.5492 36.4L45.8486 15.7C46.2819 15.2667 46.7819 15.05 47.3486 15.05C47.9485 15.05 48.4652 15.2667 48.8985 15.7L51.9484 18.8C52.3817 19.2667 52.5984 19.8 52.5984 20.4Z" fill="#8CC800"/>
</svg>
</svg>


