<svg width="9" height="11" viewBox="0 0 9 11" fill="none" xmlns="http://www.w3.org/2000/svg">
<path d="M0 1.71875V9.28125C0 9.8508 0.431719 10.3125 0.964286 10.3125H8.03571C8.56828 10.3125 9 9.8508 9 9.28125V1.71875C9 1.1492 8.56828 0.6875 8.03571 0.6875H0.964286C0.431719 0.6875 0 1.1492 0 1.71875ZM1.76786 2.0625H4.01727C4.44544 2.0625 4.66174 2.61811 4.35821 2.94274L3.71567 3.62996L7.64367 7.83073C7.73781 7.93141 7.73781 8.09465 7.64367 8.19534L7.02032 8.86198C6.92616 8.96266 6.77352 8.96266 6.67939 8.86198L2.75141 4.66123L2.10879 5.34854C1.80687 5.67138 1.28571 5.44468 1.28571 4.98392V2.57812C1.28571 2.29335 1.50157 2.0625 1.76786 2.0625Z" fill="#66FFFF"/>
</svg>
